<svg width="20" height="20" viewBox="0 0 20 20" fill="none" xmlns="http://www.w3.org/2000/svg">
<path d="M10.0954 1.66826C9.66727 1.02138 8.89227 0.671381 8.07352 0.754193C7.25477 0.837006 6.56571 1.33701 6.27508 2.05732C6.09852 2.49638 6.03914 3.02138 6.09696 3.66513C6.15008 4.27138 6.12352 4.43076 5.71414 4.73388C5.10946 5.18544 4.86414 5.80576 5.07352 6.35419C5.27196 6.87607 5.82977 7.19326 6.52196 7.19326C6.58914 7.19326 6.65789 7.19013 6.72821 7.18388C8.19071 7.05576 9.26258 6.39013 9.91571 5.20576C9.93289 5.17607 9.94539 5.15263 9.95477 5.13544C10.5251 4.21669 10.7704 2.68857 10.0954 1.66826Z" fill="#543930"/>
<path d="M10.4551 3.67285C10.4035 4.24473 10.0895 4.87754 9.94728 5.10254C9.93791 5.11973 9.92541 5.14316 9.90822 5.17285C9.2551 6.35723 8.18322 7.02285 6.72072 7.15098C6.65197 7.15723 6.58322 7.16035 6.51603 7.16035C5.82228 7.16035 5.24416 6.85098 5.06759 6.32129C4.82697 5.59941 5.28478 5.02285 5.56447 4.81816C5.99416 4.5041 6.16603 4.35254 6.10509 3.7416C6.45509 6.06035 10.3551 4.26035 10.4395 3.77754C10.4457 3.74316 10.452 3.70723 10.4551 3.67285Z" fill="url(#paint0_radial)"/>
<path d="M10.7078 5.27246C10.425 5.44434 10.0641 5.5084 9.78125 5.5084C9.68594 5.5084 9.59844 5.50059 9.52812 5.48809C9.24219 5.43496 8.97969 5.41309 8.73906 5.41309C7.38281 5.41309 6.71875 6.11777 6.71875 6.11777L7.64219 7.55527C8.08906 7.69277 8.55469 7.76934 8.95937 7.76934C9.1625 7.76934 9.35 7.75059 9.51406 7.70996C10.4422 7.48027 10.8844 6.78184 10.8844 6.78184L10.7078 5.27246Z" fill="url(#paint1_linear)"/>
<path d="M13.2719 4.34687H13.2734C12.9437 3.35469 12.4328 2.80312 12.1094 2.025C12.1047 2.01094 12.1 2.00156 12.0953 1.9875C12.1609 1.92813 12.2312 1.8625 12.3172 1.78125C12.3172 1.78125 12.7656 1.29688 13.1 1.04531C13.1687 0.992188 13.1359 0.859375 13.0375 0.859375H13.0281C12.7953 0.904687 12.2437 1.37656 12.2437 1.37656C12.2187 1.30469 12.1672 1.27812 12.1109 1.27812C12.025 1.27812 11.9234 1.3375 11.8609 1.39219L11.3844 1.8125C11.2531 1.92813 11.2484 2.08125 11.3109 2.19219C11.3156 2.21406 11.3219 2.2375 11.3312 2.26406L11.8594 3.86094C11.9125 4.02813 11.9609 4.19844 12.0047 4.36875C11.4344 4.77188 10.1172 5.54219 10.1172 5.54219C10.1172 5.54219 10.4859 6.70781 10.6156 6.70781H10.6234C10.7922 6.70781 11.0891 6.61094 11.2203 6.50781C11.9547 5.9375 12.725 5.30938 13.0844 5.0125L13.0828 5.01406C13.175 4.94375 13.2469 4.85 13.2844 4.73125C13.3266 4.6 13.3172 4.46719 13.2719 4.34687Z" fill="url(#paint2_linear)"/>
<path d="M7.42516 10.0688C7.42359 10.0641 7.42047 10.0609 7.41734 10.0563L7.35328 10.1031C7.35172 10.1016 7.35172 10.1016 7.35172 10.1L7.41734 10.0563C7.41266 10.0484 7.40797 10.0422 7.40172 10.0344C7.39527 10.0253 7.38795 10.017 7.37984 10.0094C7.37047 9.99687 7.36266 9.9875 7.35016 9.97344L6.21109 8.73594C6.13609 8.65313 6.06578 8.56719 5.99391 8.48125C6.54859 7.98906 7.61266 7.17812 7.61266 7.17812C7.61266 7.17812 7.10797 6.09375 6.97516 6.09375H6.97203C6.80484 6.09375 6.51891 6.23906 6.40016 6.35938C5.74391 7.01875 5.06109 7.73438 4.74234 8.075L4.74391 8.07031C4.66266 8.15156 4.60328 8.25312 4.57984 8.375C4.54547 8.5625 4.60641 8.74219 4.72516 8.87187H4.72359L4.74078 8.88906C4.74234 8.89062 4.74391 8.89375 4.74703 8.89531C5.44703 9.64531 6.10328 9.925 6.71266 10.4969C6.73453 10.5188 6.75641 10.5359 6.77984 10.55C6.76109 10.6406 6.74078 10.7422 6.71891 10.8656C6.71891 10.8656 6.64391 11.5203 6.52359 11.9219C6.50328 11.9875 6.56266 12.0547 6.62672 12.0547C6.64859 12.0547 6.67047 12.0469 6.68922 12.0297C6.85016 11.8562 7.01578 11.1484 7.01578 11.1484C7.04547 11.1687 7.07516 11.1781 7.10172 11.1781C7.21422 11.1781 7.29234 11.0187 7.31578 10.9094L7.45172 10.2891C7.45953 10.25 7.46109 10.2141 7.45797 10.1813C7.46109 10.1469 7.45016 10.1094 7.42516 10.0688Z" fill="url(#paint3_linear)"/>
<path d="M14.6875 10.4697L14.6906 10.5307C14.7281 10.4979 14.7281 10.4729 14.6875 10.4697Z" fill="url(#paint4_linear)"/>
<path d="M14.7016 10.5407C14.5031 10.7204 13.2469 11.1735 11.6312 10.2751C11.0062 9.92818 10.6188 9.43443 10.5359 8.86724C10.4531 8.30005 10.825 7.93443 10.8641 7.42193C10.8766 7.25318 10.8609 7.11255 10.825 6.9938C11.0656 6.87818 11.3422 6.65005 11.3438 6.5938C11.3547 6.36412 11.2375 6.14849 11.1141 5.9563C10.9813 5.74849 10.8312 5.54849 10.6328 5.40318C10.5812 5.36568 10.4656 5.29693 10.4031 5.31568C9.88125 5.47193 9.78281 5.46099 9.32656 5.46099L9.18594 5.4438C9.43281 5.72974 10.0188 6.98599 9.45156 7.25005C8.88438 7.51412 7.64531 5.58443 7.64531 5.58443C7.26094 5.69068 6.45938 6.15162 6.07813 6.59537C6.05469 6.62193 6.09219 6.66568 6.10938 6.69693C6.30469 7.06724 6.64844 7.43287 6.97656 7.6938C7.01094 7.72193 7.04844 7.75005 7.09063 7.75787C7.12813 7.76568 7.26094 7.67974 7.35469 7.61255C7.56875 7.85943 7.7625 8.0938 7.87813 8.25474C8.00938 8.41724 8.35625 9.03755 8.22969 9.54849C7.31094 11.4797 8.18906 11.8547 8.2875 12.5282C8.48906 13.911 6.875 17.3094 4.14062 17.3094L5.42969 18.0516L7.87813 17.8907L9.23125 16.7266L11.0906 16.4485L11.7469 15.1032L12.3984 13.2844L14.7688 11.7219L14.7016 10.5407Z" fill="url(#paint5_linear)"/>
<path d="M8.31563 15.0781C8.09688 15.2062 7.86719 15.4453 7.63125 15.8438C7.42656 16.1891 6.93906 17.0656 6.5625 17.1375C6.21094 17.2047 5.72031 17.0422 5.54375 16.7203L5.46875 16.5844L5.19531 16.7344L5.27031 16.8719C5.48125 17.2578 5.94531 17.4328 6.3625 17.4328C6.45156 17.4328 6.5375 17.425 6.61875 17.4094C7.15625 17.3062 7.56719 16.4687 7.77031 16.1172C7.92031 15.8578 8.07188 15.6766 8.22656 15.5531C8.2125 15.4016 8.24531 15.2375 8.31563 15.0781Z" fill="#FF8F00"/>
<path d="M11.5688 10.9996C11.9078 10.9809 12.2141 11.0824 12.2141 11.0824L12.0969 11.0043C11.9141 10.9168 11.5203 10.7184 11.1719 10.7434C11.2875 10.884 11.4406 10.9371 11.5688 10.9996Z" fill="#FF8F00"/>
<path d="M10.2578 13.3068C10.5719 14.0396 11.1453 15.3131 10.6219 15.6771C10.5172 15.7506 10.2875 15.7131 9.98438 15.5537C9.75156 15.4318 9.49531 15.2318 9.21875 15.1053C9.25625 15.2287 9.29063 15.3537 9.30313 15.4756C9.52344 15.5631 9.73281 15.6865 9.925 15.7881C10.2719 15.9709 10.55 16.0662 10.8156 15.8381C11.4875 15.2615 10.8437 14.2818 10.5312 13.4975C10.2297 12.7428 10.2562 12.1912 10.4953 11.76C10.3672 11.724 10.2469 11.6803 10.1313 11.6396C9.9375 12.1443 10.0188 12.749 10.2578 13.3068Z" fill="#FF8F00"/>
<path d="M11.0234 11.1787C11.1828 11.0553 11.3813 11.0084 11.5688 10.9975C11.4391 10.935 11.2875 10.8818 11.1734 10.7412C11.0875 10.7475 11.0031 10.7662 10.9266 10.8053C10.5281 11.0068 10.2844 11.2928 10.1562 11.6209C10.2703 11.6615 10.3922 11.7053 10.5203 11.7412C10.6391 11.5271 10.8109 11.3428 11.0234 11.1787Z" fill="#FFB600"/>
<path d="M8.29644 15.0864C8.22456 15.2458 8.19331 15.4114 8.20581 15.5614C8.57456 15.2661 8.94956 15.3083 9.29956 15.4474C9.2855 15.3255 9.25269 15.2005 9.21519 15.0771C8.93081 14.9458 8.62456 14.8943 8.29644 15.0864Z" fill="#FFB600"/>
<path d="M13.2812 11.6178V11.5412C13.7609 11.4521 13.6125 10.8209 13.5953 10.7162L13.8938 10.6631C13.9031 10.7209 13.9969 11.2287 13.7359 11.5053C13.6609 11.585 13.2812 11.6225 13.2812 11.6178Z" fill="#FF8F00"/>
<path d="M15.291 10.0474C16.1582 9.9412 16.8301 10.8646 16.5145 11.6849C16.4098 11.9553 16.2176 12.1178 16.0082 12.199C16.0067 12.2006 16.0035 12.2006 16.002 12.2021C15.841 12.2678 15.8598 12.5084 16.027 12.5568C16.1535 12.5943 16.3613 12.4662 16.5754 12.5849C16.8192 12.7193 17.0129 12.9287 17.0067 13.3099C16.9988 13.7412 16.8176 14.1599 16.4192 14.2662C15.8238 14.4224 15.6973 14.9615 15.677 15.6318C15.6692 15.9006 15.6004 16.3224 15.2629 16.5553C14.1082 17.3537 13.3613 16.2506 12.4785 16.724C10.952 17.5412 11.8957 19.2396 8.0504 18.1006C7.13478 17.8303 5.61759 19.7412 4.30196 18.9428C3.25509 18.3068 3.56915 17.5271 3.9754 17.2521C4.79103 16.7037 4.9254 17.8224 6.74884 17.7209C7.69571 17.6678 7.46759 16.0724 8.74103 15.6896C9.74571 15.3881 10.1598 16.8271 10.9285 16.1584C12.1395 15.1037 10.3817 13.4631 10.8504 12.2912C11.141 11.5631 11.7488 11.1584 12.3738 11.3146C12.9988 11.4709 12.9473 11.9521 13.3504 12.0693C13.7926 12.199 14.0629 11.7646 14.1582 11.4443C14.3176 10.9084 14.4317 10.1537 15.291 10.0474Z" fill="url(#paint6_radial)"/>
<path d="M15.6664 18.0569C15.9195 18.2163 16.4148 18.71 16.5508 18.9756C16.5898 19.0522 16.6258 19.2381 16.5742 19.3053C16.5305 19.3616 15.5508 19.4194 14.8476 19.021C14.7867 18.9866 14.7086 18.8585 14.6836 18.8085C14.6367 18.7147 14.5664 18.7038 14.5554 18.8022C14.4633 18.7975 14.3976 18.8053 14.3054 18.8006C14.2398 18.1616 14.1304 18.2319 14.1414 17.7835C14.1508 17.4194 14.4008 17.3413 14.4992 17.3038C14.5148 17.2975 15.293 17.7819 15.6664 18.0569Z" fill="#DD2C00"/>
<path d="M15.6496 17.7422C15.5121 17.4141 15.3731 17.0844 15.2356 16.7563C14.6887 15.4531 14.4371 14.8875 13.8262 13.6125C13.7684 13.4859 13.6606 13.4375 13.534 13.4375C13.3559 13.4375 13.1387 13.5328 12.9606 13.6422C12.6434 13.8375 12.3574 14.0203 12.5778 14.3703C13.0199 15.0688 14.0121 16.2031 14.3543 16.9563C14.5418 17.3688 14.5418 17.8047 14.8434 18.1406C14.9778 18.2906 15.0746 18.3922 15.2731 18.4266C15.3403 18.4391 15.409 18.4469 15.4731 18.4469C15.6168 18.4469 15.7371 18.4047 15.7621 18.2672C15.7856 18.1406 15.6996 17.8609 15.6496 17.7422Z" fill="url(#paint7_linear)"/>
<path d="M9.41563 18.9771C9.35 18.5803 9.01563 17.9287 8.65469 17.9287C8.29375 17.9287 7.92969 18.5803 7.86406 18.9771C7.85469 19.0303 7.85156 19.2021 7.85156 19.2443C7.85156 19.2459 7.85312 19.2475 7.85312 19.2475C7.85625 19.3068 7.92031 19.3881 8.01094 19.3881C8.22969 19.3881 8.43437 19.3881 8.6375 19.3896C8.84062 19.3896 9.04531 19.3881 9.26406 19.3881C9.35937 19.3881 9.425 19.299 9.42188 19.2396V19.2381C9.42188 19.1975 9.42344 19.0287 9.41563 18.9771Z" fill="#B41301"/>
<path d="M8.98142 16.7969C8.79236 16.7969 8.62361 16.8406 8.59861 16.9344C8.54079 17.1547 8.36892 17.7312 8.31111 18.0484C8.22204 18.3609 8.33142 18.4781 8.65017 18.5375C8.68455 18.5438 8.7158 18.5469 8.74548 18.5469C8.9533 18.5469 9.0408 18.3891 9.11111 18.15L9.54548 17.0813C9.60173 16.8984 9.26892 16.7969 8.98142 16.7969Z" fill="#EDA600"/>
<path d="M9.01406 5.19434L8.08594 5.27559L8.13125 5.78496C8.15 6.00215 8.33438 6.16621 8.55156 6.16621C8.56406 6.16621 8.57656 6.16621 8.58906 6.16465L8.67344 6.15684C8.72856 6.15231 8.78225 6.13694 8.83143 6.11162C8.88061 6.0863 8.9243 6.05152 8.96001 6.00928C8.99572 5.96704 9.02274 5.91817 9.03952 5.86546C9.05631 5.81276 9.06252 5.75726 9.05781 5.70215L9.01406 5.19434Z" fill="#E59600"/>
<path d="M10.077 3.34121C9.96139 2.03652 9.18326 1.44434 8.35826 1.44434C8.30826 1.44434 8.2567 1.4459 8.20514 1.45059C7.32701 1.52715 6.57076 2.25215 6.69264 3.63652C6.78951 4.75059 7.53795 5.34746 8.1567 5.50684C8.27076 5.53652 8.38014 5.55059 8.48014 5.55059C8.50826 5.55059 8.53639 5.54902 8.56451 5.54746C8.68639 5.53652 8.82233 5.49902 8.96139 5.43652C9.54264 5.17246 10.1739 4.45371 10.077 3.34121Z" fill="#FFCA28"/>
<path d="M8.23882 4.13809C8.24351 4.13496 8.24976 4.1334 8.25445 4.13184L8.6107 4.10059C8.61695 4.10059 8.62163 4.10215 8.62788 4.10371C8.6607 4.11465 8.68257 4.1459 8.67007 4.1834C8.65757 4.2209 8.59507 4.32715 8.45289 4.33965C8.30914 4.35215 8.22945 4.2584 8.21226 4.22402C8.19195 4.18965 8.20757 4.15371 8.23882 4.13809Z" fill="#E59600"/>
<path d="M9.23928 3.81122C9.37682 3.79919 9.47827 3.67446 9.46587 3.53261C9.45347 3.39077 9.33191 3.28553 9.19436 3.29756C9.05682 3.30959 8.95537 3.43432 8.96777 3.57616C8.98017 3.71801 9.10173 3.82324 9.23928 3.81122Z" fill="#404040"/>
<path d="M7.59865 3.96649C7.7362 3.95446 7.83765 3.82973 7.82524 3.68789C7.81284 3.54604 7.69128 3.44081 7.55374 3.45283C7.41619 3.46486 7.31474 3.5896 7.32714 3.73144C7.33955 3.87328 7.4611 3.97852 7.59865 3.96649Z" fill="#404040"/>
<path d="M8.83892 3.15646C8.88111 3.08927 8.98267 2.98927 9.19517 2.97052C9.40767 2.95177 9.52486 3.03302 9.57798 3.09239C9.60142 3.11896 9.5983 3.15021 9.5858 3.17208C9.5733 3.19083 9.5358 3.21114 9.49048 3.20021C9.44517 3.18927 9.35611 3.15177 9.21236 3.16427C9.06861 3.17833 8.98736 3.22989 8.94361 3.24864C8.90142 3.26739 8.85923 3.25489 8.84517 3.23771C8.83537 3.22672 8.82945 3.21282 8.82832 3.19814C8.82719 3.18346 8.83092 3.16881 8.83892 3.15646Z" fill="#6D4C41"/>
<path d="M7.15884 3.31271C7.20103 3.24552 7.30259 3.14552 7.51509 3.12677C7.72759 3.10802 7.84478 3.18927 7.8979 3.24865C7.92134 3.27521 7.91821 3.30646 7.90571 3.32833C7.89321 3.34708 7.85572 3.3674 7.8104 3.35646C7.76509 3.34552 7.67603 3.30802 7.53228 3.32052C7.38853 3.33458 7.30728 3.38615 7.26353 3.4049C7.22134 3.42365 7.17915 3.41115 7.16509 3.39396C7.14947 3.37365 7.14009 3.34083 7.15884 3.31271Z" fill="#6D4C41"/>
<path d="M8.07963 4.54865C8.24838 4.6299 8.77494 4.58459 8.92806 4.47521C9.01556 4.41271 9.11713 4.48771 9.08588 4.57521C9.05619 4.66115 8.78431 4.87678 8.53588 4.89865C8.28744 4.92053 7.98744 4.75334 7.94213 4.67521C7.89681 4.59396 7.98275 4.50178 8.07963 4.54865Z" fill="#795548"/>
<path d="M6.29847 4.27513C6.37191 3.49232 6.27035 3.22356 6.29222 2.93763C6.31097 2.69544 6.3891 1.10169 8.12347 0.950127C10.1063 0.77669 10.2203 2.597 10.2203 2.597L10.2688 3.24544C10.2688 3.24544 10.2547 3.63294 10.0828 4.10169C9.90941 4.572 9.77347 4.747 9.82035 4.51106C9.87191 4.25013 9.91722 3.89388 9.88753 3.55482C9.87503 3.40638 9.87347 2.85013 9.55628 2.80794C8.39222 2.65169 7.69378 2.10169 7.69378 2.10169C7.55785 2.48294 7.0641 2.88763 6.88753 3.03919C6.74222 3.16419 6.80472 3.622 6.82503 3.81732L6.97347 4.70638C6.7766 4.60325 6.41566 4.472 6.29847 4.27513Z" fill="#543930"/>
<path d="M10.4427 3.69951C10.4427 3.70263 10.4427 3.70419 10.4411 3.70732C10.438 3.74169 10.4318 3.77763 10.4255 3.81201C10.3411 4.29482 6.44114 6.09482 6.09114 3.77607C6.08489 3.74013 6.0802 3.70263 6.07707 3.66513C6.07551 3.65107 6.07395 3.63701 6.07395 3.62451C6.07082 3.59794 6.06926 3.57294 6.06926 3.54794C6.02238 2.95888 6.08957 2.46982 6.25676 2.05732C6.54582 1.33701 7.23489 0.837006 8.05364 0.754193C8.87239 0.671381 9.64582 1.02138 10.0755 1.66826C10.4599 2.24951 10.5458 2.99482 10.4427 3.69951Z" fill="url(#paint8_radial)"/>
<defs>
<radialGradient id="paint0_radial" cx="0" cy="0" r="1" gradientUnits="userSpaceOnUse" gradientTransform="translate(7.85315 4.85514) rotate(147.181) scale(3.16678 2.0283)">
<stop offset="0.782" stop-color="#6D4C41" stop-opacity="0"/>
<stop offset="1" stop-color="#6D4C41"/>
</radialGradient>
<linearGradient id="paint1_linear" x1="8.92625" y1="7.80762" x2="8.71906" y2="5.55105" gradientUnits="userSpaceOnUse">
<stop offset="0.074" stop-color="#FFCA28"/>
<stop offset="1" stop-color="#FFB300"/>
</linearGradient>
<linearGradient id="paint2_linear" x1="11.847" y1="3.74391" x2="10.5825" y2="4.58687" gradientUnits="userSpaceOnUse">
<stop offset="0.232" stop-color="#FFCA28"/>
<stop offset="1" stop-color="#FFB300"/>
</linearGradient>
<linearGradient id="paint3_linear" x1="5.7875" y1="9.93906" x2="7.53172" y2="8.22391" gradientUnits="userSpaceOnUse">
<stop offset="0.232" stop-color="#FFCA28"/>
<stop offset="1" stop-color="#FFB300"/>
</linearGradient>
<linearGradient id="paint4_linear" x1="14.7323" y1="10.4718" x2="14.6277" y2="10.5414" gradientUnits="userSpaceOnUse">
<stop stop-color="#BC1B00"/>
<stop offset="0.29" stop-color="#E31C00"/>
<stop offset="0.693" stop-color="#BC1B00"/>
<stop offset="0.914" stop-color="#DD1C00"/>
</linearGradient>
<linearGradient id="paint5_linear" x1="7.90578" y1="6.24333" x2="9.16563" y2="12.6299" gradientUnits="userSpaceOnUse">
<stop stop-color="#BC1B00"/>
<stop offset="0.213" stop-color="#E31C00"/>
<stop offset="0.507" stop-color="#BC1B00"/>
<stop offset="0.875" stop-color="#DD1C00"/>
</linearGradient>
<radialGradient id="paint6_radial" cx="0" cy="0" r="1" gradientUnits="userSpaceOnUse" gradientTransform="translate(10.4996 15.484) scale(7.39922)">
<stop stop-color="#892002"/>
<stop offset="0.537" stop-color="#B42002"/>
<stop offset="1" stop-color="#892002"/>
</radialGradient>
<linearGradient id="paint7_linear" x1="13.0201" y1="13.6502" x2="14.8806" y2="17.1531" gradientUnits="userSpaceOnUse">
<stop stop-color="#FFB300"/>
<stop offset="0.401" stop-color="#FFCA28"/>
</linearGradient>
<radialGradient id="paint8_radial" cx="0" cy="0" r="1" gradientUnits="userSpaceOnUse" gradientTransform="translate(8.20498 3.46747) rotate(90) scale(2.77203 2.54251)">
<stop offset="0.869" stop-color="#6D4C41" stop-opacity="0"/>
<stop offset="1" stop-color="#6D4C41"/>
</radialGradient>
</defs>
</svg>
