<svg width="20" height="20" viewBox="0 0 20 20" fill="none" xmlns="http://www.w3.org/2000/svg">
<path d="M9.9375 18.5625C5.57812 18.5625 0.875 15.8281 0.875 9.82812C0.875 3.82812 5.57812 1.09375 9.9375 1.09375C12.3594 1.09375 14.5938 1.89062 16.25 3.34375C18.0469 4.9375 19 7.1875 19 9.82812C19 12.4688 18.0469 14.7031 16.25 16.2969C14.5938 17.75 12.3438 18.5625 9.9375 18.5625Z" fill="url(#paint0_radial)"/>
<path d="M17.4191 4.63477C18.252 5.97852 18.6863 7.57852 18.6863 9.3582C18.6863 11.9988 17.7332 14.2332 15.9363 15.827C14.2801 17.2801 12.0301 18.0926 9.62383 18.0926C6.80195 18.0926 3.84258 16.9441 2.0957 14.5082C3.77695 17.2676 6.93945 18.5613 9.93633 18.5613C12.3426 18.5613 14.5926 17.7488 16.2488 16.2957C18.0457 14.702 18.9988 12.4676 18.9988 9.82695C18.9988 7.83633 18.4566 6.06758 17.4191 4.63477Z" fill="#EB8F00"/>
<path d="M16.3678 12.4423L14.5553 11.9736C14.4666 11.9503 14.3738 11.9468 14.2836 11.9635C14.1934 11.9801 14.1079 12.0164 14.0333 12.0698C13.9587 12.1232 13.8968 12.1924 13.852 12.2725C13.8072 12.3525 13.7806 12.4414 13.774 12.5329L13.6865 13.697L12.6568 13.1095C12.5128 13.0275 12.3421 13.0059 12.1822 13.0495C12.0222 13.0932 11.8861 13.1985 11.8037 13.3423C11.7897 13.3673 11.7772 13.3939 11.7662 13.422L11.3506 14.4907L10.535 13.5329C10.4749 13.4623 10.3998 13.4059 10.3152 13.3678C10.2306 13.3297 10.1387 13.3108 10.0459 13.3126H9.95998C9.77248 13.3095 9.59279 13.3892 9.47091 13.5329L8.65529 14.4907L8.23498 13.4251C8.20478 13.3488 8.15984 13.2793 8.10272 13.2204C8.0456 13.1615 7.97742 13.1144 7.9021 13.0819C7.82678 13.0494 7.74578 13.0321 7.66375 13.0309C7.58171 13.0298 7.50026 13.0448 7.42404 13.0751C7.39747 13.0861 7.37091 13.0986 7.34435 13.1126L6.30841 13.7001L6.22091 12.5361C6.20871 12.3708 6.13145 12.2171 6.00608 12.1087C5.88071 12.0003 5.71746 11.9461 5.55216 11.9579C5.51466 11.9611 5.47716 11.9673 5.43966 11.9767L3.62716 12.4454C3.46513 12.4807 3.32373 12.5788 3.23406 12.7183C3.1444 12.8578 3.11381 13.0272 3.14904 13.1892C3.18426 13.3512 3.28241 13.4926 3.42189 13.5823C3.56137 13.672 3.73076 13.7025 3.89279 13.6673C3.90841 13.6642 3.92404 13.6595 3.9381 13.6548L5.03185 13.3736L5.13654 14.7798C5.15997 15.1236 5.45841 15.3845 5.80372 15.3595C5.89904 15.3532 5.99122 15.3251 6.07404 15.2767L7.33966 14.5595L7.87248 15.9282C7.91155 16.029 7.97618 16.1179 8.06001 16.1861C8.14385 16.2543 8.24399 16.2995 8.3506 16.3173C8.38497 16.3236 8.42091 16.3267 8.45529 16.3267C8.63654 16.3251 8.80685 16.2439 8.92404 16.1064L10.0303 14.8126L10.0772 14.9361L11.0725 16.0939C11.1897 16.2314 11.36 16.3126 11.5412 16.3142C11.5756 16.3142 11.6115 16.3111 11.6459 16.3048C11.7525 16.287 11.8527 16.2418 11.9365 16.1736C12.0203 16.1054 12.085 16.0165 12.124 15.9157L12.6568 14.547L13.9225 15.2642C14.0143 15.3174 14.1181 15.3464 14.2242 15.3484C14.3303 15.3504 14.4352 15.3254 14.529 15.2757C14.6227 15.226 14.7023 15.1532 14.7602 15.0643C14.8181 14.9754 14.8525 14.8732 14.86 14.7673L14.9647 13.3611L16.0584 13.6423C16.3897 13.7407 16.7381 13.5532 16.8365 13.2236C16.935 12.8923 16.7475 12.5439 16.4178 12.4454C16.4022 12.4408 16.3865 12.4376 16.3725 12.4329L16.3678 12.4423Z" fill="#422B0D"/>
<path d="M5.31299 8.96945L7.2208 8.59445L5.25987 7.78664L5.19424 7.7507C5.11816 7.71065 5.05072 7.65599 4.99578 7.58984C4.94085 7.5237 4.8995 7.44737 4.8741 7.36522C4.84871 7.28308 4.83976 7.19673 4.84777 7.11112C4.85578 7.02552 4.8806 6.94233 4.9208 6.86632C4.96143 6.78976 5.01612 6.72257 5.08174 6.66789C5.23434 6.55043 5.41945 6.48291 5.61183 6.47452C5.80421 6.46613 5.9945 6.51729 6.15674 6.62101L9.48018 8.65226C9.56143 8.68195 9.60205 8.77258 9.57237 8.85226C9.55205 8.90695 9.50362 8.94601 9.4458 8.95382L5.86612 10.2976C5.84268 10.307 5.81612 10.3148 5.79112 10.3226C5.32237 10.4538 4.80205 10.1835 4.73018 9.73195C4.67393 9.39289 4.93955 9.07414 5.31299 8.96945Z" fill="#422B0D"/>
<path d="M15.1016 8.93039L13.2 8.56164L15.1563 7.74757L15.2203 7.71164C15.3157 7.66159 15.3972 7.58878 15.4577 7.49965C15.5182 7.41053 15.5557 7.30786 15.567 7.20075C15.5783 7.09363 15.563 6.98539 15.5224 6.88562C15.4818 6.78585 15.4172 6.69765 15.3344 6.62882C15.1818 6.51137 14.9967 6.44385 14.8043 6.43546C14.6119 6.42707 14.4216 6.47823 14.2594 6.58195L10.9375 8.61945C10.9045 8.63123 10.8764 8.6538 10.8578 8.68351C10.8392 8.71322 10.8311 8.74833 10.8349 8.78318C10.8387 8.81803 10.8541 8.85059 10.8787 8.8756C10.9033 8.9006 10.9355 8.9166 10.9703 8.92101L14.55 10.2648L14.6266 10.2898C15.0953 10.421 15.6141 10.1507 15.6875 9.69914C15.7469 9.35382 15.4797 9.03507 15.1016 8.93039Z" fill="#422B0D"/>
<path d="M9.01016 10.0985C6.40547 11.7594 3.19141 12.1329 0.963285 12.5876C0.669535 12.6469 0.494535 13.0751 0.719535 13.7219C1.1461 14.9563 1.9586 14.936 1.73985 15.5094C1.09297 17.2079 2.41172 17.9391 3.55079 17.9594C5.09141 17.9891 4.94297 18.5032 5.58204 19.0048C6.19297 19.4829 6.93516 19.1516 6.93516 19.1516C9.79922 17.4157 10.9039 13.4579 10.9023 11.5423C10.9008 10.0719 9.80079 9.59382 9.01016 10.0985Z" fill="#F5F5F5"/>
<path d="M0.964348 12.5854C0.854973 12.6213 0.767473 12.7041 0.726848 12.8119C0.686223 12.9104 0.667474 13.0182 0.672161 13.1244C0.679973 13.3432 0.733098 13.5588 0.828411 13.7572C0.914348 13.9588 1.02685 14.1494 1.16122 14.3229C1.30341 14.4932 1.45966 14.6494 1.62997 14.7916C1.73466 14.876 1.82372 14.976 1.89404 15.0901C1.91279 15.1276 1.92841 15.1666 1.94091 15.2057C1.95185 15.2479 1.9581 15.2901 1.95966 15.3338C1.95966 15.3744 1.95654 15.4166 1.95029 15.4572L1.92216 15.5682L1.83779 15.8807C1.81904 15.9838 1.80654 16.0885 1.79872 16.1932C1.7831 16.3885 1.80966 16.5854 1.87529 16.7713C1.94611 16.9465 2.0575 17.1023 2.20029 17.226C2.34872 17.3557 2.5206 17.4557 2.70497 17.5229C2.89404 17.5979 3.09404 17.6448 3.29716 17.6619C3.34872 17.6698 3.40185 17.6729 3.45341 17.6729H3.60966C3.72997 17.6729 3.84872 17.6729 3.97216 17.6885C4.23154 17.7026 4.48622 17.7588 4.72841 17.8541C4.86122 17.9104 4.98466 17.9838 5.09716 18.0744C5.19716 18.1604 5.28935 18.2541 5.37372 18.3557C5.49716 18.5166 5.64091 18.6604 5.80341 18.7838C5.94091 18.8807 6.10341 18.9385 6.27216 18.951C6.36279 18.9573 6.45341 18.9526 6.54404 18.9385C6.58935 18.9385 6.63622 18.9213 6.67997 18.9104C6.72372 18.8994 6.77529 18.8807 6.79872 18.8729L6.76435 18.8901C7.36747 18.5151 7.91122 18.0494 8.37372 17.5104C8.4331 17.4416 8.49404 17.3776 8.55029 17.3073L8.70654 17.0916L8.86279 16.8776C8.91591 16.8041 8.96122 16.7213 9.01904 16.6526C9.11904 16.4963 9.22372 16.3557 9.31122 16.1963C9.39872 16.0369 9.50029 15.8838 9.57841 15.7276C9.91904 15.0807 10.2018 14.4057 10.4237 13.7088C10.655 13.0072 10.8128 12.2822 10.8925 11.5479C10.9315 12.2979 10.8675 13.0479 10.7018 13.7807C10.6643 13.965 10.6159 14.1463 10.5706 14.3291C10.5253 14.5119 10.4612 14.6901 10.4143 14.8713C10.3675 15.0526 10.2878 15.226 10.2253 15.4041C10.1628 15.5822 10.069 15.7526 10.0034 15.9276C9.93779 16.1026 9.83622 16.2682 9.75341 16.4401C9.6706 16.6119 9.5706 16.7729 9.47372 16.9385C9.42529 17.0198 9.37685 17.0948 9.32529 17.1823L9.15966 17.4182L9.00341 17.6526C8.9456 17.7291 8.88154 17.8088 8.82216 17.8776C8.34091 18.4854 7.75966 19.0057 7.10341 19.4198L7.08622 19.4291H7.06904C7.00185 19.4573 6.9331 19.4807 6.86279 19.501C6.79716 19.5182 6.73154 19.5338 6.66435 19.5448C6.52841 19.5682 6.39091 19.576 6.25341 19.5682C6.11122 19.5588 5.9706 19.5323 5.83622 19.487C5.70029 19.4385 5.57216 19.3713 5.45497 19.287C5.25029 19.1323 5.06591 18.9526 4.90966 18.7494C4.85029 18.6744 4.7831 18.6041 4.71279 18.5401C4.64716 18.4869 4.57372 18.4416 4.4956 18.4088C4.31122 18.3385 4.11591 18.2932 3.91904 18.2776C3.81591 18.2635 3.70654 18.2588 3.59716 18.2526L3.41747 18.2401C3.35497 18.2401 3.29247 18.2307 3.22997 18.2198C2.97841 18.1854 2.7331 18.1182 2.50029 18.0182C2.25767 17.92 2.0364 17.7756 1.84872 17.5932C1.65621 17.4045 1.51157 17.1725 1.42685 16.9166C1.35185 16.6635 1.33154 16.3979 1.36591 16.1354C1.3831 16.0151 1.4081 15.8979 1.44091 15.7807C1.47997 15.6666 1.52529 15.5479 1.56435 15.4401C1.5956 15.3838 1.60185 15.3151 1.57841 15.2541C1.53351 15.1686 1.47552 15.0905 1.40654 15.0229C1.2377 14.8556 1.08736 14.6707 0.958098 14.4713C0.830034 14.2697 0.73015 14.0515 0.661223 13.8229C0.583098 13.5979 0.551848 13.3604 0.569036 13.1244C0.579973 13.0041 0.619036 12.8885 0.681536 12.7854C0.740911 12.6791 0.845598 12.6072 0.964348 12.5854Z" fill="#BDBDBD"/>
<path d="M4.76465 14.1861C4.31933 14.2971 3.86621 14.3768 3.40996 14.4221C3.29937 14.4256 3.19191 14.3851 3.11108 14.3096C3.03026 14.234 2.98266 14.1295 2.97871 14.0189C2.97246 13.8111 3.11933 13.6299 3.32558 13.5939C5.31933 13.3908 6.29433 12.983 7.91621 11.9127C8.36621 11.6221 8.78496 11.2877 9.16621 10.9111C8.77669 11.7162 8.20023 12.4164 7.48496 12.9533C6.69902 13.5486 5.85527 13.908 4.76465 14.1861Z" fill="#B3B3B3"/>
<path d="M6.59628 16.2314C6.51193 16.2573 6.42137 16.2545 6.3388 16.2234C6.25622 16.1923 6.18631 16.1347 6.14003 16.0595C6.01659 15.8689 6.06659 15.6142 6.25097 15.483C7.15779 14.9066 7.93987 14.1543 8.55097 13.2705C8.85097 12.8252 9.29628 12.0205 9.29628 12.0205C9.24316 12.4768 9.15097 12.9268 9.01815 13.3658C8.47284 15.0799 6.98065 16.1095 6.59628 16.2314Z" fill="#B3B3B3"/>
<defs>
<radialGradient id="paint0_radial" cx="0" cy="0" r="1" gradientUnits="userSpaceOnUse" gradientTransform="translate(9.9375 9.82812) scale(8.9)">
<stop offset="0.5" stop-color="#FDE030"/>
<stop offset="0.92" stop-color="#F7C02B"/>
<stop offset="1" stop-color="#F4A223"/>
</radialGradient>
</defs>
</svg>
