<svg width="20" height="20" viewBox="0 0 20 20" fill="none" xmlns="http://www.w3.org/2000/svg">
<path d="M11.5242 13.9189H8.47266V16.9393C8.47266 17.6971 9.09453 18.3111 9.86016 18.3111H10.1367C10.9023 18.3111 11.5242 17.6971 11.5242 16.9393V13.9189Z" fill="#EDC391"/>
<path d="M14.2688 7.87695H5.72812C4.80781 7.87695 4.05469 8.68008 4.05469 9.65976C4.05469 10.641 4.80781 11.4426 5.72812 11.4426H14.2672C15.1875 11.4426 15.9406 10.6395 15.9406 9.65976C15.9422 8.68008 15.1891 7.87695 14.2688 7.87695Z" fill="#EDC391"/>
<path d="M9.99922 1.72656C7.28047 1.72656 4.76172 4.63437 4.76172 8.81875C4.76172 12.9812 7.35703 15.0391 9.99922 15.0391C12.6414 15.0391 15.2367 12.9812 15.2367 8.81875C15.2367 4.63437 12.718 1.72656 9.99922 1.72656Z" fill="#F9DDBD"/>
<path d="M7.43047 9.98242C7.8559 9.98242 8.20078 9.62565 8.20078 9.18555C8.20078 8.74545 7.8559 8.38867 7.43047 8.38867C7.00504 8.38867 6.66016 8.74545 6.66016 9.18555C6.66016 9.62565 7.00504 9.98242 7.43047 9.98242Z" fill="#312D2D"/>
<path d="M12.5672 9.98242C12.9926 9.98242 13.3375 9.62565 13.3375 9.18555C13.3375 8.74545 12.9926 8.38867 12.5672 8.38867C12.1418 8.38867 11.7969 8.74545 11.7969 9.18555C11.7969 9.62565 12.1418 9.98242 12.5672 9.98242Z" fill="#312D2D"/>
<path d="M10.6029 10.6307C10.5857 10.6244 10.5701 10.6197 10.5529 10.6182H9.44824C9.43106 10.6197 9.41387 10.6244 9.39824 10.6307C9.29824 10.6713 9.24356 10.7744 9.29043 10.8854C9.33731 10.9963 9.55762 11.3057 10.0014 11.3057C10.4451 11.3057 10.6654 10.9947 10.7123 10.8854C10.7576 10.7744 10.7029 10.6713 10.6029 10.6307Z" fill="#DBA689"/>
<path d="M11.3162 11.8942C10.8178 12.1896 9.18653 12.1896 8.68966 11.8942C8.40372 11.7239 8.11153 11.9849 8.23028 12.2442C8.34747 12.4989 9.2381 13.0911 10.0068 13.0911C10.7756 13.0911 11.6553 12.4989 11.7725 12.2442C11.8897 11.9849 11.6022 11.7239 11.3162 11.8942Z" fill="#444444"/>
<path d="M10.0049 0.786133H9.99868C2.89868 0.823633 4.35337 8.62051 4.35337 8.62051C4.35337 8.62051 4.67212 9.45644 4.81743 9.82519C4.83774 9.87832 4.91587 9.87207 4.92837 9.81738C5.07993 9.13926 5.62524 6.73457 5.90024 6.00332C5.97881 5.79497 6.12812 5.62088 6.32206 5.51148C6.51601 5.40209 6.74223 5.36435 6.96118 5.40488C7.65806 5.53144 8.76587 5.68769 9.98931 5.68769H10.0143C11.2362 5.68769 12.3456 5.53144 13.0409 5.40488C13.494 5.32207 13.9409 5.57363 14.1018 6.00332C14.3752 6.73144 14.9174 9.12207 15.0706 9.80957C15.0831 9.86582 15.1612 9.87051 15.1815 9.81738L15.6471 8.61894C15.6502 8.62051 17.1034 0.823633 10.0049 0.786133Z" fill="#312D2D"/>
<path d="M15.6495 8.62051C15.6495 8.62051 17.1042 0.823633 10.0042 0.786133H9.99798C9.88704 0.786133 9.77923 0.789258 9.67298 0.793945C9.46204 0.80332 9.25735 0.818945 9.06048 0.842383H9.05423C9.04016 0.843945 9.02766 0.84707 9.0136 0.848633C3.03704 1.6002 4.3511 8.62051 4.3511 8.62051L4.81673 9.82051C4.83704 9.87363 4.9136 9.86895 4.9261 9.8127C5.07923 9.12676 5.62298 6.73301 5.89798 6.00488C5.97672 5.79632 6.12629 5.62209 6.32053 5.51269C6.51478 5.40329 6.7413 5.36568 6.96048 5.40645C7.65735 5.53145 8.76516 5.6877 9.9886 5.6877H10.0136C11.2355 5.6877 12.3449 5.53145 13.0402 5.40488C13.4933 5.32207 13.9402 5.57363 14.1011 6.00332C14.3761 6.73457 14.9214 9.14395 15.0714 9.81895C15.0839 9.8752 15.1605 9.87988 15.1808 9.82676C15.3277 9.45957 15.6495 8.62051 15.6495 8.62051Z" fill="url(#paint0_radial)"/>
<path d="M6.25141 7.92519C6.7186 7.26425 7.77953 7.20175 8.38735 7.69394C8.48422 7.77207 8.61235 7.88144 8.64985 8.00332C8.71235 8.20175 8.52172 8.35644 8.33578 8.30957C8.21703 8.27988 8.1061 8.21582 7.98891 8.17988C7.77485 8.11269 7.62016 8.09394 7.42797 8.09394C7.1436 8.09238 6.96078 8.12832 6.69047 8.23769C6.57953 8.283 6.48891 8.35488 6.36235 8.30175C6.21703 8.24082 6.16391 8.05644 6.25141 7.92519Z" fill="#454140"/>
<path d="M13.4481 8.29977C13.4028 8.27946 13.359 8.25446 13.3137 8.23571C13.0356 8.12008 12.8778 8.0904 12.5762 8.09196C12.3106 8.09352 12.1528 8.12946 11.9449 8.19977C11.8184 8.24352 11.6574 8.3529 11.5168 8.31071C11.3106 8.24821 11.3168 8.02321 11.4293 7.87946C11.5637 7.71071 11.7481 7.58258 11.9434 7.49821C12.3965 7.30133 12.9496 7.32946 13.3762 7.58415C13.5153 7.66696 13.6668 7.78102 13.7512 7.92477C13.8731 8.12946 13.6887 8.39821 13.4481 8.29977Z" fill="#454140"/>
<path d="M18.2031 8.48145C18.0094 8.48145 17.8516 8.63145 17.8516 8.81582V10.2533C17.8516 10.4377 18.0094 10.5877 18.2031 10.5877C18.3969 10.5877 18.5547 10.4377 18.5547 10.2533V8.81582C18.5547 8.63145 18.3969 8.48145 18.2031 8.48145Z" fill="#E8AD00"/>
<path d="M17.5 8.48145C17.3063 8.48145 17.1484 8.63145 17.1484 8.81582V10.2533C17.1484 10.4377 17.3063 10.5877 17.5 10.5877C17.6938 10.5877 17.8516 10.4377 17.8516 10.2533V8.81582C17.8516 8.63145 17.6938 8.48145 17.5 8.48145Z" fill="#E8AD00"/>
<path d="M17.8516 8.48145C17.6578 8.48145 17.5 8.63145 17.5 8.81582V10.5643C17.5 10.7486 17.6578 10.8986 17.8516 10.8986C18.0453 10.8986 18.2031 10.7486 18.2031 10.5643V8.81582C18.2031 8.63145 18.0453 8.48145 17.8516 8.48145Z" fill="#FFCA28"/>
<path d="M17.8512 8.69981C18.0893 8.69981 18.2824 8.51582 18.2824 8.28887C18.2824 8.06191 18.0893 7.87793 17.8512 7.87793C17.613 7.87793 17.4199 8.06191 17.4199 8.28887C17.4199 8.51582 17.613 8.69981 17.8512 8.69981Z" fill="#FFCA28"/>
<path d="M17.8516 8.28516C17.7656 8.28516 17.6953 8.21484 17.6953 8.12891V2.19141C17.6953 2.10547 17.7656 2.03516 17.8516 2.03516C17.9375 2.03516 18.0078 2.10547 18.0078 2.19141V8.12891C18.0078 8.21641 17.9375 8.28516 17.8516 8.28516Z" fill="#504F4F"/>
<path d="M18.125 2.02832C13.3078 0.817383 10 0.77832 10 0.77832C10 0.77832 6.69219 0.817383 1.875 2.02832V2.14863C1.875 2.35645 2.01094 2.53926 2.20938 2.59707C2.79063 2.76895 4.26094 3.14863 5.05 3.30645C5.0375 3.31895 4.87812 3.59863 4.76406 3.85801C4.76406 3.85801 6.03594 4.75176 10.0016 5.15176C13.9672 4.75176 15.2766 3.96738 15.2766 3.96738C15.1391 3.68457 14.9969 3.42207 14.9969 3.42207C15.7 3.30645 17.2203 2.78613 17.8016 2.6002C17.9969 2.5377 18.1281 2.35801 18.1281 2.15332V2.02832H18.125Z" fill="url(#paint1_linear)"/>
<path d="M10 0.77832C10 0.77832 6.69219 0.817383 1.875 2.02832C1.875 2.02832 7.40781 3.53926 10 3.49395C12.5922 3.53926 18.125 2.02832 18.125 2.02832C13.3078 0.817383 10 0.77832 10 0.77832Z" fill="url(#paint2_linear)"/>
<path opacity="0.4" d="M18.125 2.02832C13.3078 0.817383 10 0.77832 10 0.77832C10 0.77832 6.69219 0.817383 1.875 2.02832V2.14863C1.875 2.35645 2.01094 2.53926 2.20938 2.59707C2.79063 2.76895 4.26094 3.17363 5.05 3.33301C5.05 3.33301 4.9 3.57676 4.76406 3.88457C4.76406 3.88457 6.03594 4.75176 10.0016 5.15332C13.9672 4.75332 15.2766 3.96895 15.2766 3.96895C15.1391 3.68613 14.9969 3.42363 14.9969 3.42363C15.7 3.30801 17.2203 2.7877 17.8016 2.60176C17.9969 2.53926 18.1281 2.35957 18.1281 2.15488V2.02832H18.125Z" fill="url(#paint3_linear)"/>
<path d="M17.8902 18.9045C17.8902 16.6217 14.4918 15.5389 11.5277 15.2951L10.184 17.0186C10.1402 17.0748 10.0715 17.1092 9.99961 17.1092C9.92773 17.1092 9.85898 17.0764 9.81523 17.0186L8.46836 15.292C6.81992 15.4186 2.10742 16.0342 2.10742 18.9045V19.3748H17.8887L17.8902 18.9045Z" fill="#212121"/>
<path d="M17.8902 18.9045C17.8902 16.6217 14.4918 15.5389 11.5277 15.2951L10.184 17.0186C10.1402 17.0748 10.0715 17.1092 9.99961 17.1092C9.92773 17.1092 9.85898 17.0764 9.81523 17.0186L8.46836 15.292C6.81992 15.4186 2.10742 16.0342 2.10742 18.9045V19.3748H17.8887L17.8902 18.9045Z" fill="url(#paint4_radial)"/>
<defs>
<radialGradient id="paint0_radial" cx="0" cy="0" r="1" gradientUnits="userSpaceOnUse" gradientTransform="translate(10.0013 7.29152) scale(5.91766 6.6763)">
<stop offset="0.794" stop-color="#454140" stop-opacity="0"/>
<stop offset="1" stop-color="#454140"/>
</radialGradient>
<linearGradient id="paint1_linear" x1="10" y1="0.101602" x2="10" y2="4.57676" gradientUnits="userSpaceOnUse">
<stop offset="0.003" stop-color="#424242"/>
<stop offset="0.472" stop-color="#353535"/>
<stop offset="1" stop-color="#212121"/>
</linearGradient>
<linearGradient id="paint2_linear" x1="10" y1="0.127695" x2="10" y2="4.97145" gradientUnits="userSpaceOnUse">
<stop offset="0.003" stop-color="#616161"/>
<stop offset="0.324" stop-color="#505050"/>
<stop offset="0.955" stop-color="#242424"/>
<stop offset="1" stop-color="#212121"/>
</linearGradient>
<linearGradient id="paint3_linear" x1="2.17078" y1="2.96629" x2="17.9252" y2="2.96629" gradientUnits="userSpaceOnUse">
<stop offset="0.001" stop-color="#BFBEBE"/>
<stop offset="0.3" stop-color="#212121" stop-opacity="0"/>
<stop offset="0.7" stop-color="#212121" stop-opacity="0"/>
<stop offset="1" stop-color="#BFBEBE"/>
</linearGradient>
<radialGradient id="paint4_radial" cx="0" cy="0" r="1" gradientUnits="userSpaceOnUse" gradientTransform="translate(9.99961 19.1566) scale(8.46359 4.44085)">
<stop offset="0.598" stop-color="#212121"/>
<stop offset="1" stop-color="#616161"/>
</radialGradient>
</defs>
</svg>
