<svg width="20" height="20" viewBox="0 0 20 20" fill="none" xmlns="http://www.w3.org/2000/svg">
<path d="M0.625 11.2324H19.375V19.3746H0.625V11.2324Z" fill="url(#paint0_linear)"/>
<g opacity="0.3">
<path opacity="0.3" d="M15.8781 14.4621C16.2422 14.5496 16.6578 14.6027 17.1016 14.6027C17.5141 14.6027 17.9031 14.5605 18.2484 14.484C18.3906 14.4527 18.5328 14.4387 18.6766 14.4355C18.8484 14.5309 19.1063 14.598 19.375 14.6527V11.5605H0.625V14.4152C0.764062 14.4215 0.903125 14.4262 1.04687 14.4324C1.49062 14.5402 2.0125 14.6043 2.57344 14.6043C3.12969 14.6043 3.64844 14.5418 4.09063 14.4355C4.30156 14.4324 4.49219 14.4293 4.65938 14.4293C7.93437 14.4293 3.02656 15.0871 0.626563 15.3855V16.7777C2.15781 16.7887 3.1375 16.9121 2.39531 17.2371C1.71875 17.534 1.71875 17.8543 2.84063 17.8121C3.10469 17.8027 3.42969 17.7918 3.81719 17.7465C5.64531 17.5324 5.91563 17.1824 4.35938 16.9684C2.80312 16.7543 2.6 16.4043 4.24688 16.0293C5.19531 15.8121 6.27187 15.5246 6.6375 15.5246C6.90781 15.5246 6.79375 15.6809 5.96094 16.1355C5.13125 16.5887 5.3125 16.7559 5.93281 16.7559C6.77969 16.7559 8.44219 16.4465 9.45781 16.1355C11.2172 15.598 11.1047 15.384 9.1875 15.3309C7.48125 15.2824 9.63125 14.7684 11.3656 14.7684C11.5812 14.7684 11.7906 14.7762 11.9859 14.7934C13.7453 14.9543 14.7156 15.0621 12.0078 15.7324C9.3 16.4027 9.50313 16.9402 11.0156 17.1277C12.5281 17.3152 12.4828 17.5309 10.7 17.798C9.95 17.9105 9.34531 17.9762 8.97031 17.9762C8.45312 17.9762 8.375 17.8512 8.96406 17.5559C9.5125 17.2809 9.53438 17.1074 9.05781 17.1074C8.65156 17.1074 7.88594 17.234 6.775 17.5293C5.16563 17.959 5.47188 18.0668 6.22813 18.0668C6.60625 18.0668 7.09844 18.0402 7.51875 18.0137C7.59687 18.009 7.66094 18.0059 7.7125 18.0059C8.48594 18.0059 6.32031 18.548 6.57344 18.7496C6.675 18.8309 6.92344 18.8574 7.24531 18.8574C7.77656 18.8574 8.50781 18.7824 9.1125 18.7496C9.325 18.7387 9.49844 18.7324 9.63281 18.7324C10.1094 18.7324 10.0719 18.8074 9.4375 18.9543C8.92031 19.0746 9.00625 19.1715 9.52656 19.1715C9.82344 19.1715 10.2641 19.1402 10.8125 19.0621C12.325 18.848 12.2344 18.6855 10.7219 18.5793C9.20938 18.4715 12.9563 18.123 14.5359 17.8543C16.1156 17.5855 16.4312 17.4777 13.0016 17.1559C10.1266 16.8855 12.3734 16.5215 14.85 16.5215C15.3266 16.5215 15.8141 16.5355 16.2734 16.5652C19.1172 16.7527 18.1906 17.1293 17.5375 17.3434C16.9609 17.5324 16.5063 17.9309 17.5188 17.9309C17.6547 17.9309 17.8188 17.923 18.0109 17.9074C18.3172 17.8824 18.5625 17.8699 18.7531 17.8699C19.4078 17.8699 19.3984 18.0121 18.9438 18.2371C18.4578 18.4777 18.5156 18.6855 19.0656 18.6902C19.1703 18.6918 19.275 18.6902 19.3781 18.6887V15.3496C19.3516 15.3559 19.3281 15.3621 19.3 15.3684C19.3 15.3684 19.0297 15.3965 18.5531 15.3965C17.8969 15.3965 16.85 15.3418 15.5766 15.0855C15.0266 14.9762 15.3781 14.7293 15.8781 14.4621Z" fill="#D7CCC8"/>
</g>
<path d="M4.26875 14.5361C4.90312 14.0971 5.57656 13.9861 6.2375 14.1518C6.66719 14.258 7.12187 14.3158 7.59375 14.3158C8.34687 14.3158 9.05937 14.1689 9.69375 13.9096C10.4656 13.5924 11.2609 13.7268 12.0141 14.2189C13.175 14.9783 14.8125 15.4518 16.6266 15.4518C17.6125 15.4518 18.5438 15.3096 19.3766 15.0596V11.2393C19.3766 10.5486 18.8172 9.98926 18.1266 9.98926H1.875C1.18437 9.98926 0.625 10.5486 0.625 11.2393V15.4221C0.820312 15.4424 1.01719 15.4533 1.21875 15.4533C2.37813 15.4533 3.44062 15.108 4.26875 14.5361Z" fill="url(#paint1_linear)"/>
<path opacity="0.8" d="M16.625 14.8278C14.8109 14.8278 13.1734 14.3544 12.0125 13.595C11.2609 13.1028 10.4656 12.9685 9.69219 13.2857C9.05937 13.545 8.34688 13.6919 7.59219 13.6919C7.12031 13.6919 6.66563 13.6341 6.23594 13.5278C5.57344 13.3638 4.9 13.4732 4.26719 13.9122C3.44062 14.4825 2.37813 14.8278 1.21875 14.8278C1.01719 14.8278 0.820312 14.8169 0.625 14.7966V15.9341C0.820312 15.9544 1.01719 15.9653 1.21875 15.9653C2.37813 15.9653 3.44062 15.62 4.26875 15.0482C4.90312 14.6091 5.57656 14.4982 6.2375 14.6638C6.66719 14.77 7.12187 14.8278 7.59375 14.8278C8.34687 14.8278 9.05937 14.681 9.69375 14.4216C10.4656 14.1044 11.2609 14.2388 12.0141 14.731C13.175 15.4903 14.8125 15.9638 16.6266 15.9638C17.6125 15.9638 18.5438 15.8216 19.3766 15.5716V14.4341C18.5422 14.6857 17.6109 14.8278 16.625 14.8278Z" fill="white"/>
<path opacity="0.2" d="M18.125 10.4561C18.5469 10.4561 18.8969 10.7998 18.9047 11.2232L18.9062 11.2748V18.8873H1.09375V11.2826L1.09531 11.2232C1.10313 10.8014 1.45312 10.4561 1.875 10.4561H18.125ZM18.125 9.9873H1.875C1.54765 9.98725 1.23337 10.1158 0.999866 10.3452C0.766358 10.5746 0.632298 10.8866 0.626563 11.2139H0.625V19.3561H19.375V11.2139H19.3734C19.3677 10.8866 19.2336 10.5746 19.0001 10.3452C18.7666 10.1158 18.4524 9.98725 18.125 9.9873Z" fill="#424242"/>
<path d="M2.6125 16.6496L3.72813 16.3184C3.79531 16.298 3.84063 16.2434 3.84063 16.1809L3.85156 15.1355C3.85313 14.9949 4.05469 14.9371 4.15 15.0496L4.85 15.8902C4.89219 15.9402 4.96563 15.9621 5.03281 15.9434L6.15469 15.6293C6.30625 15.5871 6.43125 15.7402 6.33906 15.8543L5.65625 16.7059C5.63657 16.7299 5.62582 16.76 5.62582 16.791C5.62582 16.8221 5.63657 16.8522 5.65625 16.8762L6.33906 17.7277C6.43125 17.8418 6.30625 17.9949 6.15469 17.9527L5.03281 17.6387C4.96563 17.6199 4.89219 17.6402 4.85 17.6918L4.15 18.5324C4.05625 18.6449 3.85313 18.5871 3.85156 18.4465L3.84063 17.4012C3.84063 17.3387 3.79531 17.284 3.72813 17.2637L2.6125 16.9324C2.4625 16.884 2.4625 16.6949 2.6125 16.6496Z" fill="url(#paint2_linear)"/>
<path opacity="0.2" d="M4.3125 15.9762L4.49063 16.1887C4.61094 16.334 4.79063 16.4168 4.98281 16.4168C5.04219 16.4168 5.10156 16.409 5.15938 16.3934L5.34688 16.3402L5.29063 16.4105C5.20417 16.5176 5.15702 16.6511 5.15702 16.7887C5.15702 16.9263 5.20417 17.0597 5.29063 17.1668L5.34688 17.2371L5.15938 17.184C5.10156 17.1684 5.04375 17.1605 4.98281 17.1605C4.79063 17.1605 4.61094 17.2434 4.49063 17.3887L4.3125 17.6012L4.31094 17.3918C4.30781 17.123 4.12813 16.8887 3.86406 16.809L3.79063 16.7871L3.86406 16.7652C4.12969 16.6871 4.30938 16.4527 4.31094 16.1824L4.3125 15.9762ZM4.01875 14.9902C3.93438 14.9902 3.85313 15.0465 3.85156 15.1355L3.84063 16.1809C3.84063 16.2434 3.79531 16.298 3.72813 16.3184L2.6125 16.6496C2.4625 16.6949 2.4625 16.8824 2.6125 16.9277L3.72813 17.259C3.79531 17.2793 3.84063 17.334 3.84063 17.3965L3.85156 18.4418C3.85313 18.5309 3.93438 18.5871 4.01875 18.5871C4.06719 18.5871 4.11563 18.5684 4.15 18.5277L4.85 17.6871C4.88125 17.6496 4.93125 17.6277 4.98281 17.6277C5 17.6277 5.01562 17.6293 5.03281 17.634L6.15469 17.948C6.17188 17.9527 6.18906 17.9559 6.20625 17.9559C6.33125 17.9559 6.42031 17.8246 6.33906 17.723L5.65469 16.8746C5.63501 16.8506 5.62426 16.8205 5.62426 16.7895C5.62426 16.7584 5.63501 16.7283 5.65469 16.7043L6.3375 15.8527C6.41875 15.7512 6.33125 15.6199 6.20469 15.6199C6.1875 15.6199 6.17031 15.6215 6.15313 15.6277L5.03125 15.9418C5.01562 15.9465 4.99844 15.948 4.98125 15.948C4.92969 15.948 4.87969 15.9262 4.84844 15.8887L4.14844 15.048C4.11563 15.0074 4.06563 14.9902 4.01875 14.9902Z" fill="#424242"/>
<path d="M9.50011 16.8589C9.45141 16.8504 9.40486 16.8324 9.36314 16.8059C9.32143 16.7793 9.28538 16.7448 9.25706 16.7043C9.22874 16.6638 9.20871 16.6181 9.19814 16.5698C9.18756 16.5215 9.18664 16.4716 9.19542 16.4229L12.0204 0.935447C12.0564 0.730759 12.2517 0.594822 12.4564 0.630759C12.661 0.666697 12.7985 0.862009 12.761 1.0667L9.93605 16.5558C9.92738 16.6043 9.90922 16.6507 9.88261 16.6922C9.856 16.7337 9.82146 16.7696 9.78097 16.7978C9.74047 16.8259 9.69482 16.8458 9.64663 16.8563C9.59843 16.8668 9.54864 16.8677 9.50011 16.8589Z" fill="url(#paint3_linear)"/>
<path d="M18.7497 8.2576L18.7466 8.16385H18.745C18.8169 5.03572 16.1513 2.12635 12.3966 1.38728C12.3903 1.38572 12.3841 1.38416 12.3794 1.38416C12.3747 1.3826 12.37 1.3826 12.3653 1.38103C12.3903 1.38572 12.4153 1.38728 12.4403 1.39197C12.4185 1.38885 12.3966 1.38572 12.3747 1.38103C12.3809 1.3826 12.3872 1.3826 12.3934 1.3826C12.3794 1.37947 12.3653 1.37947 12.3528 1.37635L12.3356 1.37166C12.3294 1.3701 12.3231 1.3701 12.3169 1.3701C12.3028 1.36697 12.2888 1.36385 12.2731 1.36072C12.281 1.36228 12.2888 1.36541 12.2966 1.36697C12.2684 1.36228 12.2388 1.35447 12.2106 1.34978C12.2403 1.35447 12.2684 1.36228 12.2966 1.36697H12.2919C8.49501 0.76072 4.9747 2.58572 3.96689 5.56072H3.96532L3.92939 5.64822C3.85126 5.84041 4.26532 6.18885 4.85595 6.42791C5.3622 6.6326 5.83251 6.68885 6.00595 6.58103C5.97626 6.84666 6.56376 7.23103 7.35439 7.45603C8.15126 7.6826 8.85751 7.66228 8.96689 7.41541C9.10751 7.79197 9.98251 8.21072 11.0903 8.40603C12.1966 8.60135 13.1638 8.50603 13.4247 8.20135C13.4434 8.4701 14.0997 8.72947 14.9263 8.78885C15.7356 8.84666 16.4106 8.69197 16.4903 8.43885C16.631 8.59197 17.081 8.69353 17.6122 8.67478C18.2481 8.65135 18.7575 8.46541 18.7497 8.2576Z" fill="url(#paint4_radial)"/>
<path opacity="0.2" d="M10.8403 1.7207C11.2966 1.7207 11.7606 1.7582 12.2169 1.83008L12.2325 1.8332L12.2419 1.83477H12.2528C12.2544 1.83477 12.2575 1.83633 12.2591 1.83633L12.2653 1.83789L12.2544 1.83477L12.2731 1.83945L12.2872 1.84258L12.306 1.84727C14.0169 2.18477 15.5653 3.01914 16.6622 4.19883C17.7184 5.33477 18.2903 6.71289 18.2763 8.08945C18.1528 8.13633 17.92 8.19414 17.595 8.20508C17.5575 8.20664 17.5216 8.20664 17.4841 8.20664C17.1153 8.20664 16.8856 8.14102 16.82 8.10508L16.2872 7.52539L16.07 8.21445C15.9653 8.26289 15.6934 8.3332 15.2622 8.3332C15.1638 8.3332 15.0622 8.33008 14.9606 8.32227C14.4059 8.28164 14.0247 8.14883 13.8856 8.06289L13.8122 7.03008L13.0731 7.89258C13.0231 7.9332 12.7622 8.03945 12.1872 8.03945C11.8747 8.03945 11.5231 8.00664 11.1731 7.9457C10.1138 7.75977 9.49345 7.39414 9.40595 7.24727L9.00595 6.17383L8.58407 7.12695C8.54189 7.13633 8.47157 7.1457 8.36376 7.1457C8.11376 7.1457 7.80282 7.0957 7.48407 7.00664C6.94814 6.85508 6.5997 6.6457 6.48407 6.5332L6.58095 5.6707L5.78876 6.16602C5.77939 6.16758 5.76376 6.16758 5.74189 6.16758C5.60439 6.16758 5.34657 6.12227 5.03095 5.99414C4.72939 5.87227 4.53095 5.73945 4.43095 5.65195C5.2622 3.29883 7.82782 1.7207 10.8403 1.7207ZM10.8403 1.25195C7.62782 1.25195 4.84345 2.9707 3.96689 5.56133H3.96532L3.92939 5.64883C3.85126 5.84102 4.26532 6.18945 4.85595 6.42852C5.19345 6.56445 5.51376 6.63477 5.74189 6.63477C5.85595 6.63477 5.94814 6.61758 6.00595 6.58008C5.97626 6.8457 6.56376 7.23008 7.35439 7.45508C7.72626 7.56133 8.07939 7.61289 8.36064 7.61289C8.68095 7.61289 8.90751 7.5457 8.96532 7.41445C9.10595 7.79102 9.98095 8.20977 11.0888 8.40508C11.4794 8.47383 11.8528 8.50664 12.1841 8.50664C12.7903 8.50664 13.2544 8.39727 13.4231 8.20039C13.4419 8.46914 14.0981 8.72852 14.9247 8.78789C15.0403 8.7957 15.1528 8.80039 15.2606 8.80039C15.9138 8.80039 16.42 8.65508 16.4888 8.43789C16.6184 8.57852 17.0091 8.67539 17.4825 8.67539C17.5247 8.67539 17.5669 8.67539 17.6091 8.67383C18.2466 8.65039 18.7559 8.46445 18.7466 8.2582L18.7434 8.16445H18.7419C18.8138 5.03633 16.1481 2.12695 12.3934 1.38789C12.3872 1.38633 12.3809 1.38477 12.3763 1.38477C12.3716 1.3832 12.3669 1.3832 12.3622 1.38164C12.3872 1.38633 12.4122 1.38789 12.4372 1.39258C12.4153 1.38945 12.3934 1.38633 12.3716 1.38164C12.3778 1.3832 12.3841 1.3832 12.3903 1.3832C12.3763 1.38008 12.3622 1.38008 12.3497 1.37695L12.3325 1.37227C12.3263 1.3707 12.32 1.3707 12.3138 1.3707C12.2997 1.36758 12.2856 1.36445 12.27 1.36133C12.2778 1.36289 12.2856 1.36602 12.2934 1.36758C12.2653 1.36289 12.2356 1.35508 12.2075 1.35039C12.2372 1.35508 12.2653 1.36289 12.2934 1.36758H12.2888C11.8013 1.29102 11.3153 1.25195 10.8403 1.25195Z" fill="#424242"/>
<path d="M16.5058 8.27483C16.9511 4.96233 15.123 2.12484 12.3448 1.56859C12.3398 1.5668 12.3345 1.56574 12.3292 1.56546C12.3386 1.56702 12.3495 1.56702 12.3589 1.56859C12.3448 1.56546 12.3308 1.56546 12.3183 1.56234L12.3011 1.55765C12.2948 1.55609 12.2886 1.55609 12.2823 1.55609C12.2683 1.55296 12.2542 1.54984 12.2386 1.54671C12.2495 1.54827 12.2589 1.5514 12.2683 1.55452C12.2636 1.55452 12.2605 1.55452 12.2558 1.55296C9.45421 1.12327 6.76202 3.16546 6.0464 6.43265L6.01046 6.55296C5.9339 6.81858 6.53702 7.22327 7.35577 7.45609C8.15265 7.68265 8.8589 7.66233 8.96827 7.41546C9.1089 7.79202 9.9839 8.21077 11.0917 8.40608C12.198 8.6014 13.1651 8.50608 13.4261 8.2014C13.4448 8.47015 14.1011 8.72952 14.9276 8.7889C15.7776 8.84983 16.4823 8.6764 16.5011 8.39983L16.5058 8.27483Z" fill="url(#paint5_linear)"/>
<path opacity="0.2" d="M12.2339 1.92796L12.2448 1.92952L12.2511 1.93109H12.2526L12.2448 1.92952L12.2558 1.93265L12.2605 1.93421L12.273 1.93734C14.8386 2.4514 16.5526 5.10921 16.1339 8.22483L16.1308 8.25608L16.1292 8.29202C15.987 8.36702 15.5667 8.45921 14.9542 8.41546C14.8089 8.40452 14.6667 8.38733 14.5323 8.3639C14.1136 8.29046 13.8761 8.17483 13.7964 8.1139L13.0823 7.68421L13.1401 7.95765C13.0417 8.06702 12.3308 8.24358 11.1573 8.03733C9.9839 7.83108 9.37608 7.42171 9.3214 7.28577L9.53858 6.9889L8.64952 7.20765C8.55421 7.2389 8.29171 7.26546 7.87296 7.19202C7.73702 7.16858 7.59796 7.13577 7.4589 7.09671C6.86671 6.92952 6.50577 6.69827 6.3964 6.57952L6.40577 6.54358L6.41046 6.52952L6.41358 6.5139C7.08702 3.44046 9.61046 1.52796 12.1995 1.92484L12.2042 1.9264H12.2089L12.2261 1.92796H12.2339ZM12.3589 1.56859C12.3448 1.56546 12.3308 1.56546 12.3183 1.56234L12.3011 1.55765C12.2948 1.55609 12.2886 1.55609 12.2823 1.55609C12.2683 1.55296 12.2542 1.54984 12.2386 1.54671C12.2495 1.54827 12.2589 1.5514 12.2683 1.55452C12.2636 1.55452 12.2605 1.55452 12.2558 1.55296C9.45421 1.12327 6.76202 3.16546 6.0464 6.43265L6.01046 6.55296C5.9339 6.81858 6.53702 7.22327 7.35577 7.45609C7.51046 7.49984 7.66358 7.53421 7.80733 7.56077C8.40577 7.66546 8.88077 7.6139 8.96827 7.41546C9.1089 7.79202 9.9839 8.21077 11.0917 8.40608C12.198 8.6014 13.1651 8.50608 13.4261 8.2014C13.4417 8.41702 13.8698 8.62796 14.4667 8.73265C14.612 8.75765 14.7651 8.77796 14.9261 8.7889C15.7761 8.84983 16.4808 8.6764 16.4995 8.39983L16.5058 8.27483C16.9511 4.96233 15.123 2.12484 12.3448 1.56859C12.3398 1.5668 12.3345 1.56574 12.3292 1.56546C12.3401 1.56546 12.3495 1.56546 12.3589 1.56859Z" fill="#424242"/>
<path d="M13.5225 7.88463C14.0866 4.48619 13.5647 1.58932 12.3335 1.37213C11.1007 1.1565 9.61786 3.70025 8.98504 7.08619H8.98192L8.94911 7.27057C8.87723 7.67682 9.83505 8.18619 11.0897 8.40807C12.3444 8.62838 13.4179 8.47838 13.4897 8.07057L13.4975 8.02213C13.4991 8.02057 13.5225 7.88463 13.5225 7.88463Z" fill="url(#paint6_radial)"/>
<path opacity="0.2" d="M12.185 1.82812C12.2085 1.82812 12.2304 1.82969 12.2522 1.83437C12.9819 1.9625 13.6429 4.29844 13.0616 7.80781C13.0616 7.80781 13.0507 7.87344 13.0444 7.9125C12.9507 7.95937 12.6897 8.04062 12.1882 8.04062C11.8757 8.04062 11.5241 8.00781 11.1725 7.94531C10.1804 7.77031 9.57254 7.44063 9.42723 7.27813L9.44754 7.17344C9.73192 5.65156 10.2038 4.25313 10.7741 3.23438C11.3507 2.19688 11.8819 1.82812 12.185 1.82812ZM12.185 1.35938C10.985 1.35938 9.59286 3.83437 8.98504 7.08594H8.98192L8.94911 7.27031C8.87723 7.67656 9.83505 8.18594 11.0897 8.40781C11.4819 8.47656 11.8554 8.50937 12.1866 8.50937C12.9163 8.50937 13.4413 8.35 13.4897 8.07031L13.4975 8.02187L13.521 7.88594C14.085 4.4875 13.5632 1.59063 12.3319 1.37344C12.2835 1.36406 12.2335 1.35938 12.185 1.35938Z" fill="#424242"/>
<defs>
<linearGradient id="paint0_linear" x1="10" y1="14.3643" x2="10" y2="18.3371" gradientUnits="userSpaceOnUse">
<stop stop-color="#FFE082"/>
<stop offset="0.314" stop-color="#FFD965"/>
<stop offset="1" stop-color="#FFCA28"/>
</linearGradient>
<linearGradient id="paint1_linear" x1="10" y1="9.98801" x2="10" y2="14.5607" gradientUnits="userSpaceOnUse">
<stop stop-color="#00ACC1"/>
<stop offset="0.075" stop-color="#13B1C4"/>
<stop offset="0.433" stop-color="#68CAD0"/>
<stop offset="0.685" stop-color="#9DD9D8"/>
<stop offset="0.808" stop-color="#B2DFDB"/>
<stop offset="1" stop-color="#B2DFDB"/>
</linearGradient>
<linearGradient id="paint2_linear" x1="4.43469" y1="14.9674" x2="4.43469" y2="17.6684" gradientUnits="userSpaceOnUse">
<stop stop-color="#FF9E80"/>
<stop offset="1" stop-color="#FF3D00"/>
</linearGradient>
<linearGradient id="paint3_linear" x1="10.9779" y1="14.7811" x2="10.9779" y2="7.4917" gradientUnits="userSpaceOnUse">
<stop stop-color="#EF5350"/>
<stop offset="1" stop-color="#E53935"/>
</linearGradient>
<radialGradient id="paint4_radial" cx="0" cy="0" r="1" gradientUnits="userSpaceOnUse" gradientTransform="translate(12.3174 1.12961) scale(7.49594 7.49894)">
<stop stop-color="#EF5350"/>
<stop offset="1" stop-color="#D32F2F"/>
</radialGradient>
<linearGradient id="paint5_linear" x1="11.2873" y1="4.54265" x2="11.2873" y2="10.1184" gradientUnits="userSpaceOnUse">
<stop stop-color="#F5F5F5"/>
<stop offset="1" stop-color="#BDBDBD"/>
</linearGradient>
<radialGradient id="paint6_radial" cx="0" cy="0" r="1" gradientUnits="userSpaceOnUse" gradientTransform="translate(12.1346 1.28639) scale(7.05453 7.05735)">
<stop stop-color="#EF5350"/>
<stop offset="1" stop-color="#D32F2F"/>
</radialGradient>
</defs>
</svg>
