<svg width="80" height="80" viewBox="0 0 80 80" fill="none" xmlns="http://www.w3.org/2000/svg">
<circle cx="40" cy="40" r="40" fill="#FAFAFA"/>
<path d="M57.0625 57.5H55.5V21.875C55.5 20.8395 54.6605 20 53.625 20H27.375C26.3395 20 25.5 20.8395 25.5 21.875V57.5H23.9375C23.4198 57.5 23 57.9198 23 58.4375V60H58V58.4375C58 57.9198 57.5802 57.5 57.0625 57.5ZM33 25.9375C33 25.4198 33.4198 25 33.9375 25H37.0625C37.5802 25 38 25.4198 38 25.9375V29.0625C38 29.5802 37.5802 30 37.0625 30H33.9375C33.4198 30 33 29.5802 33 29.0625V25.9375ZM33 33.4375C33 32.9198 33.4198 32.5 33.9375 32.5H37.0625C37.5802 32.5 38 32.9198 38 33.4375V36.5625C38 37.0802 37.5802 37.5 37.0625 37.5H33.9375C33.4198 37.5 33 37.0802 33 36.5625V33.4375ZM37.0625 45H33.9375C33.4198 45 33 44.5802 33 44.0625V40.9375C33 40.4198 33.4198 40 33.9375 40H37.0625C37.5802 40 38 40.4198 38 40.9375V44.0625C38 44.5802 37.5802 45 37.0625 45ZM43 57.5H38V50.9375C38 50.4198 38.4198 50 38.9375 50H42.0625C42.5802 50 43 50.4198 43 50.9375V57.5ZM48 44.0625C48 44.5802 47.5802 45 47.0625 45H43.9375C43.4198 45 43 44.5802 43 44.0625V40.9375C43 40.4198 43.4198 40 43.9375 40H47.0625C47.5802 40 48 40.4198 48 40.9375V44.0625ZM48 36.5625C48 37.0802 47.5802 37.5 47.0625 37.5H43.9375C43.4198 37.5 43 37.0802 43 36.5625V33.4375C43 32.9198 43.4198 32.5 43.9375 32.5H47.0625C47.5802 32.5 48 32.9198 48 33.4375V36.5625ZM48 29.0625C48 29.5802 47.5802 30 47.0625 30H43.9375C43.4198 30 43 29.5802 43 29.0625V25.9375C43 25.4198 43.4198 25 43.9375 25H47.0625C47.5802 25 48 25.4198 48 25.9375V29.0625Z" fill="#65438F"/>
</svg>
