<svg width="80" height="80" viewBox="0 0 80 80" fill="none" xmlns="http://www.w3.org/2000/svg">
  <circle cx="40" cy="40" r="40" fill="#FFF0E9"/>
  <path d="M51.25 55.875H28.75C27.7554 55.875 26.8016 55.5392 26.0983 54.9414C25.3951 54.3436 25 53.5329 25 52.6875V27.1875C25 26.3421 25.3951 25.5314 26.0983 24.9336C26.8016 24.3358 27.7554 24 28.75 24H30.625V35.1562L35.3125 32.7656L40 35.1562V24H51.25C52.2446 24 53.1984 24.3358 53.9017 24.9336C54.6049 25.5314 55 26.3421 55 27.1875V52.6875C55 53.5329 54.6049 54.3436 53.9017 54.9414C53.1984 55.5392 52.2446 55.875 51.25 55.875ZM43.75 52.6875H47.5V49.5H51.25V46.3125H47.5V43.125H43.75V46.3125H40V49.5H43.75V52.6875Z" fill="#FA7D57"/>
</svg>
