<svg width="80" height="80" viewBox="0 0 80 80" fill="none" xmlns="http://www.w3.org/2000/svg">
<circle cx="40" cy="40" r="40" fill="#FAFAFA"/>
<path d="M37.7625 21.914C38.2698 21.554 38.8764 21.3606 39.4984 21.3606C40.1204 21.3606 40.7271 21.554 41.2343 21.914L54.4013 31.256C56.037 32.417 55.218 34.9955 53.2133 35H25.7903C23.7788 35 22.9553 32.4192 24.5978 31.256L37.7625 21.914ZM39.4995 30.2187C39.9969 30.2187 40.4739 30.0212 40.8256 29.6694C41.1773 29.3177 41.3749 28.8407 41.3749 28.3434C41.3749 27.846 41.1773 27.369 40.8256 27.0173C40.4739 26.6656 39.9969 26.468 39.4995 26.468C39.0022 26.468 38.5252 26.6656 38.1735 27.0173C37.8218 27.369 37.6242 27.846 37.6242 28.3434C37.6242 28.8407 37.8218 29.3177 38.1735 29.6694C38.5252 30.0212 39.0022 30.2187 39.4995 30.2187Z" fill="#65438F"/>
<path d="M27.125 37.25V46.25H31.625V37.25H27.125Z" fill="#65438F"/>
<path d="M23.75 53.3757C23.75 50.6825 25.9325 48.5 28.6235 48.5H50.3743C53.0675 48.5 55.25 50.6825 55.25 53.3757V54.125C55.25 54.4234 55.1315 54.7095 54.9205 54.9205C54.7095 55.1315 54.4234 55.25 54.125 55.25H24.875C24.5766 55.25 24.2905 55.1315 24.0795 54.9205C23.8685 54.7095 23.75 54.4234 23.75 54.125V53.3757Z" fill="#65438F"/>
<path d="M51.875 37.25V46.25H47.375V37.25H51.875Z" fill="#65438F"/>
<path d="M45.125 37.25V46.25H40.625V37.25H45.125Z" fill="#65438F"/>
<path d="M38.375 37.25V46.25H33.875V37.25H38.375Z" fill="#65438F"/>
</svg>
