<svg width="80" height="80" viewBox="0 0 80 80" fill="none" xmlns="http://www.w3.org/2000/svg">
  <circle cx="40" cy="40" r="40" fill="#F6EFFF"/>
  <path d="M45.4545 43.75C40.6 43.75 30.9091 46.2438 30.9091 51.25V55H60V51.25C60 46.2438 50.3091 43.75 45.4545 43.75ZM29.0909 36.25V30.625H25.4545V36.25H20V40H25.4545V45.625H29.0909V40H34.5455V36.25H29.0909ZM45.4545 40C47.3834 40 49.2332 39.2098 50.5971 37.8033C51.961 36.3968 52.7273 34.4891 52.7273 32.5C52.7273 30.5109 51.961 28.6032 50.5971 27.1967C49.2332 25.7902 47.3834 25 45.4545 25C43.5257 25 41.6759 25.7902 40.312 27.1967C38.9481 28.6032 38.1818 30.5109 38.1818 32.5C38.1818 34.4891 38.9481 36.3968 40.312 37.8033C41.6759 39.2098 43.5257 40 45.4545 40Z" fill="#65438F"/>
</svg>
