<svg width="80" height="80" viewBox="0 0 80 80" fill="none" xmlns="http://www.w3.org/2000/svg">
<circle cx="40" cy="40" r="40" fill="#FAFAFA"/>
<path d="M42.2004 40C42.4292 40 42.6514 40.0176 42.8714 40.0506C41.302 41.1691 40.0229 42.6466 39.1408 44.36C38.2586 46.0734 37.7991 47.9729 37.8004 49.9C37.8004 51.7128 38.1986 53.4354 38.9136 54.9776C37.4607 55.2679 35.982 55.4094 34.5004 55.4C26.994 55.4 22.4004 52.2188 22.4004 47.7V44.4C22.4004 43.2331 22.864 42.1139 23.6891 41.2888C24.5143 40.4636 25.6334 40 26.8004 40H42.2004ZM55.4004 32.3C55.4004 33.7587 54.8209 35.1577 53.7895 36.1891C52.758 37.2206 51.3591 37.8 49.9004 37.8C48.4417 37.8 47.0428 37.2206 46.0113 36.1891C44.9799 35.1577 44.4004 33.7587 44.4004 32.3C44.4004 30.8413 44.9799 29.4424 46.0113 28.4109C47.0428 27.3795 48.4417 26.8 49.9004 26.8C51.3591 26.8 52.758 27.3795 53.7895 28.4109C54.8209 29.4424 55.4004 30.8413 55.4004 32.3ZM34.5004 22.4C35.5116 22.4 36.5128 22.5992 37.4471 22.9862C38.3813 23.3731 39.2301 23.9403 39.9451 24.6553C40.6601 25.3703 41.2273 26.2192 41.6143 27.1534C42.0012 28.0876 42.2004 29.0888 42.2004 30.1C42.2004 31.1112 42.0012 32.1125 41.6143 33.0467C41.2273 33.9809 40.6601 34.8297 39.9451 35.5447C39.2301 36.2598 38.3813 36.8269 37.4471 37.2139C36.5128 37.6009 35.5116 37.8 34.5004 37.8C32.4582 37.8 30.4997 36.9888 29.0557 35.5447C27.6116 34.1007 26.8004 32.1422 26.8004 30.1C26.8004 28.0579 27.6116 26.0993 29.0557 24.6553C30.4997 23.2113 32.4582 22.4 34.5004 22.4ZM44.5456 43.1724C44.704 43.737 44.748 44.3276 44.675 44.9094C44.6019 45.4912 44.4133 46.0526 44.1202 46.5605C43.8271 47.0684 43.4354 47.5126 42.9682 47.8669C42.501 48.2213 41.9677 48.4787 41.3996 48.624L40.3832 48.8836C40.3098 49.6273 40.3172 50.3767 40.4052 51.1188L41.1752 51.3014C41.7585 51.4394 42.3074 51.695 42.7884 52.0527C43.2693 52.4104 43.6721 52.8625 43.9721 53.3815C44.272 53.9004 44.4628 54.4751 44.5326 55.0704C44.6025 55.6657 44.55 56.269 44.3784 56.8432L44.099 57.7716C44.6666 58.2204 45.2804 58.6032 45.936 58.9112L46.651 58.1544C47.0626 57.7186 47.559 57.3714 48.1096 57.1343C48.6602 56.8972 49.2534 56.7751 49.8529 56.7755C50.4524 56.7759 51.0455 56.8988 51.5958 57.1367C52.1461 57.3746 52.642 57.7224 53.053 58.1588L53.7944 58.9464C54.4368 58.6494 55.044 58.282 55.6028 57.8508L55.2596 56.6276C55.1008 56.0629 55.0566 55.4721 55.1295 54.89C55.2023 54.308 55.3909 53.7463 55.684 53.2382C55.9771 52.73 56.3689 52.2856 56.8363 51.9311C57.3037 51.5766 57.8372 51.3191 58.4056 51.1738L59.4176 50.9164C59.4907 50.172 59.4833 49.4219 59.3956 48.679L58.63 48.4986C58.0465 48.3607 57.4973 48.105 57.0161 47.7472C56.535 47.3894 56.1321 46.937 55.8321 46.4178C55.5322 45.8986 55.3415 45.3236 55.2718 44.7281C55.2021 44.1325 55.2548 43.529 55.4268 42.9546L55.704 42.0284C55.1371 41.5791 54.5208 41.196 53.867 40.8866L53.152 41.6434C52.7405 42.0794 52.2443 42.4267 51.6938 42.664C51.1432 42.9014 50.55 43.0237 49.9505 43.0235C49.351 43.0232 48.7579 42.9005 48.2075 42.6628C47.6571 42.4252 47.1612 42.0775 46.75 41.6412L46.0086 40.8536C45.367 41.1497 44.7604 41.5164 44.2002 41.947L44.5456 43.1724ZM49.9004 52.1C49.3169 52.1 48.7573 51.8682 48.3448 51.4557C47.9322 51.0431 47.7004 50.4835 47.7004 49.9C47.7004 49.3165 47.9322 48.757 48.3448 48.3444C48.7573 47.9318 49.3169 47.7 49.9004 47.7C50.4839 47.7 51.0434 47.9318 51.456 48.3444C51.8686 48.757 52.1004 49.3165 52.1004 49.9C52.1004 50.4835 51.8686 51.0431 51.456 51.4557C51.0434 51.8682 50.4839 52.1 49.9004 52.1Z" fill="#65438F"/>
</svg>
