<svg width="80" height="80" viewBox="0 0 80 80" fill="none" xmlns="http://www.w3.org/2000/svg">
<circle cx="40" cy="40" r="40" fill="#FAFAFA"/>
<path d="M26.25 26.25C26.25 24.7913 26.8295 23.3924 27.8609 22.3609C28.8924 21.3295 30.2913 20.75 31.75 20.75C33.2087 20.75 34.6076 21.3295 35.6391 22.3609C36.6705 23.3924 37.25 24.7913 37.25 26.25C37.25 27.7087 36.6705 29.1076 35.6391 30.1391C34.6076 31.1705 33.2087 31.75 31.75 31.75C30.2913 31.75 28.8924 31.1705 27.8609 30.1391C26.8295 29.1076 26.25 27.7087 26.25 26.25Z" fill="#65438F"/>
<path d="M44.8925 30.6054L45.008 30.6934C46.1748 31.5582 47.6364 31.9265 49.0737 31.7178C50.511 31.509 51.8074 30.7402 52.68 29.5792C53.5526 28.4181 53.9305 26.959 53.7312 25.5203C53.532 24.0817 52.7718 22.7802 51.6165 21.9C50.4612 21.0198 49.0046 20.6323 47.5647 20.822C46.1247 21.0118 44.8183 21.7634 43.9304 22.9128C43.0426 24.0623 42.6455 25.5162 42.8257 26.9574C43.006 28.3986 43.749 29.71 44.8925 30.6054Z" fill="#65438F"/>
<path d="M35.2362 34.4991C35.5816 33.845 36.0553 33.2674 36.6292 32.8007C37.203 32.334 37.865 31.9878 38.5757 31.7828C39.2864 31.5779 40.0311 31.5184 40.7654 31.6079C41.4996 31.6975 42.2082 31.9342 42.8488 32.3039C43.4894 32.6736 44.0489 33.1687 44.4937 33.7597C44.9386 34.3506 45.2597 35.0252 45.4378 35.7431C45.6159 36.461 45.6474 37.2074 45.5303 37.9377C45.4133 38.6681 45.1502 39.3673 44.7567 39.9936C43.9996 41.1984 42.8051 42.063 41.424 42.4057C40.043 42.7483 38.5829 42.5424 37.3504 41.8311C36.118 41.1199 35.2092 39.9586 34.8149 38.5914C34.4207 37.2242 34.5717 35.7574 35.2362 34.4991Z" fill="#65438F"/>
<path d="M24.7656 34.72H32.1081C31.8056 35.5807 31.6406 36.5075 31.6406 37.47C31.6406 39.582 32.4354 41.5125 33.7416 42.97H33.0156C31.5978 42.9698 30.2146 43.4077 29.0553 44.2239C27.896 45.0401 27.0173 46.1946 26.5394 47.5295C25.6163 47.1587 24.752 46.6557 23.9736 46.0362C21.9056 44.3725 20.6406 41.914 20.6406 38.845C20.6406 37.751 21.0752 36.7017 21.8488 35.9282C22.6224 35.1546 23.6716 34.72 24.7656 34.72Z" fill="#65438F"/>
<path d="M46.8764 42.75C49.8601 42.75 52.4011 44.6503 53.3499 47.3095C54.2849 46.9273 55.1511 46.4295 55.9184 45.8163C57.9864 44.1525 59.2514 41.694 59.2514 38.625C59.2514 37.531 58.8168 36.4818 58.0432 35.7082C57.2696 34.9346 56.2204 34.5 55.1264 34.5H47.7839C48.0864 35.3608 48.2514 36.2875 48.2514 37.25C48.2539 39.2798 47.5056 41.2388 46.1504 42.75H46.8764Z" fill="#65438F"/>
<path d="M50.6893 48.052C50.89 48.536 51 49.0695 51 49.625C51 52.694 49.7378 55.1525 47.667 56.8163C45.6293 58.4525 42.8958 59.25 40 59.25C37.1043 59.25 34.3708 58.4525 32.333 56.8163C30.265 55.1525 29 52.694 29 49.625C28.9986 49.0829 29.1043 48.5459 29.3111 48.0447C29.5178 47.5436 29.8216 47.0883 30.205 46.705C30.5883 46.3216 31.0436 46.0178 31.5447 45.8111C32.0459 45.6043 32.5829 45.4986 33.125 45.5H46.875C47.692 45.4998 48.4907 45.7423 49.1698 46.1966C49.8489 46.651 50.3777 47.2967 50.6893 48.052Z" fill="#65438F"/>
</svg>
