<svg width="25" height="24" viewBox="0 0 25 24" xmlns="http://www.w3.org/2000/svg">
    <path fill-rule="evenodd" clip-rule="evenodd" d="M5.7542 4.7999C5.7542 4.16338 6.00706 3.55293 6.45714 3.10285C6.90723 2.65276 7.51768 2.3999 8.1542 2.3999H17.7542C18.3907 2.3999 19.0012 2.65276 19.4513 3.10285C19.9013 3.55293 20.1542 4.16338 20.1542 4.7999V19.1999C20.4725 19.1999 20.7777 19.3263 21.0027 19.5514C21.2278 19.7764 21.3542 20.0816 21.3542 20.3999C21.3542 20.7182 21.2278 21.0234 21.0027 21.2484C20.7777 21.4735 20.4725 21.5999 20.1542 21.5999H16.5542C16.2359 21.5999 15.9307 21.4735 15.7057 21.2484C15.4806 21.0234 15.3542 20.7182 15.3542 20.3999V17.9999C15.3542 17.6816 15.2278 17.3764 15.0027 17.1514C14.7777 16.9263 14.4725 16.7999 14.1542 16.7999H11.7542C11.4359 16.7999 11.1307 16.9263 10.9057 17.1514C10.6806 17.3764 10.5542 17.6816 10.5542 17.9999V20.3999C10.5542 20.7182 10.4278 21.0234 10.2027 21.2484C9.97768 21.4735 9.67246 21.5999 9.3542 21.5999H5.7542C5.43594 21.5999 5.13071 21.4735 4.90567 21.2484C4.68063 21.0234 4.5542 20.7182 4.5542 20.3999C4.5542 20.0816 4.68063 19.7764 4.90567 19.5514C5.13071 19.3263 5.43594 19.1999 5.7542 19.1999V4.7999ZM9.3542 5.9999H11.7542V8.3999H9.3542V5.9999ZM11.7542 10.7999H9.3542V13.1999H11.7542V10.7999ZM14.1542 5.9999H16.5542V8.3999H14.1542V5.9999ZM16.5542 10.7999H14.1542V13.1999H16.5542V10.7999Z"/>
</svg>
