<svg width="24" height="24" viewBox="0 0 24 24" xmlns="http://www.w3.org/2000/svg">
    <path d="M9.43658 9.00029C10.0402 8.26829 10.9541 7.80029 11.9769 7.80029C12.9998 7.80029 13.9136 8.26829 14.5173 9.00029C14.9147 9.48307 15.1669 10.0691 15.2445 10.6901C15.3221 11.311 15.2219 11.9413 14.9555 12.5073C14.6892 13.0734 14.2677 13.5518 13.7402 13.887C13.2127 14.2221 12.6009 14.4 11.9763 14.4C11.3517 14.4 10.74 14.2221 10.2125 13.887C9.685 13.5518 9.26349 13.0734 8.99713 12.5073C8.73077 11.9413 8.63054 11.311 8.70814 10.6901C8.78573 10.0691 9.03795 9.48307 9.43538 9.00029H9.43658Z"/>
    <path d="M16.4685 11.1C16.4685 10.3416 16.2817 9.6264 15.9511 9H20.9599C21.4364 9 21.8934 9.18964 22.2303 9.52721C22.5672 9.86477 22.7565 10.3226 22.7565 10.8V11.4C22.7565 13.3044 21.3121 15.2544 18.7861 15.9408C18.5265 15.4736 18.147 15.0844 17.6869 14.8135C17.2268 14.5426 16.7028 14.3999 16.1691 14.4H15.0312C15.4852 13.9792 15.8473 13.4687 16.0947 12.9007C16.342 12.3328 16.4693 11.7197 16.4685 11.1Z"/>
    <path d="M16.1693 15.6001C16.4054 15.5995 16.6393 15.6456 16.8576 15.7358C17.0759 15.8261 17.2742 15.9586 17.4411 16.1259C17.6081 16.2932 17.7404 16.4919 17.8304 16.7105C17.9205 16.9292 17.9665 17.1635 17.9659 17.4001V18.0001C17.9659 20.3653 15.7382 22.8001 11.9773 22.8001C8.21652 22.8001 5.98878 20.3653 5.98878 18.0001V17.4001C5.98814 17.1635 6.03418 16.9292 6.12424 16.7105C6.21431 16.4919 6.34662 16.2932 6.51357 16.1259C6.68052 15.9586 6.87883 15.8261 7.09708 15.7358C7.31534 15.6456 7.54924 15.5995 7.78534 15.6001H16.1693Z"/>
    <path d="M1.19775 11.4C1.19775 13.3044 2.64219 15.2544 5.16817 15.9408C5.42775 15.4736 5.80724 15.0844 6.26736 14.8135C6.72747 14.5426 7.25149 14.3999 7.78517 14.4H8.923C8.46903 13.9792 8.10696 13.4687 7.8596 12.9007C7.61224 12.3328 7.48495 11.7197 7.48574 11.1C7.48574 10.3416 7.67259 9.6264 8.00435 9H2.99432C2.51784 9 2.06088 9.18964 1.72396 9.52721C1.38703 9.86477 1.19775 10.3226 1.19775 10.8V11.4Z"/>
    <path d="M10.48 4.5002C10.48 3.62498 10.133 2.78561 9.51529 2.16674C8.8976 1.54787 8.05983 1.2002 7.18629 1.2002C6.31274 1.2002 5.47497 1.54787 4.85728 2.16674C4.23959 2.78561 3.89258 3.62498 3.89258 4.5002C3.89258 5.37541 4.23959 6.21478 4.85728 6.83365C5.47497 7.45252 6.31274 7.80019 7.18629 7.80019C8.05983 7.80019 8.8976 7.45252 9.51529 6.83365C10.133 6.21478 10.48 5.37541 10.48 4.5002Z"/>
    <path d="M20.0615 4.5002C20.0615 3.62498 19.7145 2.78561 19.0968 2.16674C18.4791 1.54787 17.6414 1.2002 16.7678 1.2002C15.8943 1.2002 15.0565 1.54787 14.4388 2.16674C13.8211 2.78561 13.4741 3.62498 13.4741 4.5002C13.4741 5.37541 13.8211 6.21478 14.4388 6.83365C15.0565 7.45252 15.8943 7.80019 16.7678 7.80019C17.6414 7.80019 18.4791 7.45252 19.0968 6.83365C19.7145 6.21478 20.0615 5.37541 20.0615 4.5002Z"/>
</svg>
