<svg width="24" height="24" viewBox="0 0 24 24" xmlns="http://www.w3.org/2000/svg">
    <path d="M6.75 9.75H9.75V14.25H6.75V9.75ZM21.75 5.25V20.25C21.75 20.3778 21.7173 20.5036 21.6551 20.6152C21.5928 20.7269 21.503 20.8208 21.3943 20.888C21.2855 20.9552 21.1614 20.9935 21.0337 20.9992C20.906 21.005 20.7789 20.978 20.6646 20.9208L18 19.5886L15.3354 20.9208C15.2313 20.9729 15.1164 21 15 21C14.8836 21 14.7687 20.9729 14.6646 20.9208L12 19.5886L9.33544 20.9208C9.2313 20.9729 9.11645 21 9 21C8.88355 21 8.7687 20.9729 8.66456 20.9208L6 19.5886L3.33544 20.9208C3.22109 20.978 3.09403 21.005 2.96632 20.9992C2.8386 20.9935 2.71448 20.9552 2.60573 20.888C2.49697 20.8208 2.40721 20.7269 2.34495 20.6152C2.28269 20.5036 2.25 20.3778 2.25 20.25V5.25C2.25045 4.85231 2.40863 4.47104 2.68983 4.18983C2.97104 3.90863 3.35231 3.75045 3.75 3.75H20.25C20.6477 3.75045 21.029 3.90863 21.3102 4.18983C21.5914 4.47104 21.7496 4.85231 21.75 5.25ZM11.25 9C11.25 8.80109 11.171 8.61032 11.0303 8.46967C10.8897 8.32902 10.6989 8.25 10.5 8.25H6C5.80109 8.25 5.61032 8.32902 5.46967 8.46967C5.32902 8.61032 5.25 8.80109 5.25 9V15C5.25 15.1989 5.32902 15.3897 5.46967 15.5303C5.61032 15.671 5.80109 15.75 6 15.75H10.5C10.6989 15.75 10.8897 15.671 11.0303 15.5303C11.171 15.3897 11.25 15.1989 11.25 15V9ZM18.75 13.5C18.75 13.3011 18.671 13.1103 18.5303 12.9697C18.3897 12.829 18.1989 12.75 18 12.75H13.5C13.3011 12.75 13.1103 12.829 12.9697 12.9697C12.829 13.1103 12.75 13.3011 12.75 13.5C12.75 13.6989 12.829 13.8897 12.9697 14.0303C13.1103 14.171 13.3011 14.25 13.5 14.25H18C18.1989 14.25 18.3897 14.171 18.5303 14.0303C18.671 13.8897 18.75 13.6989 18.75 13.5ZM18.75 10.5C18.75 10.3011 18.671 10.1103 18.5303 9.96967C18.3897 9.82902 18.1989 9.75 18 9.75H13.5C13.3011 9.75 13.1103 9.82902 12.9697 9.96967C12.829 10.1103 12.75 10.3011 12.75 10.5C12.75 10.6989 12.829 10.8897 12.9697 11.0303C13.1103 11.171 13.3011 11.25 13.5 11.25H18C18.1989 11.25 18.3897 11.171 18.5303 11.0303C18.671 10.8897 18.75 10.6989 18.75 10.5Z"/>
</svg>
