<svg width="24" height="24" viewBox="0 0 24 24" xmlns="http://www.w3.org/2000/svg">
    <path d="M21.1576 3.96184C21.1576 3.7252 20.9661 3.53344 20.7292 3.5332H3.27044C3.03356 3.5332 2.8418 3.72496 2.8418 3.9616V5.49424C2.8418 5.73088 3.03356 5.92264 3.27044 5.92264H20.7295C20.9664 5.92264 21.1579 5.73088 21.1579 5.49424L21.1576 3.96184Z" />
    <path d="M19.6857 7.11816H4.31317C4.07653 7.1184 3.88477 7.31016 3.88477 7.5468L3.88501 7.54824L3.88477 7.54896V16.4659C3.88477 16.9942 4.33045 17.4216 4.88125 17.4216H11.402V18.7111C11.2831 18.802 11.1866 18.9189 11.12 19.053C11.0535 19.1871 11.0187 19.3347 11.0183 19.4844C11.0154 19.6151 11.0386 19.7451 11.0867 19.8667C11.1347 19.9883 11.2065 20.099 11.2979 20.1925C11.3893 20.2859 11.4985 20.3602 11.619 20.4109C11.7395 20.4616 11.8689 20.4877 11.9996 20.4877C12.1304 20.4877 12.2598 20.4616 12.3803 20.4109C12.5008 20.3602 12.61 20.2859 12.7014 20.1925C12.7928 20.099 12.8646 19.9883 12.9126 19.8667C12.9607 19.7451 12.9839 19.6151 12.981 19.4844C12.9806 19.3346 12.9458 19.1869 12.8792 19.0528C12.8125 18.9187 12.7159 18.8017 12.5968 18.7109V17.4216H19.1176C19.6681 17.4216 20.114 16.9942 20.114 16.4659V7.53888H20.1133C20.1113 7.42675 20.0653 7.31989 19.9854 7.24123C19.9054 7.16258 19.7978 7.1184 19.6857 7.11816Z" />
</svg>
