<svg width="25" height="24" viewBox="0 0 25 24" xmlns="http://www.w3.org/2000/svg">
    <g clip-path="url(#clip0_21939_52929)">
        <path d="M20.3839 12.98C20.4239 12.66 20.4539 12.34 20.4539 12C20.4539 11.66 20.4239 11.34 20.3839 11.02L22.4939 9.37C22.6839 9.22 22.7339 8.95 22.6139 8.73L20.6139 5.27C20.4939 5.05 20.2239 4.97 20.0039 5.05L17.5139 6.05C16.9939 5.65 16.4339 5.32 15.8239 5.07L15.4439 2.42C15.4139 2.18 15.2039 2 14.9539 2H10.9539C10.7039 2 10.4939 2.18 10.4639 2.42L10.0839 5.07C9.47394 5.32 8.91394 5.66 8.39394 6.05L5.90394 5.05C5.67394 4.96 5.41394 5.05 5.29394 5.27L3.29394 8.73C3.16394 8.95 3.22394 9.22 3.41394 9.37L5.52394 11.02C5.48394 11.34 5.45394 11.67 5.45394 12C5.45394 12.33 5.48394 12.66 5.52394 12.98L3.41394 14.63C3.22394 14.78 3.17394 15.05 3.29394 15.27L5.29394 18.73C5.41394 18.95 5.68394 19.03 5.90394 18.95L8.39394 17.95C8.91394 18.35 9.47394 18.68 10.0839 18.93L10.4639 21.58C10.4939 21.82 10.7039 22 10.9539 22H14.9539C15.2039 22 15.4139 21.82 15.4439 21.58L15.8239 18.93C16.4339 18.68 16.9939 18.34 17.5139 17.95L20.0039 18.95C20.2339 19.04 20.4939 18.95 20.6139 18.73L22.6139 15.27C22.7339 15.05 22.6839 14.78 22.4939 14.63L20.3839 12.98ZM12.9539 15.5C11.0239 15.5 9.45394 13.93 9.45394 12C9.45394 10.07 11.0239 8.5 12.9539 8.5C14.8839 8.5 16.4539 10.07 16.4539 12C16.4539 13.93 14.8839 15.5 12.9539 15.5Z" />
    </g>
    <defs>
        <clipPath id="clip0_21939_52929">
            <rect width="24" height="24" fill="white" transform="translate(0.954102)"/>
        </clipPath>
    </defs>
</svg>
