<svg width="24" height="25" viewBox="0 0 24 25" xmlns="http://www.w3.org/2000/svg">
    <path d="M12 2.47314C6.20156 2.47314 1.5 7.17471 1.5 12.9731C1.5 18.7716 6.20156 23.4731 12 23.4731C17.7984 23.4731 22.5 18.7716 22.5 12.9731C22.5 7.17471 17.7984 2.47314 12 2.47314ZM16.1367 16.2005L15.4664 17.1146C15.4518 17.1345 15.4335 17.1513 15.4124 17.1641C15.3913 17.1768 15.3678 17.1853 15.3434 17.189C15.319 17.1927 15.2942 17.1916 15.2702 17.1856C15.2463 17.1797 15.2237 17.1691 15.2039 17.1544L11.3273 14.3278C11.3032 14.3105 11.2836 14.2876 11.2701 14.2611C11.2566 14.2346 11.2497 14.2052 11.25 14.1755V7.72314C11.25 7.62002 11.3344 7.53564 11.4375 7.53564H12.5648C12.668 7.53564 12.7523 7.62002 12.7523 7.72314V13.5239L16.0945 15.9403C16.1789 15.9989 16.1977 16.1161 16.1367 16.2005Z"/>
</svg>
