<svg width="34" height="32" viewBox="0 0 34 32" xmlns="http://www.w3.org/2000/svg">
    <path d="M29 19L27.59 17.59L23 22.17V6H21V22.17L16.41 17.58L15 19L22 26L29 19Z"/>
    <path d="M13.926 8.6V24H11.11V19.71H7.304H6.996L4.136 24H1.122L4.422 19.248C3.35133 18.852 2.52267 18.2287 1.936 17.378C1.364 16.5127 1.078 15.4713 1.078 14.254C1.078 13.0807 1.342 12.0687 1.87 11.218C2.398 10.3673 3.146 9.722 4.114 9.282C5.082 8.82733 6.21867 8.6 7.524 8.6H13.926ZM7.612 11.02C6.43867 11.02 5.53667 11.2913 4.906 11.834C4.29 12.3767 3.982 13.1687 3.982 14.21C3.982 15.222 4.28267 16.0067 4.884 16.564C5.48533 17.1067 6.358 17.378 7.502 17.378H11.11V11.02H7.612Z"/>
</svg>
