<svg width="24" height="24" viewBox="0 0 24 24" xmlns="http://www.w3.org/2000/svg">
    <path fill-rule="evenodd" clip-rule="evenodd" d="M4.05664 6.06299C4.05664 5.5107 4.50436 5.06299 5.05664 5.06299H20.0566C20.6089 5.06299 21.0566 5.5107 21.0566 6.06299C21.0566 6.61527 20.6089 7.06299 20.0566 7.06299H5.05664C4.50436 7.06299 4.05664 6.61527 4.05664 6.06299ZM4.05664 12.063C4.05664 11.5107 4.50436 11.063 5.05664 11.063H20.0566C20.6089 11.063 21.0566 11.5107 21.0566 12.063C21.0566 12.6153 20.6089 13.063 20.0566 13.063H5.05664C4.50436 13.063 4.05664 12.6153 4.05664 12.063ZM5.05664 17.063C4.50436 17.063 4.05664 17.5107 4.05664 18.063C4.05664 18.6153 4.50436 19.063 5.05664 19.063H13.0566C13.6089 19.063 14.0566 18.6153 14.0566 18.063C14.0566 17.5107 13.6089 17.063 13.0566 17.063H5.05664Z" />
</svg>
