<svg width="24" height="24" viewBox="0 0 24 24" xmlns="http://www.w3.org/2000/svg">
    <path d="M18 19.1994C17.2 20.7994 14.3333 21.866 13 22.1994C13.1667 18.5327 13.5 12 12 12C10.5 12 10.8333 18.5327 11 22.1994C9.40001 22.1994 7 20.1994 6 19.1994C5 19.1994 3 18.9993 3 18.1993C3 17.3993 4.33333 17.1994 5 17.1994V15.1994C4.33333 15.1994 3 14.9994 3 14.1993C3 13.3993 4.33333 13.1994 5 13.1994L6 11.1994C5.5 11.1994 3 11.6993 3 10.1994C3 8.9994 5.66667 9.03272 7 9.19938C7.4 8.3994 8.5 7.5327 9 7.19934C8.6 6.39934 8.83334 5.19934 9.00001 4.69934C8.33334 4.19934 7.20001 2.99934 8.00001 2.19936C8.80001 1.39937 10.3333 3.19935 11 4.19934L13 4.19936C13.6667 3.19936 15.2 1.39936 16 2.19936C16.8 2.99936 15.6667 4.19936 15 4.69936C15.4 5.49936 15.1667 6.69936 15 7.19936C15.8 7.59936 16.6667 8.69937 17 9.19938C18.3333 9.03271 21 8.99938 21 10.1994C21 11.3994 19 11.366 18 11.1994C18.4 11.5994 18.8333 12.6994 19 13.1994C19.6667 13.1994 21 13.3994 21 14.1994C21 14.9994 19.6667 15.1994 19 15.1994V17.1994C19.5 17.1994 21 17.1994 21 18.1994C21 18.9994 19 19.1994 18 19.1994Z"/>
</svg>
