<svg width="24" height="24" viewBox="0 0 24 24" xmlns="http://www.w3.org/2000/svg">
    <path fill-rule="evenodd" clip-rule="evenodd" d="M9.99941 20.6089C9.99941 21.9296 8.92878 23.0002 7.6081 23.0002C6.28742 23.0002 5.2168 21.9296 5.2168 20.6089C5.2168 19.2883 6.28742 18.2176 7.6081 18.2176C8.92878 18.2176 9.99941 19.2883 9.99941 20.6089ZM9.99941 11.9996C9.99941 13.3202 8.92878 14.3909 7.6081 14.3909C6.28742 14.3909 5.2168 13.3202 5.2168 11.9996C5.2168 10.6789 6.28742 9.60826 7.6081 9.60826C8.92878 9.60826 9.99941 10.6789 9.99941 11.9996ZM7.6081 5.78247C8.92878 5.78247 9.99941 4.71185 9.99941 3.39117C9.99941 2.07049 8.92878 0.999863 7.6081 0.999863C6.28742 0.999863 5.2168 2.07049 5.2168 3.39117C5.2168 4.71185 6.28742 5.78247 7.6081 5.78247ZM16.3913 5.78247C17.712 5.78247 18.7826 4.71185 18.7826 3.39117C18.7826 2.07049 17.712 0.999863 16.3913 0.999863C15.0706 0.999863 14 2.07049 14 3.39117C14 4.71185 15.0706 5.78247 16.3913 5.78247ZM16.3913 14.3909C17.712 14.3909 18.7826 13.3202 18.7826 11.9996C18.7826 10.6789 17.712 9.60826 16.3913 9.60826C15.0706 9.60826 14 10.6789 14 11.9996C14 13.3202 15.0706 14.3909 16.3913 14.3909ZM16.3913 23.0002C17.712 23.0002 18.7826 21.9296 18.7826 20.6089C18.7826 19.2883 17.712 18.2176 16.3913 18.2176C15.0706 18.2176 14 19.2883 14 20.6089C14 21.9296 15.0706 23.0002 16.3913 23.0002Z" />
</svg>
