<svg width="24" height="24" viewBox="0 0 24 24" xmlns="http://www.w3.org/2000/svg">
    <path d="M4.88909 19.3715C2.73948 17.2219 2.73948 13.743 4.88909 11.5934L12.3137 4.16874C13.8764 2.60604 16.4079 2.60604 17.9706 4.16874C19.5333 5.73145 19.5333 8.26289 17.9706 9.8256L11.9602 15.836C10.9843 16.8118 9.40043 16.8118 8.42462 15.836C7.44881 14.8602 7.44881 13.2763 8.42462 12.3005L13.7279 6.99717L15.1421 8.41138L9.77519 13.7783C9.38629 14.1672 10.0934 14.8743 10.4823 14.4854L16.5563 8.41138C17.3342 7.63357 17.3342 6.36078 16.5563 5.58296C15.7785 4.80514 14.5057 4.80514 13.7279 5.58296L6.3033 13.0076C4.93858 14.3723 4.93858 16.5926 6.3033 17.9573C7.66802 19.322 9.88833 19.322 11.253 17.9573L17.9706 11.2398L19.3848 12.654L12.6673 19.3715C10.5177 21.5211 7.03869 21.5211 4.88909 19.3715Z" />
</svg>
