<svg width="24" height="24" viewBox="0 0 24 24"  xmlns="http://www.w3.org/2000/svg">
    <path fill-rule="evenodd" clip-rule="evenodd" d="M12.8931 0.577646C11.2135 0.326749 9.99867 0.91164 9.25354 1.88115C8.56631 2.77534 8.35652 3.8903 8.35664 4.67112C8.35673 5.23578 8.52184 6.25404 9.41071 7.15654C8.18138 7.66098 7.22874 8.68043 6.74451 10.1331C6.24563 11.6298 6.51549 12.8777 7.14148 13.8324C7.7353 14.738 8.60378 15.3144 9.22765 15.6478C9.26054 15.6654 9.29438 15.6811 9.32902 15.6949L14.6037 17.7952C14.9402 18.0719 15.207 18.3579 15.3765 18.7074C15.5539 19.073 15.6674 19.5972 15.5048 20.4105C15.3939 20.965 15.0624 21.2411 14.5702 21.4118C14.0286 21.5996 13.4128 21.6065 12.9854 21.6065H12.9853C12.4173 21.6065 11.6405 21.4159 11.03 20.9494C10.4612 20.5148 9.98536 19.8068 9.98536 18.6067C9.98536 18.0544 9.53765 17.6067 8.98536 17.6067C8.43308 17.6067 7.98536 18.0544 7.98536 18.6067C7.98536 20.4397 8.75952 21.7316 9.81573 22.5386C10.8302 23.3138 12.0534 23.6065 12.9854 23.6065H12.9854L13.0114 23.6065H13.0114C13.4302 23.6066 14.3442 23.607 15.2255 23.3014C16.175 22.9721 17.1768 22.2482 17.4659 20.8027C17.7033 19.6161 17.5668 18.6402 17.176 17.8345C16.7952 17.0494 16.2152 16.5156 15.7302 16.1349C15.6549 16.0758 15.5716 16.0278 15.4827 15.9924L10.1231 13.8584C9.64471 13.5967 9.13366 13.2232 8.81401 12.7357C8.516 12.2812 8.34075 11.669 8.64187 10.7656C8.95698 9.82026 9.52176 9.27191 10.1727 9.00568C10.8442 8.73107 11.7093 8.71713 12.6529 9.0498C12.6899 9.06288 12.7273 9.07364 12.7647 9.08215C12.7701 9.08435 12.7754 9.08652 12.7807 9.08867L12.7968 9.09503L15.2586 10.0438L15.2585 10.0438L15.2708 10.0484C15.7249 10.2166 16.1393 10.621 16.3934 11.1729C16.648 11.7255 16.6929 12.3215 16.5366 12.7905C16.362 13.3144 16.6451 13.8807 17.1691 14.0554C17.693 14.23 18.2593 13.9469 18.434 13.4229C18.7777 12.3919 18.6391 11.2677 18.21 10.3362C17.7815 9.40587 17.0147 8.56391 15.9721 8.17537L13.5246 7.23215C13.2791 7.13187 12.9172 6.94893 12.3647 6.66956L12.3645 6.66948C12.1381 6.55504 11.8798 6.42443 11.5843 6.27669C10.411 5.69002 10.3567 4.9017 10.3566 4.67081C10.3566 4.1763 10.5018 3.53906 10.8393 3.0999C11.1189 2.73606 11.5986 2.40647 12.5977 2.5557C13.1439 2.63729 13.6528 2.26063 13.7344 1.71441C13.816 1.16818 13.4394 0.659238 12.8931 0.577646Z" />
</svg>
