<svg width="24" height="24" viewBox="0 0 24 24" xmlns="http://www.w3.org/2000/svg">
    <path d="M19.4287 11.625H4.57119C3.92057 13.4659 3.97699 15.4828 4.72951 17.2844C5.48203 19.086 6.87698 20.5438 8.64369 21.375H15.3749C17.1383 20.5406 18.5291 19.0814 19.278 17.2801C20.0269 15.4788 20.0806 13.4636 19.4287 11.625ZM7.12494 18.75C7.05077 18.75 6.97827 18.728 6.9166 18.6868C6.85493 18.6456 6.80687 18.587 6.77849 18.5185C6.7501 18.45 6.74268 18.3746 6.75715 18.3018C6.77162 18.2291 6.80733 18.1623 6.85978 18.1098C6.91222 18.0574 6.97904 18.0217 7.05178 18.0072C7.12452 17.9927 7.19992 18.0002 7.26845 18.0285C7.33697 18.0569 7.39554 18.105 7.43674 18.1667C7.47795 18.2283 7.49994 18.3008 7.49994 18.375C7.49994 18.4745 7.46043 18.5698 7.39011 18.6402C7.31978 18.7105 7.2244 18.75 7.12494 18.75ZM8.62494 20.25C8.55077 20.25 8.47827 20.228 8.4166 20.1868C8.35493 20.1456 8.30687 20.087 8.27849 20.0185C8.2501 19.95 8.24268 19.8746 8.25715 19.8018C8.27162 19.7291 8.30733 19.6623 8.35978 19.6098C8.41222 19.5574 8.47904 19.5217 8.55178 19.5072C8.62452 19.4927 8.69992 19.5002 8.76845 19.5285C8.83697 19.5569 8.89554 19.605 8.93674 19.6667C8.97795 19.7283 8.99994 19.8008 8.99994 19.875C8.99994 19.9745 8.96043 20.0698 8.89011 20.1402C8.81978 20.2105 8.7244 20.25 8.62494 20.25ZM8.99994 18.375C8.92577 18.375 8.85327 18.353 8.7916 18.3118C8.72993 18.2706 8.68187 18.212 8.65349 18.1435C8.6251 18.075 8.61768 17.9996 8.63215 17.9268C8.64662 17.8541 8.68233 17.7873 8.73478 17.7348C8.78722 17.6824 8.85404 17.6467 8.92678 17.6322C8.99952 17.6177 9.07492 17.6252 9.14345 17.6535C9.21197 17.6819 9.27054 17.73 9.31174 17.7917C9.35295 17.8533 9.37494 17.9258 9.37494 18C9.37494 18.0995 9.33543 18.1948 9.26511 18.2652C9.19478 18.3355 9.0994 18.375 8.99994 18.375ZM15.4499 20.4862L15.2662 20.5837C15.2125 20.6102 15.1535 20.6243 15.0937 20.625C15.0094 20.6253 14.9274 20.5973 14.8611 20.5453C14.7947 20.4934 14.7477 20.4206 14.7278 20.3387C14.7079 20.2568 14.7161 20.1706 14.7512 20.0939C14.7863 20.0173 14.8462 19.9547 14.9212 19.9163C14.9774 19.89 15.0299 19.86 15.0824 19.83C15.1695 19.7803 15.2727 19.7671 15.3694 19.7935C15.4661 19.8199 15.5483 19.8836 15.5981 19.9706C15.6478 20.0576 15.6609 20.1609 15.6345 20.2576C15.6082 20.3543 15.5445 20.4365 15.4574 20.4862H15.4499ZM16.8299 19.5C16.7572 19.5674 16.6608 19.6033 16.5617 19.5998C16.4626 19.5963 16.3689 19.5536 16.3012 19.4813C16.2672 19.4452 16.2408 19.4027 16.2233 19.3563C16.2059 19.31 16.1978 19.2606 16.1995 19.2111C16.2013 19.1616 16.2128 19.1129 16.2335 19.0679C16.2542 19.0228 16.2835 18.9824 16.3199 18.9487C17.4475 17.9091 18.1624 16.4978 18.3337 14.9738C18.3369 14.9231 18.3504 14.8736 18.3733 14.8283C18.3963 14.783 18.4282 14.7428 18.4671 14.7102C18.506 14.6776 18.5512 14.6532 18.5998 14.6386C18.6484 14.6239 18.6995 14.6193 18.7499 14.625C18.799 14.6306 18.8464 14.6458 18.8896 14.6698C18.9327 14.6937 18.9707 14.726 19.0013 14.7646C19.032 14.8033 19.0547 14.8476 19.0682 14.8951C19.0817 14.9426 19.0857 14.9922 19.0799 15.0413C18.8925 16.7503 18.0933 18.3339 16.8299 19.5ZM18.5024 10.875H5.49744L7.64244 9H12.3749V9.2625C12.3722 9.44906 12.43 9.63149 12.5397 9.78242C12.6494 9.93334 12.8051 10.0446 12.9834 10.0995C13.1617 10.1545 13.3531 10.1501 13.5287 10.0871C13.7043 10.0241 13.8547 9.90578 13.9574 9.75L14.4524 9H16.3574L18.5024 10.875Z"/>
    <path d="M20.8894 7.1325L13.3594 2.625H18.5269L20.8894 7.1325Z"/>
    <path d="M17.1502 5.76748L15.7177 8.24998H14.8477L16.5052 5.38123L17.1502 5.76748Z"/>
    <path d="M10.68 8.25H9.81375L8.18625 5.4375C8.08777 5.26692 7.94623 5.12519 7.77578 5.02648C7.60534 4.92776 7.41197 4.87553 7.215 4.875H2.625V4.125H7.4325C7.69554 4.12527 7.95389 4.19471 8.18163 4.32635C8.40936 4.45799 8.59848 4.6472 8.73 4.875L10.68 8.25Z"/>
</svg>
