<svg width="24" height="24" viewBox="0 0 24 24" xmlns="http://www.w3.org/2000/svg">
    <path d="M5 11H8C8.55 11 9 10.55 9 10V6C9 5.45 8.55 5 8 5H5C4.45 5 4 5.45 4 6V10C4 10.55 4.45 11 5 11ZM5 18H8C8.55 18 9 17.55 9 17V13C9 12.45 8.55 12 8 12H5C4.45 12 4 12.45 4 13V17C4 17.55 4.45 18 5 18ZM11 18H14C14.55 18 15 17.55 15 17V13C15 12.45 14.55 12 14 12H11C10.45 12 10 12.45 10 13V17C10 17.55 10.45 18 11 18ZM17 18H20C20.55 18 21 17.55 21 17V13C21 12.45 20.55 12 20 12H17C16.45 12 16 12.45 16 13V17C16 17.55 16.45 18 17 18ZM11 11H14C14.55 11 15 10.55 15 10V6C15 5.45 14.55 5 14 5H11C10.45 5 10 5.45 10 6V10C10 10.55 10.45 11 11 11ZM16 6V10C16 10.55 16.45 11 17 11H20C20.55 11 21 10.55 21 10V6C21 5.45 20.55 5 20 5H17C16.45 5 16 5.45 16 6Z" />
</svg>
