<svg width="24" height="24" viewBox="0 0 24 24" xmlns="http://www.w3.org/2000/svg">
    <path d="M20 3H12C11.45 3 11 3.45 11 4V5.61C11 5.61 11 5.61 11.01 5.62L16.01 10.12C16.64 10.68 17 11.5 17 12.35V13H19V15H17V17H19V19H17V21H20C20.55 21 21 20.55 21 20V4C21 3.45 20.55 3 20 3ZM15 7H13V5H15V7ZM19 11H17V9H19V11ZM19 7H17V5H19V7Z"/>
    <path d="M15 20.0001V12.3501C15 12.0701 14.88 11.8001 14.67 11.6101L9.67 7.1101C9.48 6.9301 9.24 6.8501 9 6.8501C8.76 6.8501 8.52 6.9401 8.33 7.1101L3.33 11.6101C3.12 11.7901 3 12.0601 3 12.3501V20.0001C3 20.5501 3.45 21.0001 4 21.0001H6C6.55 21.0001 7 20.5501 7 20.0001V16.0001H11V20.0001C11 20.5501 11.45 21.0001 12 21.0001H14C14.55 21.0001 15 20.5501 15 20.0001Z"/>
</svg>
