<svg width="20" height="23" viewBox="0 0 20 23" fill="none" xmlns="http://www.w3.org/2000/svg">
  <path d="M18.7364 10.6622L10.3511 19.8523C9.32379 20.9781 7.93051 21.6106 6.47773 21.6106C5.02494 21.6106 3.63166 20.9781 2.60439 19.8523C1.57712 18.7264 1 17.1994 1 15.6072C1 14.0151 1.57712 12.4881 2.60439 11.3622L10.9898 2.17223C11.6746 1.42166 12.6035 1 13.572 1C14.5405 1 15.4694 1.42166 16.1542 2.17223C16.8391 2.92279 17.2238 3.94077 17.2238 5.00223C17.2238 6.06369 16.8391 7.08167 16.1542 7.83224L7.75971 17.0223C7.41729 17.3975 6.95286 17.6084 6.4686 17.6084C5.98434 17.6084 5.51991 17.3975 5.17749 17.0223C4.83506 16.647 4.64269 16.138 4.64269 15.6072C4.64269 15.0765 4.83506 14.5675 5.17749 14.1922L12.9242 5.71223" stroke="#BDBDBD" stroke-width="2" stroke-linecap="round" stroke-linejoin="round"/>
</svg>
