<svg width="21" height="20" viewBox="0 0 21 20" fill="none" xmlns="http://www.w3.org/2000/svg">
  <path d="M15.75 9H13.75V11H15.75V9Z" fill="#9D9D9D"/>
  <path d="M11.75 9H9.75V11H11.75V9Z" fill="#9D9D9D"/>
  <path d="M7.75002 9H5.75V11H7.75002V9Z" fill="#9D9D9D"/>
  <path d="M17.75 2.00001H16.75V0H14.75V2.00001H6.75001V0H4.75V2.00001H3.75001C2.64001 2.00001 1.76003 2.90001 1.76003 4.00003L1.75 18C1.75 19.1 2.64001 20 3.75001 20H17.75C18.85 20 19.75 19.1 19.75 18V3.99998C19.75 2.90001 18.85 2.00001 17.75 2.00001ZM17.75 18H3.75001V6.99998H17.75V18Z" fill="#9D9D9D"/>
</svg>
