<svg width="24" height="24" viewBox="0 0 24 24" fill="none" xmlns="http://www.w3.org/2000/svg">
<path d="M13.5682 12.0004L22.7793 2.78931C22.9613 2.57675 23.0564 2.30334 23.0456 2.0237C23.0348 1.74406 22.9189 1.47879 22.721 1.28091C22.5231 1.08303 22.2579 0.9671 21.9782 0.956299C21.6986 0.945498 21.4252 1.04062 21.2126 1.22265L12.0015 10.4338L2.79038 1.21153C2.58115 1.00231 2.29738 0.884766 2.00149 0.884766C1.7056 0.884766 1.42183 1.00231 1.2126 1.21153C1.00337 1.42076 0.885832 1.70453 0.885832 2.00042C0.885832 2.29631 1.00337 2.58009 1.2126 2.78931L10.4348 12.0004L1.2126 21.2115C1.09629 21.3111 1.00182 21.4337 0.935128 21.5716C0.868435 21.7094 0.830957 21.8596 0.825047 22.0126C0.819136 22.1656 0.84492 22.3182 0.900781 22.4608C0.956641 22.6034 1.04137 22.7329 1.14966 22.8411C1.25794 22.9494 1.38744 23.0342 1.53002 23.09C1.6726 23.1459 1.82519 23.1717 1.97822 23.1658C2.13124 23.1598 2.28138 23.1224 2.41923 23.0557C2.55708 22.989 2.67966 22.8945 2.77927 22.7782L12.0015 13.5671L21.2126 22.7782C21.4252 22.9602 21.6986 23.0553 21.9782 23.0445C22.2579 23.0337 22.5231 22.9178 22.721 22.7199C22.9189 22.5221 23.0348 22.2568 23.0456 21.9771C23.0564 21.6975 22.9613 21.4241 22.7793 21.2115L13.5682 12.0004Z" fill="#CECECE"/>
</svg>
