<svg width="40" height="40" viewBox="0 0 40 40" fill="none" xmlns="http://www.w3.org/2000/svg">
    <path d="M32.25 16.7334C31.1167 10.9834 26.0667 6.66675 20 6.66675C15.1833 6.66675 11 9.40008 8.91667 13.4001C3.9 13.9334 0 18.1834 0 23.3334C0 28.8501 4.48333 33.3334 10 33.3334H31.6667C36.2667 33.3334 40 29.6001 40 25.0001C40 20.6001 36.5833 17.0334 32.25 16.7334ZM31.6667 30.0001H10C6.31667 30.0001 3.33333 27.0167 3.33333 23.3334C3.33333 19.9167 5.88333 17.0667 9.26667 16.7167L11.05 16.5334L11.8833 14.9501C13.4667 11.9001 16.5667 10.0001 20 10.0001C24.3667 10.0001 28.1333 13.1001 28.9833 17.3834L29.4833 19.8834L32.0333 20.0667C34.6333 20.2334 36.6667 22.4167 36.6667 25.0001C36.6667 27.7501 34.4167 30.0001 31.6667 30.0001ZM13.3333 21.6667H17.5833V26.6667H22.4167V21.6667H26.6667L20 15.0001L13.3333 21.6667Z" fill="#808080"/>
</svg>
