<svg width="22" height="20" viewBox="0 0 22 20" fill="none" xmlns="http://www.w3.org/2000/svg">
  <path d="M16.231 8.99999H14.1738V11H16.231V8.99999Z" fill="#9D9D9D"/>
  <path d="M12.1158 8.99999H10.0586V11H12.1158V8.99999Z" fill="#9D9D9D"/>
  <path d="M8.00248 8.99999H5.94531V11H8.00248V8.99999Z" fill="#9D9D9D"/>
  <path d="M18.2872 2.00001H17.2587V0H15.2015V2.00001H6.97295V0H4.91579V2.00001H3.88723C2.74552 2.00001 1.8404 2.90001 1.8404 4.00003L1.83008 18C1.83008 19.1 2.74552 20 3.88723 20H18.2872C19.4187 20 20.3444 19.1 20.3444 18V3.99998C20.3443 2.90001 19.4186 2.00001 18.2872 2.00001ZM18.2872 18H3.88723V6.99998H18.2872V18Z" fill="#9D9D9D"/>
</svg>
