<svg fill="none" xmlns="http://www.w3.org/2000/svg" width="19" height="19" viewBox= '0 0 19 19'>
        <path
          d="M2.11111 0C0.939444 0 0 0.922154 0 2.07226V16.578C0 17.1276 0.22242 17.6547 0.61833 18.0434C1.01424 18.432 1.55121 18.6503 2.11111 18.6503H16.8889C17.4488 18.6503 17.9858 18.432 18.3817 18.0434C18.7776 17.6547 19 17.1276 19 16.578V9.32515H16.8889V16.578H2.11111V2.07226H9.5V0H2.11111ZM15.6011 1.03613C15.4112 1.0377 15.2293 1.11206 15.0944 1.24335L13.8067 2.49707L16.4456 5.08739L17.7333 3.83367C18.0078 3.56428 18.0078 3.10838 17.7333 2.84935L16.0972 1.24335C15.96 1.10866 15.7806 1.03613 15.6011 1.03613ZM13.0572 3.23272L5.27778 10.8793V13.4697H7.91667L15.6961 5.82304L13.0572 3.23272Z"
          fill="#BDBDBD"
        />
      </svg>