<svg width="19" height="18.6484375" xmlns="http://www.w3.org/2000/svg">

 <g>
  <title>background</title>
  <rect fill="none" id="canvas_background" height="402" width="582" y="-1" x="-1"/>
 </g>
 <g>
  <title>Layer 1</title>
  <path stroke-width="0" id="svg_1" fill="#BDBDBD" d="m2.11111,0c-1.17167,0 -2.11111,0.92215 -2.11111,2.07226l0,14.505739c0,0.549601 0.22242,1.0767 0.61833,1.465401c0.39591,0.388599 0.93288,0.606899 1.49278,0.606899l14.777791,0c0.559898,0 1.096899,-0.2183 1.4928,-0.606899c0.395899,-0.3887 0.618299,-0.9158 0.618299,-1.465401l0,-7.25285l-2.111099,0l0,7.25285l-14.777791,0l0,-14.505739l7.38889,0l0,-2.07226l-7.38889,0zm13.48999,1.03613c-0.1899,0.00157 -0.3718,0.07593 -0.5067,0.20722l-1.287701,1.25372l2.638901,2.59032l1.287699,-1.25372c0.2745,-0.26939 0.2745,-0.72529 0,-0.98432l-1.636099,-1.606c-0.1372,-0.13469 -0.316601,-0.20722 -0.4961,-0.20722zm-2.5439,2.19659l-7.77942,7.64658l0,2.5904l2.63889,0l7.77943,-7.64666l-2.6389,-2.59032z"/>
 </g>
</svg>