<svg width="20" height="20" viewBox="0 0 20 20" fill="none" xmlns="http://www.w3.org/2000/svg">
  <path d="M2.22222 0C0.988889 0 0 0.988889 0 2.22222V17.7778C0 18.3671 0.234126 18.9324 0.650874 19.3491C1.06762 19.7659 1.63285 20 2.22222 20H17.7778C18.3671 20 18.9324 19.7659 19.3491 19.3491C19.7659 18.9324 20 18.3671 20 17.7778V10H17.7778V17.7778H2.22222V2.22222H10V0H2.22222ZM16.4222 1.11111C16.2223 1.1128 16.0309 1.19254 15.8889 1.33333L14.5333 2.67778L17.3111 5.45556L18.6667 4.11111C18.9556 3.82222 18.9556 3.33333 18.6667 3.05556L16.9444 1.33333C16.8 1.18889 16.6111 1.11111 16.4222 1.11111ZM13.7444 3.46667L5.55556 11.6667V14.4444H8.33333L16.5222 6.24444L13.7444 3.46667Z" fill="#CECECE"/>
</svg>
