<svg width="22" height="22" viewBox="0 0 22 22" fill="none" xmlns="http://www.w3.org/2000/svg">
  <circle cx="11" cy="11" r="10" stroke="#BDBDBD" stroke-width="2"/>
  <path d="M10.0534 7.296C10.0534 5.71733 10.3521 4.928 10.9494 4.928C11.5468 4.928 11.8454 5.71733 11.8454 7.296C11.8454 8.02133 11.8134 8.59733 11.7494 9.024L11.2374 12.4C11.1734 12.6453 11.0774 12.768 10.9494 12.768C10.7681 12.7787 10.6294 12.448 10.5334 11.776L10.1494 9.024C10.0854 8.56533 10.0534 7.98933 10.0534 7.296ZM10.9494 14.208C11.2161 14.208 11.4401 14.304 11.6214 14.496C11.8134 14.6773 11.9094 14.9013 11.9094 15.168C11.9094 15.4453 11.8188 15.68 11.6374 15.872C11.4561 16.064 11.2268 16.16 10.9494 16.16C10.6828 16.16 10.4534 16.064 10.2614 15.872C10.0801 15.6693 9.98944 15.4347 9.98944 15.168C9.98944 14.912 10.0854 14.688 10.2774 14.496C10.4694 14.304 10.6934 14.208 10.9494 14.208Z" fill="#BDBDBD"/>
</svg>
