<svg width="14" height="15" viewBox="0 0 14 15" fill="none" xmlns="http://www.w3.org/2000/svg">
<path d="M3.49813 7.6422C3.49813 9.50213 5.07018 11.0151 7.0027 11.0151C8.93522 11.0151 10.5073 9.50213 10.5073 7.6422C10.5073 5.78227 8.93522 4.26926 7.0027 4.26926C5.07018 4.26926 3.49813 5.78227 3.49813 7.6422ZM7.0027 5.61655C8.16319 5.61655 9.10741 6.5253 9.10741 7.6422C9.10741 8.7591 8.16319 9.66784 7.0027 9.66784C5.84221 9.66784 4.898 8.7591 4.898 7.6422C4.898 6.5253 5.84221 5.61655 7.0027 5.61655ZM6.30137 12.3577H7.70124V14.3786H6.30137V12.3577ZM6.30137 0.905762H7.70124V2.92669H6.30137V0.905762ZM0.00195312 6.96855H2.10176V8.31584H0.00195312V6.96855ZM11.9008 6.96855H14.0007V8.31584H11.9008V6.96855Z" fill="#FA7D57"/>
<path d="M1.55566 11.9298L3.03953 10.5004L4.02994 11.4529L2.54607 12.8824L1.55566 11.9298Z" fill="#FA7D57"/>
<path d="M9.96942 3.83212L11.4547 2.40265L12.4444 3.35518L10.9591 4.78466L9.96942 3.83212Z" fill="#FA7D57"/>
<path d="M3.0441 4.78465L1.55884 3.35518L2.54925 2.40265L4.03311 3.83212L3.0441 4.78465Z" fill="#FA7D57"/>
<path d="M12.4444 11.9298L11.4547 12.8824L9.96942 11.4529L10.9591 10.5004L12.4444 11.9298Z" fill="#FA7D57"/>
</svg>
