<svg width="20" height="20" viewBox="0 0 20 20" fill="none" xmlns="http://www.w3.org/2000/svg">
<path d="M4.995 10C4.995 12.761 7.241 15.007 10.002 15.007C12.763 15.007 15.009 12.761 15.009 10C15.009 7.239 12.763 4.993 10.002 4.993C7.241 4.993 4.995 7.239 4.995 10ZM10.002 6.993C11.66 6.993 13.009 8.342 13.009 10C13.009 11.658 11.66 13.007 10.002 13.007C8.344 13.007 6.995 11.658 6.995 10C6.995 8.342 8.344 6.993 10.002 6.993ZM9 17H11V20H9V17ZM9 0H11V3H9V0ZM0 9H3V11H0V9ZM17 9H20V11H17V9Z" fill="#BDBDBD"/>
<path d="M2.21875 16.3632L4.33875 14.2412L5.75375 15.6552L3.63375 17.7772L2.21875 16.3632Z" fill="#BDBDBD"/>
<path d="M14.2422 4.34368L16.3642 2.22168L17.7782 3.63568L15.6562 5.75768L14.2422 4.34368Z" fill="#BDBDBD"/>
<path d="M4.34466 5.75866L2.22266 3.63666L3.63766 2.22266L5.75766 4.34466L4.34466 5.75866Z" fill="#BDBDBD"/>
<path d="M17.7782 16.3642L16.3642 17.7782L14.2422 15.6562L15.6562 14.2422L17.7782 16.3642Z" fill="#BDBDBD"/>
</svg>
