<svg width="19" height="5" viewBox="0 0 19 5" fill="none" xmlns="http://www.w3.org/2000/svg">
  <path d="M2.19188 0.416C2.70388 0.416 3.15188 0.608 3.53588 0.992C3.91988 1.376 4.11188 1.824 4.11188 2.336C4.11188 2.848 3.91988 3.30667 3.53588 3.712C3.15188 4.11733 2.70388 4.32 2.19188 4.32C1.67988 4.32 1.23188 4.11733 0.847875 3.712C0.463875 3.30667 0.271875 2.848 0.271875 2.336C0.271875 1.78133 0.453208 1.32267 0.815875 0.96C1.17854 0.597333 1.63721 0.416 2.19188 0.416ZM9.41063 0.416C9.92263 0.416 10.3706 0.608 10.7546 0.992C11.1386 1.376 11.3306 1.824 11.3306 2.336C11.3306 2.848 11.1386 3.30667 10.7546 3.712C10.3706 4.11733 9.92263 4.32 9.41063 4.32C8.89863 4.32 8.45063 4.11733 8.06663 3.712C7.68263 3.30667 7.49063 2.848 7.49063 2.336C7.49063 1.78133 7.67196 1.32267 8.03463 0.96C8.39729 0.597333 8.85596 0.416 9.41063 0.416ZM16.6294 0.416C17.1414 0.416 17.5894 0.608 17.9734 0.992C18.3574 1.376 18.5494 1.824 18.5494 2.336C18.5494 2.848 18.3574 3.30667 17.9734 3.712C17.5894 4.11733 17.1414 4.32 16.6294 4.32C16.1174 4.32 15.6694 4.11733 15.2854 3.712C14.9014 3.30667 14.7094 2.848 14.7094 2.336C14.7094 1.78133 14.8907 1.32267 15.2534 0.96C15.616 0.597333 16.0747 0.416 16.6294 0.416Z" fill="#323137"/>
</svg>
