<svg width="44" height="32" viewBox="0 0 44 32" fill="none" xmlns="http://www.w3.org/2000/svg">
<rect width="44" height="32" rx="5" fill="#F1F1EF"/>
<path d="M15.1919 13.416C15.7039 13.416 16.1519 13.608 16.5359 13.992C16.9199 14.376 17.1119 14.824 17.1119 15.336C17.1119 15.848 16.9199 16.3067 16.5359 16.712C16.1519 17.1173 15.7039 17.32 15.1919 17.32C14.6799 17.32 14.2319 17.1173 13.8479 16.712C13.4639 16.3067 13.2719 15.848 13.2719 15.336C13.2719 14.7813 13.4532 14.3227 13.8159 13.96C14.1785 13.5973 14.6372 13.416 15.1919 13.416ZM22.4106 13.416C22.9226 13.416 23.3706 13.608 23.7546 13.992C24.1386 14.376 24.3306 14.824 24.3306 15.336C24.3306 15.848 24.1386 16.3067 23.7546 16.712C23.3706 17.1173 22.9226 17.32 22.4106 17.32C21.8986 17.32 21.4506 17.1173 21.0666 16.712C20.6826 16.3067 20.4906 15.848 20.4906 15.336C20.4906 14.7813 20.672 14.3227 21.0346 13.96C21.3973 13.5973 21.856 13.416 22.4106 13.416ZM29.6294 13.416C30.1414 13.416 30.5894 13.608 30.9734 13.992C31.3574 14.376 31.5494 14.824 31.5494 15.336C31.5494 15.848 31.3574 16.3067 30.9734 16.712C30.5894 17.1173 30.1414 17.32 29.6294 17.32C29.1174 17.32 28.6694 17.1173 28.2854 16.712C27.9014 16.3067 27.7094 15.848 27.7094 15.336C27.7094 14.7813 27.8907 14.3227 28.2534 13.96C28.616 13.5973 29.0747 13.416 29.6294 13.416Z" fill="#323137"/>
</svg>
