<svg width="25" height="16" viewBox="0 0 25 16" fill="none" xmlns="http://www.w3.org/2000/svg">
<path d="M12.5 0C13.4669 0 14.3943 0.406896 15.078 1.13117C15.7617 1.85545 16.1458 2.83778 16.1458 3.86207C16.1458 4.88635 15.7617 5.86869 15.078 6.59296C14.3943 7.31724 13.4669 7.72414 12.5 7.72414C11.5331 7.72414 10.6057 7.31724 9.92201 6.59296C9.23828 5.86869 8.85417 4.88635 8.85417 3.86207C8.85417 2.83778 9.23828 1.85545 9.92201 1.13117C10.6057 0.406896 11.5331 0 12.5 0ZM5.20833 2.75862C5.79167 2.75862 6.33333 2.92414 6.80208 3.22207C6.64583 4.8 7.08333 6.3669 7.97917 7.59172C7.45833 8.65103 6.41667 9.37931 5.20833 9.37931C4.37953 9.37931 3.58468 9.03054 2.99862 8.40973C2.41257 7.78892 2.08333 6.94692 2.08333 6.06897C2.08333 5.19101 2.41257 4.34901 2.99862 3.7282C3.58468 3.10739 4.37953 2.75862 5.20833 2.75862ZM19.7917 2.75862C20.6205 2.75862 21.4153 3.10739 22.0014 3.7282C22.5874 4.34901 22.9167 5.19101 22.9167 6.06897C22.9167 6.94692 22.5874 7.78892 22.0014 8.40973C21.4153 9.03054 20.6205 9.37931 19.7917 9.37931C18.5833 9.37931 17.5417 8.65103 17.0208 7.59172C17.929 6.3497 18.3506 4.78477 18.1979 3.22207C18.6667 2.92414 19.2083 2.75862 19.7917 2.75862ZM5.72917 14.069C5.72917 11.7848 8.76042 9.93103 12.5 9.93103C16.2396 9.93103 19.2708 11.7848 19.2708 14.069V16H5.72917V14.069ZM0 16V14.3448C0 12.811 1.96875 11.52 4.63542 11.1448C4.02083 11.8952 3.64583 12.9324 3.64583 14.069V16H0ZM25 16H21.3542V14.069C21.3542 12.9324 20.9792 11.8952 20.3646 11.1448C23.0312 11.52 25 12.811 25 14.3448V16Z" fill="#FA7D57"/>
</svg>
