<svg width="19" height="18" viewBox="0 0 19 18" fill="none" xmlns="http://www.w3.org/2000/svg">
<path d="M12.9661 13.6996L12.9661 13.6996L12.9691 13.6983L17.2811 11.8469L17.5264 11.7415L17.4052 11.5036L16.8774 10.4682L16.7711 10.2598L16.5561 10.3519L12.3257 12.1653L7.43028 11.0757C7.43005 11.0757 7.42982 11.0756 7.4296 11.0755C7.20845 11.0252 6.97787 11.0224 6.75546 11.0675C6.5328 11.1126 6.32307 11.2047 6.14299 11.3379L6.14296 11.3378L6.13938 11.3406L2.4948 14.1396V11.689L7.13672 8.12767L11.9975 9.20956C11.9976 9.20959 11.9977 9.20961 11.9978 9.20964C12.3209 9.28261 12.6614 9.25425 12.9661 9.12813L12.9661 9.12815L12.9691 9.12686L17.2811 7.27543L17.5263 7.17013L17.4052 6.93229L16.878 5.89686L16.7719 5.68833L16.5568 5.7805L12.3251 7.59389L7.42955 6.50425C7.42933 6.5042 7.4291 6.50415 7.42888 6.5041C7.20776 6.45381 6.97723 6.45112 6.75487 6.49617C6.53227 6.54127 6.32256 6.63329 6.14246 6.76636L6.14244 6.76633L6.13874 6.76917L2.4948 9.56816V7.11758L7.13672 3.55624L11.9975 4.63813C11.9976 4.63816 11.9977 4.63819 11.9979 4.63823C12.3209 4.71118 12.6614 4.68281 12.9661 4.5567L12.9661 4.55672L12.9689 4.55549L17.2809 2.70692L17.5263 2.60174L17.4053 2.36382L16.8787 1.32839L16.7727 1.11983L16.5575 1.21187L12.3258 3.02247L7.43028 1.93284C7.43005 1.93279 7.42982 1.93274 7.42959 1.93269C7.20845 1.8823 6.97787 1.87955 6.75546 1.92461C6.5328 1.96973 6.32306 2.06181 6.14299 2.19501L6.14296 2.19497L6.13938 2.19773L2.4948 4.99678V1V0.75H2.2448H1H0.75V1V15.8571C0.75 16.2338 0.913157 16.5902 1.19552 16.8494C1.47717 17.108 1.85492 17.25 2.2448 17.25H18.4272H18.6772V17V15.8571V15.6071H18.4272H3.34612L7.13671 12.6991L11.9975 13.781C11.9976 13.781 11.9977 13.781 11.9978 13.7811C12.3209 13.854 12.6614 13.8257 12.9661 13.6996Z" fill="#FA7D57" stroke="#FA7D57" stroke-width="0.5"/>
</svg>
