<svg width="22" height="21" viewBox="1 1 22 21" fill="none" xmlns="http://www.w3.org/2000/svg">
<path d="M21.5 11.6428C21.5 16.6642 17.2649 20.7672 12 20.7672C6.73508 20.7672 2.5 16.6642 2.5 11.6428C2.5 6.62143 6.73508 2.51843 12 2.51843C17.2649 2.51843 21.5 6.62143 21.5 11.6428Z" fill="white" stroke="#FA7D57"/>
<path d="M8.49813 11.6422C8.49813 13.5021 10.0702 15.0151 12.0027 15.0151C13.9352 15.0151 15.5073 13.5021 15.5073 11.6422C15.5073 9.78227 13.9352 8.26926 12.0027 8.26926C10.0702 8.26926 8.49813 9.78227 8.49813 11.6422ZM12.0027 9.61655C13.1632 9.61655 14.1074 10.5253 14.1074 11.6422C14.1074 12.7591 13.1632 13.6678 12.0027 13.6678C10.8422 13.6678 9.898 12.7591 9.898 11.6422C9.898 10.5253 10.8422 9.61655 12.0027 9.61655ZM11.3014 16.3577H12.7012V18.3786H11.3014V16.3577ZM11.3014 4.90576H12.7012V6.92669H11.3014V4.90576ZM5.00195 10.9686H7.10176V12.3158H5.00195V10.9686ZM16.9008 10.9686H19.0007V12.3158H16.9008V10.9686Z" fill="#FA7D57"/>
<path d="M6.55566 15.9298L8.03953 14.5004L9.02994 15.4529L7.54607 16.8824L6.55566 15.9298Z" fill="#FA7D57"/>
<path d="M14.9694 7.83212L16.4547 6.40265L17.4444 7.35518L15.9591 8.78466L14.9694 7.83212Z" fill="#FA7D57"/>
<path d="M8.0441 8.78465L6.55884 7.35518L7.54925 6.40265L9.03311 7.83212L8.0441 8.78465Z" fill="#FA7D57"/>
<path d="M17.4444 15.9298L16.4547 16.8824L14.9694 15.4529L15.9591 14.5004L17.4444 15.9298Z" fill="#FA7D57"/>
</svg>
