<?xml version="1.0" encoding="utf-8"?>
<svg viewBox="-477.997 184.91 422.1 196.382" xmlns="http://www.w3.org/2000/svg">
    <g transform="matrix(1, 0, 0, 1, -13.589419, -70.175957)">
        <path style="opacity: 1; fill: rgb(229, 229, 229);" d="M -143.937 255.122 C -137.773 254.882 -131.804 255.843 -126.032 258.005 C -122.463 260.712 -121.097 264.303 -121.935 268.778 C -123.862 274.144 -127.452 277.937 -132.708 280.158 C -135.591 280.506 -138.425 280.303 -141.205 279.551 C -142.926 278.697 -143.481 277.331 -142.874 275.454 C -141.199 270.596 -137.91 269.028 -133.011 270.75 C -132.684 271.274 -132.635 271.831 -132.86 272.42 C -134.699 272.44 -136.571 272.49 -138.474 272.571 C -140.164 273.872 -140.871 275.542 -140.598 277.579 C -135.87 279.453 -131.722 278.594 -128.156 274.999 C -126.423 273.166 -125.057 271.092 -124.059 268.778 C -123.279 265.458 -124.038 262.575 -126.335 260.129 C -132.571 257.425 -139.045 256.616 -145.757 257.701 C -152.892 260.386 -157.496 265.393 -159.565 272.723 C -160.087 275.557 -159.581 278.187 -158.048 280.613 C -150.413 289.231 -140.805 293.177 -129.218 292.449 C -116.533 292.388 -104.039 290.82 -91.739 287.745 C -82.398 284.643 -73.798 280.192 -65.944 274.392 C -62.706 271.964 -59.471 269.537 -56.233 267.109 C -55.438 266.889 -54.931 267.193 -54.715 268.019 C -64.533 276.703 -75.561 283.581 -87.794 288.655 C -104.385 293.253 -121.279 295.074 -138.474 294.118 C -146.534 292.491 -153.362 288.698 -158.958 282.738 C -162.576 277.636 -162.778 272.376 -159.565 266.957 C -155.997 260.757 -150.786 256.811 -143.937 255.122 Z"/>
        <path style="opacity: 1; fill: rgb(229, 229, 229);" d="M -261.077 423.549 C -260.838 423.463 -260.635 423.312 -260.47 423.094 C -262.245 422.846 -263.965 422.896 -265.629 423.246 C -267.679 423.267 -269.703 423.52 -271.699 424.004 C -275.111 425.053 -278.551 426.014 -282.017 426.887 C -283.109 426.325 -283.21 425.566 -282.32 424.611 C -277.74 423.112 -273.087 421.898 -268.36 420.97 C -264.921 420.869 -261.482 420.767 -258.042 420.666 C -256.104 418.222 -254.283 415.693 -252.58 413.079 C -259.69 415.117 -266.974 416.281 -274.43 416.569 C -275.478 416.593 -276.49 416.442 -277.465 416.114 C -278.283 415.121 -278.182 414.211 -277.161 413.383 C -270.177 413.247 -263.299 412.337 -256.525 410.652 C -249.269 407.985 -242.492 404.445 -236.192 400.03 C -241.427 399.307 -246.687 398.953 -251.973 398.968 C -256.577 398.565 -261.23 398.565 -265.933 398.968 C -265.895 399.152 -265.794 399.253 -265.629 399.271 C -264.63 400.42 -263.821 401.685 -263.201 403.065 C -263.296 404.07 -263.853 404.525 -264.871 404.43 C -265.488 404.475 -265.994 404.273 -266.388 403.823 C -267.618 402.242 -268.781 400.623 -269.878 398.968 C -271.652 398.568 -273.473 398.568 -275.34 398.968 C -275.303 399.152 -275.202 399.253 -275.037 399.271 C -276.261 402.778 -278.386 405.661 -281.41 407.92 C -286.43 409.921 -291.639 411.186 -297.039 411.714 C -298.637 411.266 -298.788 410.508 -297.494 409.438 C -295.066 409.033 -292.638 408.628 -290.211 408.224 C -292.939 407.837 -295.67 407.433 -298.404 407.01 C -299.331 406.53 -299.533 405.822 -299.011 404.886 C -293.855 405.416 -288.696 405.922 -283.534 406.403 C -280.817 404.561 -278.692 402.184 -277.161 399.271 C -281.776 398.506 -286.227 399.012 -290.514 400.789 C -291.992 400.244 -292.093 399.486 -290.817 398.513 C -289.038 397.785 -287.217 397.178 -285.355 396.692 C -280.698 396.641 -276.045 396.489 -271.395 396.237 C -274.955 387.429 -277.939 378.426 -280.348 369.227 C -281.562 370.441 -282.775 371.655 -283.989 372.869 C -284.09 377.927 -284.192 382.985 -284.293 388.043 C -284.817 388.369 -285.373 388.42 -285.962 388.195 C -286.19 387.991 -286.291 387.738 -286.265 387.436 C -286.215 383.692 -286.265 379.949 -286.417 376.207 C -286.635 376.372 -286.786 376.575 -286.872 376.814 C -288.463 379.285 -289.98 381.813 -291.424 384.401 C -292.477 385.34 -293.185 385.138 -293.549 383.794 C -290.368 377.171 -286.119 371.304 -280.803 366.193 C -282.116 360.195 -282.976 354.125 -283.382 347.984 C -284.677 349.075 -285.739 350.339 -286.569 351.778 C -285.343 355.218 -284.381 358.708 -283.686 362.248 C -284.212 362.886 -284.819 362.987 -285.507 362.551 C -286.417 359.82 -287.328 357.089 -288.238 354.357 C -293.874 363.779 -297.718 373.895 -299.77 384.705 C -301.376 385.348 -302.337 384.843 -302.653 383.187 C -302.077 380.46 -301.521 377.728 -300.984 374.993 C -299.758 371.517 -298.545 368.078 -297.342 364.675 C -301.136 367.659 -304.524 371.048 -307.508 374.842 C -306.952 374.993 -306.598 375.348 -306.446 375.904 C -305.628 380.947 -304.92 386.005 -304.322 391.078 C -304.12 394.618 -304.12 398.158 -304.322 401.699 C -304.351 403.453 -304.553 405.172 -304.929 406.858 C -305.617 407.294 -306.224 407.193 -306.75 406.555 C -306.494 402.618 -306.393 398.673 -306.446 394.719 C -307.478 396.561 -308.742 398.23 -310.24 399.727 C -311.976 400.797 -313.797 401.707 -315.702 402.458 C -317.27 402.913 -317.827 402.357 -317.371 400.789 C -315.799 400.079 -314.231 399.32 -312.668 398.513 C -311.819 397.969 -311.061 397.311 -310.391 396.54 C -309.102 394.669 -307.888 392.747 -306.75 390.774 C -307.149 386.296 -307.807 381.845 -308.722 377.421 C -310.338 380.802 -311.501 384.342 -312.212 388.043 C -312.819 388.447 -313.426 388.447 -314.033 388.043 C -313.641 382.122 -311.719 376.76 -308.267 371.959 C -305.062 368.55 -301.673 365.364 -298.101 362.399 C -297.385 362.336 -296.727 362.286 -296.128 362.248 C -294.394 358.07 -292.27 354.125 -289.755 350.412 C -290.691 345.781 -292.006 341.229 -293.7 336.756 C -293.813 340.556 -294.622 344.198 -296.128 347.681 C -298.038 351.25 -300.213 354.639 -302.653 357.847 C -304.044 358.131 -304.499 357.574 -304.019 356.178 C -302.197 353.548 -300.528 350.817 -299.011 347.984 C -301.028 347.795 -303.051 347.744 -305.081 347.833 C -305.724 347.37 -305.825 346.814 -305.384 346.164 C -302.788 345.605 -300.158 345.302 -297.494 345.253 C -296.835 342.664 -296.431 340.034 -296.28 337.363 C -295.881 335.892 -295.881 334.374 -296.28 332.811 C -296.464 332.848 -296.565 332.949 -296.583 333.114 C -297.273 333.575 -297.677 334.232 -297.797 335.087 C -298.541 335.175 -299.249 335.377 -299.922 335.694 C -301.779 337.352 -303.751 338.818 -305.839 340.094 C -306.77 339.82 -307.074 339.213 -306.75 338.273 C -305.587 337.312 -304.423 336.351 -303.26 335.39 C -304.687 335.338 -306.103 335.186 -307.508 334.935 C -307.893 334.367 -307.893 333.811 -307.508 333.266 C -305.081 333.165 -302.653 333.064 -300.225 332.962 C -298.956 332.074 -297.742 331.113 -296.583 330.079 C -298.348 328.06 -299.815 325.834 -300.984 323.403 C -302.105 319.212 -302.915 314.963 -303.412 310.657 C -310.379 317.315 -313.869 325.509 -313.881 335.239 C -313.871 342.38 -312.809 349.36 -310.695 356.178 C -310.39 357.238 -310.542 358.199 -311.15 359.061 C -312.926 359.211 -313.887 358.351 -314.033 356.482 C -315.914 350.659 -316.875 344.691 -316.916 338.577 C -316.866 337.56 -316.917 336.549 -317.068 335.542 C -317.383 335.768 -317.535 336.071 -317.523 336.452 C -321.305 347.056 -321.002 357.577 -316.613 368.014 C -314.597 368.266 -312.574 368.418 -310.543 368.469 C -309.711 369.261 -309.812 369.919 -310.847 370.441 C -312.478 370.342 -314.096 370.443 -315.702 370.745 C -315.665 370.929 -315.564 371.03 -315.399 371.048 C -314.868 372.003 -314.615 373.015 -314.64 374.083 C -315.427 374.533 -316.135 374.431 -316.764 373.78 C -318.34 370.215 -319.706 366.574 -320.861 362.855 C -321.666 365.365 -322.425 367.894 -323.137 370.441 C -324.912 371.095 -325.519 370.488 -324.958 368.621 C -324.261 365.675 -323.4 362.792 -322.379 359.972 C -322.091 359.825 -321.788 359.775 -321.468 359.82 C -323.159 351.66 -322.603 343.669 -319.799 335.845 C -317.85 331.644 -316.332 327.294 -315.247 322.796 C -309.59 308.544 -299.12 300.603 -283.838 298.973 C -272.962 298.132 -262.138 298.587 -251.366 300.339 C -245.507 299.43 -239.64 298.57 -233.765 297.76 C -228.589 296.405 -223.43 294.989 -218.287 293.511 C -219.198 292.196 -220.108 290.881 -221.019 289.566 C -222.33 289.414 -223.645 289.364 -224.964 289.414 C -226.034 294.173 -228.968 296.044 -233.765 295.028 C -234.594 294.965 -235.353 294.712 -236.041 294.27 C -236.266 293.681 -236.215 293.124 -235.889 292.601 C -233.871 292.693 -231.847 292.693 -229.819 292.601 C -228.371 291.878 -227.562 290.715 -227.392 289.111 C -230.762 288.975 -234.1 289.228 -237.406 289.869 C -242.243 290.914 -247.048 292.077 -251.821 293.359 C -253.133 292.707 -253.184 291.948 -251.973 291.083 C -248.437 290.175 -244.897 289.264 -241.351 288.352 C -244.673 287.395 -248.011 286.485 -251.366 285.621 C -252.698 284.011 -252.293 283.303 -250.152 283.496 C -245.366 284.832 -240.561 286.097 -235.737 287.29 C -233.639 286.841 -231.515 286.639 -229.364 286.683 C -227.184 286.794 -225.009 286.844 -222.84 286.835 C -223.414 285.949 -223.566 284.988 -223.295 283.952 C -222.566 283.617 -221.807 283.566 -221.019 283.8 C -217.757 288.298 -214.723 292.951 -211.914 297.76 C -207.601 299.108 -203.352 300.625 -199.169 302.312 C -189.969 301.965 -180.764 301.863 -171.553 302.008 C -170.325 302.268 -169.212 302.774 -168.214 303.526 C -166.535 305.103 -164.967 306.772 -163.511 308.533 C -163.134 309.567 -163.488 310.072 -164.573 310.05 C -164.876 310 -165.18 309.949 -165.483 309.899 C -167.032 307.338 -169.156 305.416 -171.856 304.133 C -179.254 303.869 -186.638 304.072 -194.01 304.739 C -187.896 307.541 -182.13 310.879 -176.712 314.754 C -172.001 318.864 -168.966 323.973 -167.607 330.079 C -160.263 329.978 -154.142 332.608 -149.247 337.97 C -148.792 339.538 -149.347 340.094 -150.916 339.639 C -155.047 334.837 -160.306 332.46 -166.697 332.507 C -166.146 334.602 -165.893 336.726 -165.938 338.88 C -166.41 339.492 -166.967 339.593 -167.607 339.184 C -168.667 333.629 -170.336 328.268 -172.615 323.1 C -174.646 319.347 -177.529 316.565 -181.264 314.754 C -179.871 318.94 -179.416 323.239 -179.898 327.652 C -180.493 329.02 -180.797 330.436 -180.808 331.9 C -180.209 332.754 -179.551 333.563 -178.836 334.328 C -171.14 339.338 -164.11 345.205 -157.745 351.93 C -157.289 353.498 -157.845 354.054 -159.414 353.599 C -160.272 352.739 -161.133 351.879 -161.993 351.019 C -162.094 352.941 -162.196 354.863 -162.297 356.785 C -162.769 357.397 -163.325 357.498 -163.966 357.089 C -164.211 354.271 -164.362 351.438 -164.421 348.591 C -168.105 344.896 -172.101 341.709 -176.408 339.032 C -174.546 342.392 -173.281 345.983 -172.615 349.805 C -171.258 356.778 -171.207 363.757 -172.463 370.745 C -172.144 370.7 -171.84 370.75 -171.553 370.897 C -169.914 373.11 -168.549 375.488 -167.456 378.028 C -166.003 377.252 -164.536 377.302 -163.055 378.18 C -161.582 379.663 -160.218 381.231 -158.958 382.884 C -158.503 384.452 -159.059 385.008 -160.628 384.553 C -161.716 382.856 -163.031 381.339 -164.573 380.001 C -165.384 379.748 -166.193 379.495 -167 379.242 C -167.215 379.93 -167.164 380.638 -166.849 381.366 C -166.199 385.968 -167.109 390.217 -169.58 394.112 C -171.642 396.681 -173.817 399.159 -176.105 401.547 C -177.47 401.8 -178.027 401.244 -177.774 399.878 C -174.675 397.035 -172.095 393.798 -170.035 390.167 C -170.136 390.066 -170.238 389.965 -170.339 389.864 C -173.543 391.488 -176.831 392.904 -180.202 394.112 C -181.132 393.839 -181.436 393.232 -181.112 392.291 C -177.179 390.477 -173.234 388.656 -169.277 386.829 C -168.531 381.596 -169.795 376.942 -173.07 372.869 C -175.002 378.695 -178.492 383.348 -183.54 386.829 C -183.426 387.518 -183.426 388.226 -183.54 388.953 C -186.51 393.925 -190.102 398.427 -194.313 402.458 C -195.478 403.193 -196.692 403.85 -197.955 404.43 C -198.224 406.401 -198.881 408.221 -199.927 409.893 C -201.404 411.471 -202.972 412.938 -204.631 414.293 C -206.199 414.748 -206.755 414.192 -206.3 412.624 C -204.59 411.218 -202.972 409.701 -201.445 408.072 C -200.975 407.219 -200.722 406.308 -200.686 405.341 C -204.269 406.292 -207.911 406.747 -211.611 406.706 C -212.428 405.908 -212.327 405.199 -211.308 404.582 C -207.148 403.262 -202.899 402.453 -198.562 402.154 C -196.435 401.141 -194.564 399.775 -192.947 398.057 C -190.706 395.311 -188.582 392.478 -186.574 389.56 C -186.366 389.308 -186.416 389.106 -186.726 388.953 C -193.517 393.309 -200.8 396.597 -208.576 398.816 C -210.587 398.993 -211.244 398.134 -210.549 396.237 C -201.313 393.212 -192.664 389.014 -184.602 383.642 C -178.754 379.081 -175.568 373.062 -175.042 365.586 C -174.775 362.131 -174.876 358.692 -175.346 355.268 C -176.917 360.287 -179.598 364.586 -183.388 368.165 C -190.687 374.19 -199.083 377.427 -208.576 377.876 C -211.43 381.946 -214.516 385.84 -217.832 389.56 C -218.794 394.974 -220.16 400.285 -221.929 405.493 C -221.89 405.814 -221.738 406.067 -221.474 406.251 C -221.173 409.988 -221.021 413.731 -221.019 417.48 C -218.678 418.447 -216.705 419.965 -215.101 422.032 C -214.374 423.785 -214.172 425.606 -214.494 427.494 C -215.101 428.304 -215.708 428.304 -216.315 427.494 C -216.15 424.081 -217.617 421.653 -220.715 420.211 C -220.854 422.019 -221.309 423.739 -222.081 425.37 C -223.435 426.98 -225.003 428.295 -226.785 429.315 C -227.071 429.282 -227.323 429.181 -227.543 429.012 C -227.746 428.506 -227.746 428 -227.543 427.494 C -225.564 426.224 -224.147 424.505 -223.295 422.335 C -223.061 417.978 -223.162 413.628 -223.598 409.286 C -225.428 412.231 -227.603 414.911 -230.123 417.328 C -235.864 422.422 -241.934 427.076 -248.331 431.288 C -249.727 431.768 -250.284 431.313 -250 429.922 C -246.227 427.251 -242.534 424.469 -238.924 421.577 C -240.756 422.052 -242.576 422.659 -244.386 423.397 C -246.804 423.781 -249.232 423.882 -251.669 423.701 C -252.191 422.764 -251.989 422.056 -251.063 421.577 C -248.919 421.528 -246.795 421.326 -244.69 420.97 C -240.558 419.289 -236.41 417.671 -232.247 416.114 C -229.072 413.449 -226.594 410.263 -224.812 406.555 C -222.974 402.116 -221.811 397.564 -221.322 392.898 C -230.101 400.428 -239.71 406.75 -250.152 411.865 C -250.19 412.465 -250.241 413.122 -250.304 413.838 C -252.682 417.731 -255.464 421.322 -258.649 424.611 C -261.603 426.797 -264.84 428.315 -268.36 429.163 C -268.914 428.719 -269.066 428.162 -268.816 427.494 C -266.192 426.266 -263.613 424.951 -261.077 423.549 Z M -278.072 301.856 C -280.86 302.089 -283.692 302.342 -286.569 302.615 C -292.146 303.331 -297.103 305.456 -301.439 308.988 C -300.996 310.423 -300.642 311.89 -300.377 313.388 C -298.89 315.601 -297.221 317.675 -295.37 319.61 C -294.888 319.871 -294.382 320.074 -293.852 320.217 C -292.335 320.318 -290.817 320.419 -289.3 320.52 C -288.657 320.982 -288.556 321.539 -288.997 322.189 C -293.409 323.455 -296.899 322.241 -299.466 318.547 C -299.215 322.49 -297.647 325.828 -294.763 328.562 C -287.623 323.092 -280.441 317.68 -273.216 312.326 C -269.443 307.964 -264.891 304.727 -259.56 302.615 C -265.712 301.956 -271.883 301.703 -278.072 301.856 Z M -293.549 330.686 C -291.425 336.298 -289.453 341.962 -287.631 347.681 C -286.316 346.366 -285.001 345.051 -283.686 343.736 C -283.466 334.831 -281.291 326.435 -277.161 318.547 C -277.199 318.363 -277.3 318.262 -277.465 318.244 C -282.86 322.312 -288.221 326.459 -293.549 330.686 Z M -255.615 304.739 C -262.025 306.451 -267.234 309.941 -271.243 315.209 C -276.591 323.109 -279.474 331.809 -279.892 341.308 C -275.781 339.253 -271.533 337.533 -267.147 336.149 C -266.522 333.587 -265.764 331.058 -264.871 328.562 C -263.731 326.283 -262.618 324.058 -261.532 321.886 C -263.122 322.782 -264.74 323.591 -266.388 324.313 C -267.319 324.04 -267.622 323.433 -267.298 322.493 C -264.29 320.862 -261.306 319.193 -258.346 317.485 C -256.94 315.775 -255.422 314.157 -253.794 312.63 C -248.535 308.628 -242.972 304.986 -237.103 301.705 C -237.599 301.555 -238.105 301.504 -238.62 301.553 C -244.285 302.392 -249.95 303.454 -255.615 304.739 Z M -253.49 315.664 C -253.164 316.188 -253.113 316.745 -253.339 317.334 C -254.324 317.852 -255.285 318.408 -256.222 319.003 C -260.278 323.728 -263.01 329.14 -264.415 335.239 C -252.833 331.837 -241.301 328.246 -229.819 324.465 C -228.116 323.816 -226.498 323.007 -224.964 322.037 C -221.343 318.846 -218.612 315.154 -216.77 310.961 C -224.62 315.695 -233.016 319.893 -241.958 323.555 C -243.908 323.543 -244.212 322.835 -242.869 321.43 C -238.751 319.776 -234.704 317.955 -230.73 315.968 C -233.272 315.518 -235.801 315.012 -238.317 314.451 C -238.721 313.844 -238.721 313.237 -238.317 312.63 C -234.496 313.204 -230.652 313.609 -226.785 313.844 C -222.738 311.618 -218.692 309.393 -214.646 307.167 C -213.747 306.13 -213.039 304.967 -212.521 303.677 C -213.685 301.553 -214.848 299.429 -216.011 297.304 C -216.255 296.909 -216.61 296.706 -217.074 296.697 C -222.427 298.162 -227.789 299.579 -233.158 300.946 C -233.093 301.445 -233.194 301.9 -233.461 302.312 C -237.684 304.599 -241.781 307.078 -245.752 309.747 C -246.121 311.447 -246.273 313.166 -246.207 314.906 C -246.207 315.209 -246.207 315.513 -246.207 315.816 C -243.925 315.718 -241.7 315.819 -239.531 316.12 C -238.317 316.828 -238.317 317.536 -239.531 318.244 C -241.7 318.545 -243.925 318.646 -246.207 318.547 C -246.121 319.129 -246.222 319.634 -246.51 320.065 C -246.484 320.367 -246.586 320.62 -246.814 320.824 C -247.403 321.049 -247.959 320.998 -248.483 320.672 C -248.635 318.348 -248.685 316.021 -248.635 313.692 C -248.545 313.014 -248.647 312.407 -248.938 311.871 C -250.558 312.988 -252.076 314.253 -253.49 315.664 Z M -216.618 317.637 C -218.583 320.704 -221.061 323.284 -224.053 325.376 C -228.081 327.292 -232.229 328.91 -236.496 330.231 C -247.683 333.483 -258.81 336.922 -269.878 340.549 C -273.334 341.822 -276.672 343.34 -279.892 345.101 C -280.084 345.68 -280.185 346.287 -280.196 346.922 C -279.748 352.684 -278.989 358.4 -277.92 364.068 C -271.087 358.554 -263.349 354.862 -254.704 352.992 C -252.438 350.622 -249.909 348.6 -247.117 346.922 C -251.929 346.531 -256.684 346.886 -261.381 347.984 C -261.767 347.963 -262.12 347.862 -262.443 347.681 C -262.715 346.915 -262.563 346.257 -261.988 345.708 C -256.017 344.252 -249.998 343.999 -243.931 344.95 C -241.86 344.192 -239.887 343.231 -238.013 342.067 C -238.848 340.321 -240.163 339.107 -241.958 338.425 C -245.78 337.779 -249.573 337.931 -253.339 338.88 C -254.606 338.714 -254.961 338.057 -254.401 336.908 C -249.897 335.435 -245.345 335.232 -240.744 336.301 C -238.586 337.347 -236.916 338.915 -235.737 341.004 C -225.702 336.21 -215.536 331.708 -205.238 327.5 C -204.912 326.976 -204.861 326.42 -205.086 325.831 C -206.387 319.817 -208.157 313.95 -210.397 308.229 C -210.536 307.987 -210.738 307.886 -211.004 307.926 C -212.642 311.304 -214.513 314.54 -216.618 317.637 Z M -237.103 359.061 C -237.86 359.389 -238.569 359.794 -239.227 360.275 C -242.185 362.927 -244.562 366.013 -246.359 369.531 C -247.253 370.382 -248.012 370.281 -248.635 369.227 C -247.376 366.507 -245.808 363.978 -243.931 361.641 C -242.16 359.259 -239.883 357.59 -237.103 356.633 C -233.089 355.888 -229.043 355.382 -224.964 355.116 C -230.627 352.613 -236.343 350.236 -242.11 347.984 C -251.06 352.212 -256.978 359.091 -259.863 368.621 C -257.934 371.005 -256.062 373.433 -254.249 375.904 C -252.706 378.308 -251.897 380.938 -251.821 383.794 C -249.67 384.042 -247.496 384.193 -245.297 384.249 C -244.528 384.831 -244.528 385.438 -245.297 386.07 C -247.418 386.222 -249.543 386.272 -251.669 386.222 C -251.701 388.152 -251.852 390.074 -252.125 391.988 C -252.732 392.393 -253.339 392.393 -253.945 391.988 C -253.97 388.228 -254.173 384.485 -254.552 380.759 C -255.992 377.373 -257.965 374.338 -260.47 371.655 C -260.947 372.378 -261.2 373.188 -261.229 374.083 C -261.532 376.502 -261.734 378.93 -261.836 381.366 C -262.847 382.58 -263.859 382.58 -264.871 381.366 C -265.047 372.436 -262.669 364.243 -257.739 356.785 C -257.891 356.684 -258.042 356.583 -258.194 356.482 C -265.563 358.368 -271.987 361.858 -277.465 366.951 C -275.045 376.992 -271.808 386.753 -267.754 396.237 C -259.559 396.474 -251.365 396.726 -243.172 396.995 C -239.975 397.261 -236.789 397.615 -233.613 398.057 C -225.422 392.801 -218.492 386.175 -212.825 378.18 C -215.86 378.079 -218.894 377.978 -221.929 377.876 C -222.948 377.259 -223.05 376.551 -222.233 375.752 C -218.49 375.651 -214.747 375.55 -211.004 375.449 C -207.505 370.268 -205.077 364.603 -203.721 358.454 C -203.844 358.167 -204.046 357.965 -204.328 357.847 C -206.143 357.544 -207.964 357.443 -209.79 357.544 C -215.327 359.981 -220.436 363.066 -225.116 366.8 C -225.217 367.71 -225.722 368.216 -226.633 368.317 C -228.925 371.538 -231.1 374.825 -233.158 378.18 C -234.421 378.346 -234.876 377.79 -234.523 376.511 C -233.07 373.855 -231.502 371.276 -229.819 368.772 C -232.159 368.797 -234.283 369.505 -236.192 370.897 C -237.945 372.852 -239.463 374.976 -240.744 377.27 C -241.96 377.569 -242.516 377.114 -242.414 375.904 C -241.58 374.336 -240.669 372.819 -239.682 371.352 C -236.444 367.673 -232.347 365.802 -227.392 365.738 C -223.64 362.445 -219.492 359.765 -214.949 357.696 C -217.017 357.395 -219.141 357.293 -221.322 357.392 C -226.657 357.25 -231.918 357.806 -237.103 359.061 Z M -211.004 342.674 C -209.709 343.744 -209.861 344.502 -211.459 344.95 C -213.029 344.584 -214.597 344.584 -216.163 344.95 C -215.488 346.805 -214.729 348.626 -213.887 350.412 C -213.634 351.778 -214.191 352.334 -215.556 352.081 C -218.387 348.139 -219.55 343.739 -219.046 338.88 C -218.705 338.046 -218.25 337.287 -217.68 336.604 C -223.363 338.735 -228.926 341.214 -234.371 344.039 C -233.573 345.778 -232.865 347.549 -232.247 349.35 C -228.201 351.171 -224.154 352.992 -220.108 354.813 C -214.434 354.903 -208.77 355.156 -203.114 355.571 C -202.174 347.203 -202.578 338.908 -204.328 330.686 C -206.856 331.749 -209.386 332.811 -211.914 333.873 C -214.16 335.357 -215.779 337.33 -216.77 339.791 C -216.863 340.666 -216.762 341.475 -216.467 342.218 C -214.639 342.27 -212.818 342.421 -211.004 342.674 Z M -239.227 346.619 C -237.94 347.136 -236.676 347.692 -235.434 348.288 C -235.491 347.352 -235.744 346.441 -236.192 345.557 C -236.443 345.288 -236.746 345.187 -237.103 345.253 C -237.791 345.701 -238.499 346.156 -239.227 346.619 Z M -199.927 336.149 C -198.89 342.944 -198.941 349.722 -200.079 356.482 C -193.82 357.944 -187.7 359.866 -181.719 362.248 C -181.336 362.169 -181.033 361.967 -180.808 361.641 C -178.732 357.887 -177.164 353.942 -176.105 349.805 C -177.026 344.526 -179.1 339.771 -182.326 335.542 C -182.669 336.217 -182.922 336.925 -183.085 337.666 C -182.412 339.042 -182.766 339.952 -184.147 340.398 C -184.691 341.831 -185.348 343.197 -186.119 344.494 C -186.787 344.745 -187.343 344.593 -187.788 344.039 C -187.904 343.047 -187.651 342.137 -187.03 341.308 C -187.232 341.207 -187.434 341.106 -187.637 341.004 C -189.66 341.51 -191.683 342.016 -193.706 342.522 C -194.17 342.513 -194.524 342.311 -194.768 341.915 C -195.082 341.09 -194.829 340.534 -194.01 340.246 C -191.381 339.639 -188.751 339.032 -186.119 338.425 C -185.152 336.636 -184.495 334.764 -184.147 332.811 C -184.855 331.9 -185.563 330.99 -186.271 330.079 C -191.903 324.798 -197.922 320.043 -204.328 315.816 C -202.339 322.471 -200.872 329.249 -199.927 336.149 Z M -205.693 311.264 C -197.35 316.1 -189.763 321.967 -182.933 328.866 C -182.146 327.41 -181.791 325.842 -181.871 324.162 C -182.098 320.295 -182.755 316.502 -183.843 312.782 C -192.257 307.583 -201.108 303.638 -210.397 300.946 C -208.459 304.167 -206.89 307.607 -205.693 311.264 Z M -206.755 374.993 C -197.458 374.593 -189.567 371.053 -183.085 364.372 C -188.792 361.964 -194.659 360.042 -200.686 358.606 C -201.689 364.447 -203.712 369.909 -206.755 374.993 Z"/>
        <path style="opacity: 1; fill: rgb(229, 229, 229);" d="M -43.79 303.677 C -42.522 303.478 -42.067 303.983 -42.425 305.195 C -54.992 314.695 -68.393 322.939 -82.635 329.928 C -93.615 335.62 -104.743 340.981 -116.017 346.012 C -127.324 350.69 -138.756 354.939 -150.309 358.758 C -151.171 357.799 -150.968 357.091 -149.702 356.633 C -126.444 348.812 -103.987 339.101 -82.331 327.5 C -68.651 320.768 -55.805 312.828 -43.79 303.677 Z"/>
        <path style="opacity: 1; fill: rgb(229, 229, 229);" d="M -248.938 311.871 C -248.92 311.706 -248.819 311.605 -248.635 311.568 C -248.241 312.318 -248.241 313.026 -248.635 313.692 C -248.545 313.014 -248.647 312.407 -248.938 311.871 Z"/>
        <path style="opacity: 1; fill: rgb(229, 229, 229);" d="M -246.207 314.906 C -246.207 315.209 -246.207 315.513 -246.207 315.816 C -243.925 315.718 -241.7 315.819 -239.531 316.12 C -241.857 316.12 -244.184 316.12 -246.51 316.12 C -246.592 315.634 -246.49 315.23 -246.207 314.906 Z"/>
        <path style="opacity: 1; fill: rgb(229, 229, 229);" d="M -239.531 318.244 C -241.7 318.545 -243.925 318.646 -246.207 318.547 C -246.121 319.129 -246.222 319.634 -246.51 320.065 C -246.51 319.458 -246.51 318.851 -246.51 318.244 C -244.184 318.244 -241.857 318.244 -239.531 318.244 Z"/>
        <path style="opacity: 1; fill: rgb(229, 229, 229);" d="M -354.85 319.761 C -353.64 319.808 -353.185 320.414 -353.485 321.582 C -357.438 330.704 -361.687 339.707 -366.231 348.591 C -370.47 356.473 -376.387 362.795 -383.984 367.558 C -394.397 373.864 -405.524 378.517 -417.366 381.518 C -418.054 381.748 -418.712 381.698 -419.338 381.366 C -419.509 380.517 -419.154 379.961 -418.276 379.697 C -406.424 376.693 -395.297 372.04 -384.894 365.738 C -377.819 361.393 -372.305 355.577 -368.355 348.288 C -363.473 338.949 -358.971 329.441 -354.85 319.761 Z"/>
        <path style="opacity: 1; fill: rgb(229, 229, 229);" d="M -55.019 325.831 C -53.505 325.982 -53.201 326.639 -54.108 327.803 C -68.979 336.807 -83.849 345.809 -98.719 354.813 C -105.377 359.348 -111.953 364.001 -118.445 368.772 C -123.719 373.506 -126.705 379.424 -127.397 386.525 C -127.598 390.489 -127.497 394.434 -127.094 398.361 C -127.643 398.743 -128.201 398.743 -128.763 398.361 C -130.775 388.808 -129.206 379.906 -124.059 371.655 C -121.677 369.072 -119.097 366.695 -116.32 364.524 C -110.809 360.605 -105.247 356.761 -99.629 352.992 C -84.708 343.979 -69.837 334.926 -55.019 325.831 Z"/>
        <path style="opacity: 1; fill: rgb(229, 229, 229);" d="M -296.583 333.114 C -296.565 332.949 -296.464 332.848 -296.28 332.811 C -295.881 334.374 -295.881 335.892 -296.28 337.363 C -296.183 335.887 -296.284 334.471 -296.583 333.114 Z"/>
        <path style="opacity: 1; fill: rgb(229, 229, 229);" d="M -316.916 338.577 C -317.119 337.869 -317.321 337.16 -317.523 336.452 C -317.535 336.071 -317.383 335.768 -317.068 335.542 C -316.917 336.549 -316.866 337.56 -316.916 338.577 Z"/>
        <path style="opacity: 1; fill: rgb(229, 229, 229);" d="M -216.77 339.791 C -216.863 340.666 -216.762 341.475 -216.467 342.218 C -216.485 342.383 -216.586 342.484 -216.77 342.522 C -217.165 341.567 -217.165 340.657 -216.77 339.791 Z"/>
        <path style="opacity: 1; fill: rgb(229, 229, 229);" d="M -221.322 357.392 C -219.049 357.041 -216.723 356.991 -214.342 357.24 C -214.507 357.458 -214.71 357.61 -214.949 357.696 C -217.017 357.395 -219.141 357.293 -221.322 357.392 Z"/>
        <path style="opacity: 1; fill: rgb(229, 229, 229);" d="M -398.854 411.107 C -399.363 411.226 -399.869 411.377 -400.371 411.562 C -398.697 411.81 -397.079 411.76 -395.516 411.41 C -388.812 411.536 -382.135 411.183 -375.486 410.348 C -372.075 409.571 -368.737 408.56 -365.472 407.313 C -360.186 405.049 -354.976 402.671 -349.843 400.182 C -348.799 400.35 -348.547 400.907 -349.084 401.851 C -357.516 406.572 -366.418 410.113 -375.79 412.472 C -380.835 412.977 -385.893 413.281 -390.964 413.383 C -409.778 413.651 -428.594 413.853 -447.41 413.99 C -452.522 414.417 -457.631 414.872 -462.735 415.355 C -464.327 415.493 -464.782 414.835 -464.101 413.383 C -458.231 412.892 -452.364 412.387 -446.499 411.865 C -435.271 411.764 -424.042 411.663 -412.814 411.562 C -401.857 410.848 -391.741 407.611 -382.466 401.851 C -376.872 397.269 -371.663 392.262 -366.837 386.829 C -361.768 381.254 -356.811 375.589 -351.967 369.834 C -351.446 369.21 -350.839 368.704 -350.146 368.317 C -349.59 368.469 -349.236 368.823 -349.084 369.379 C -357.725 379.946 -366.931 390.061 -376.7 399.727 C -383.07 405.441 -390.455 409.234 -398.854 411.107 Z"/>
        <path style="opacity: 1; fill: rgb(229, 229, 229);" d="M -310.847 370.441 C -312.364 370.644 -313.881 370.846 -315.399 371.048 C -315.564 371.03 -315.665 370.929 -315.702 370.745 C -314.096 370.443 -312.478 370.342 -310.847 370.441 Z"/>
        <path style="opacity: 1; fill: rgb(229, 229, 229);" d="M -286.265 387.436 C -286.468 383.895 -286.67 380.355 -286.872 376.814 C -286.786 376.575 -286.635 376.372 -286.417 376.207 C -286.265 379.949 -286.215 383.692 -286.265 387.436 Z"/>
        <path style="opacity: 1; fill: rgb(229, 229, 229);" d="M -269.878 398.968 C -271.656 398.87 -273.375 398.971 -275.037 399.271 C -275.202 399.253 -275.303 399.152 -275.34 398.968 C -273.473 398.568 -271.652 398.568 -269.878 398.968 Z"/>
        <path style="opacity: 1; fill: rgb(229, 229, 229);" d="M -251.973 398.968 C -256.578 398.868 -261.131 398.969 -265.629 399.271 C -265.794 399.253 -265.895 399.152 -265.933 398.968 C -261.23 398.565 -256.577 398.565 -251.973 398.968 Z"/>
        <path style="opacity: 1; fill: rgb(229, 229, 229);" d="M -398.854 411.107 C -397.803 411.405 -396.69 411.506 -395.516 411.41 C -397.079 411.76 -398.697 411.81 -400.371 411.562 C -399.869 411.377 -399.363 411.226 -398.854 411.107 Z"/>
        <path style="opacity: 1; fill: rgb(229, 229, 229);" d="M -265.629 423.246 C -263.965 422.896 -262.245 422.846 -260.47 423.094 C -260.635 423.312 -260.838 423.463 -261.077 423.549 C -262.535 423.25 -264.053 423.148 -265.629 423.246 Z"/>
        <path style="opacity: 1; fill: rgb(229, 229, 229);" d="M -211.914 441.758 C -210.56 442.105 -209.144 442.307 -207.666 442.365 C -200.977 442.311 -195.009 444.283 -189.761 448.282 C -188.41 449.633 -188.713 450.442 -190.671 450.71 C -193.112 450.778 -195.54 450.98 -197.955 451.317 C -229.415 451.519 -260.875 451.519 -292.335 451.317 C -294.527 450.625 -296.55 449.614 -298.404 448.282 C -295.218 447.555 -291.981 446.998 -288.693 446.613 C -288.776 446.021 -288.574 445.566 -288.086 445.248 C -269.276 441.283 -250.258 439.563 -231.033 440.088 C -224.643 440.528 -218.27 441.084 -211.914 441.758 Z"/>
        <path style="opacity: 1; fill: rgb(229, 229, 229);" d="M -211.914 441.758 C -210.417 441.675 -209.001 441.878 -207.666 442.365 C -209.144 442.307 -210.56 442.105 -211.914 441.758 Z"/>
    </g>
</svg>
