<svg width="49" height="32" viewBox="0 0 49 32" fill="none" xmlns="http://www.w3.org/2000/svg">
<path opacity="0.3" d="M39.0486 12.08C38.3708 8.67544 36.5213 5.60972 33.8161 3.40649C31.1108 1.20327 27.7177 -0.000784485 24.2162 3.83473e-07C18.3841 3.83473e-07 13.3189 3.28 10.7964 8.08C7.83038 8.39767 5.08744 9.79042 3.09461 11.9906C1.10178 14.1909 -0.000346497 17.0434 8.17151e-08 20C8.17151e-08 23.1826 1.27567 26.2348 3.54638 28.4853C5.81709 30.7357 8.89684 32 12.1081 32H38.3423C39.6674 32 40.9795 31.7413 42.2037 31.2388C43.4278 30.7362 44.5402 29.9997 45.4771 29.0711C46.4141 28.1425 47.1573 27.0401 47.6644 25.8268C48.1714 24.6136 48.4324 23.3132 48.4324 22C48.4324 16.72 44.2955 12.44 39.0486 12.08ZM38.3423 28H12.1081C9.96726 28 7.9141 27.1571 6.40029 25.6569C4.88648 24.1566 4.03604 22.1217 4.03604 20C4.03604 15.9 7.1236 12.48 11.2202 12.06L13.3795 11.84L14.3885 9.94C15.3165 8.14956 16.7251 6.64763 18.4591 5.59959C20.193 4.55155 22.1852 3.99804 24.2162 4C29.5034 4 34.0641 7.72 35.0933 12.86L35.6987 15.86L38.7863 16.08C40.3033 16.1811 41.7254 16.848 42.7663 17.9464C43.8072 19.0448 44.3896 20.4931 44.3964 22C44.3964 23.5913 43.7586 25.1174 42.6232 26.2426C41.4879 27.3679 39.948 28 38.3423 28ZM16.1441 18H21.2901V24H27.1423V18H32.2883L24.2162 10L16.1441 18Z" fill="#FA7D57"/>
</svg>
