<?xml version="1.0" standalone="no"?>
<svg xmlns="http://www.w3.org/2000/svg" viewBox="0 0 1440 320"
                                          preserveAspectRatio="xMinYMin meet">
  <path fill="#FFB78C"
        d="M0,288L34.3,261.3C68.6,235,137,181,206,186.7C274.3,192,343,256,411,272C480,288,549,256,617,202.7C685.7,149,754,75,823,74.7C891.4,75,960,149,1029,165.3C1097.1,181,1166,139,1234,117.3C1302.9,96,1371,96,1406,96L1440,96L1440,320L1405.7,320C1371.4,320,1303,320,1234,320C1165.7,320,1097,320,1029,320C960,320,891,320,823,320C754.3,320,686,320,617,320C548.6,320,480,320,411,320C342.9,320,274,320,206,320C137.1,320,69,320,34,320L0,320Z"></path>
</svg>
