<svg width="18" height="24" viewBox="0 0 18 24" fill="none" xmlns="http://www.w3.org/2000/svg">
<path d="M18 19.2949V20.4299H0V19.2949L2 17.0249V10.2149C2 6.69649 4.03 3.59795 7 2.59915V2.27C7 1.66796 7.21071 1.09058 7.58579 0.664867C7.96086 0.23916 8.46957 0 9 0C9.53043 0 10.0391 0.23916 10.4142 0.664867C10.7893 1.09058 11 1.66796 11 2.27V2.59915C13.97 3.59795 16 6.69649 16 10.2149V17.0249L18 19.2949ZM11 21.5649C11 22.167 10.7893 22.7443 10.4142 23.1701C10.0391 23.5958 9.53043 23.8349 9 23.8349C8.46957 23.8349 7.96086 23.5958 7.58579 23.1701C7.21071 22.7443 7 22.167 7 21.5649" fill="#323137"/>
</svg>
