<svg width="58" height="18" viewBox="0 0 58 18" fill="none" xmlns="http://www.w3.org/2000/svg">
<path d="M5.566 17.198C6.556 17.198 7.304 16.978 7.964 16.604V14.426C7.436 14.69 6.908 14.822 6.314 14.822C5.412 14.822 4.884 14.404 4.884 13.37V7.672H8.008V5.384H4.884V2.194H2.222V5.384H0.748V7.672H2.222V13.788C2.222 16.34 3.608 17.198 5.566 17.198ZM10.6954 17H13.3574V12.578C13.3574 9.498 14.9854 7.98 17.3174 7.98H17.4714V5.164C15.4254 5.076 14.0834 6.264 13.3574 8.002V5.384H10.6954V17ZM19.7833 17H22.4453V12.578C22.4453 9.498 24.0733 7.98 26.4053 7.98H26.5593V5.164C24.5133 5.076 23.1713 6.264 22.4453 8.002V5.384H19.7833V17ZM38.0586 17V10.114C38.0586 7.012 36.3866 5.208 32.9546 5.208C31.0626 5.208 29.8086 5.604 28.5326 6.176L29.2586 8.31C30.3146 7.87 31.2826 7.584 32.5806 7.584C34.4286 7.584 35.4406 8.464 35.4406 10.07V10.29C34.5386 10.004 33.6366 9.806 32.2286 9.806C29.5226 9.806 27.5206 11.038 27.5206 13.612C27.5206 15.988 29.4566 17.242 31.6566 17.242C33.4166 17.242 34.6266 16.516 35.4186 15.57V17H38.0586ZM35.4846 12.798C35.4846 14.25 34.1646 15.24 32.4046 15.24C31.1506 15.24 30.1606 14.624 30.1606 13.524C30.1606 12.358 31.1506 11.676 32.8226 11.676C33.8566 11.676 34.8026 11.874 35.4846 12.138V12.798ZM41.2247 17H43.8867V13.678L45.5147 11.984L49.0127 17H52.0927L47.3187 10.114L51.9387 5.384H48.7047L43.8867 10.532V0.94H41.2247V17ZM54.9534 12.138H56.4274L57.2414 2.37V1.6H54.1174V2.37L54.9534 12.138ZM54.2274 17H57.1534V13.986H54.2274V17Z" fill="black"/>
</svg>
