<svg width="20" height="20" viewBox="0 0 20 20" fill="none" xmlns="http://www.w3.org/2000/svg">
  <path d="M0.625 11.2328H19.375V19.375H0.625V11.2328Z" fill="url(#paint0_linear)"/>
  <g opacity="0.3">
    <path opacity="0.3" d="M15.8781 14.4625C16.2422 14.55 16.6578 14.6031 17.1016 14.6031C17.5141 14.6031 17.9031 14.5609 18.2484 14.4844C18.3906 14.4531 18.5328 14.439 18.6766 14.4359C18.8484 14.5312 19.1063 14.5984 19.375 14.6531V11.5609H0.625V14.4156C0.764062 14.4219 0.903125 14.4265 1.04687 14.4328C1.49062 14.5406 2.0125 14.6047 2.57344 14.6047C3.12969 14.6047 3.64844 14.5422 4.09063 14.4359C4.30156 14.4328 4.49219 14.4297 4.65938 14.4297C7.93437 14.4297 3.02656 15.0875 0.626563 15.3859V16.7781C2.15781 16.789 3.1375 16.9125 2.39531 17.2375C1.71875 17.5344 1.71875 17.8547 2.84063 17.8125C3.10469 17.8031 3.42969 17.7922 3.81719 17.7469C5.64531 17.5328 5.91563 17.1828 4.35938 16.9687C2.80312 16.7547 2.6 16.4047 4.24688 16.0297C5.19531 15.8125 6.27187 15.525 6.6375 15.525C6.90781 15.525 6.79375 15.6812 5.96094 16.1359C5.13125 16.589 5.3125 16.7562 5.93281 16.7562C6.77969 16.7562 8.44219 16.4469 9.45781 16.1359C11.2172 15.5984 11.1047 15.3844 9.1875 15.3312C7.48125 15.2828 9.63125 14.7687 11.3656 14.7687C11.5812 14.7687 11.7906 14.7765 11.9859 14.7937C13.7453 14.9547 14.7156 15.0625 12.0078 15.7328C9.3 16.4031 9.50313 16.9406 11.0156 17.1281C12.5281 17.3156 12.4828 17.5312 10.7 17.7984C9.95 17.9109 9.34531 17.9765 8.97031 17.9765C8.45312 17.9765 8.375 17.8515 8.96406 17.5562C9.5125 17.2812 9.53438 17.1078 9.05781 17.1078C8.65156 17.1078 7.88594 17.2344 6.775 17.5297C5.16563 17.9594 5.47188 18.0672 6.22813 18.0672C6.60625 18.0672 7.09844 18.0406 7.51875 18.014C7.59687 18.0094 7.66094 18.0062 7.7125 18.0062C8.48594 18.0062 6.32031 18.5484 6.57344 18.75C6.675 18.8312 6.92344 18.8578 7.24531 18.8578C7.77656 18.8578 8.50781 18.7828 9.1125 18.75C9.325 18.739 9.49844 18.7328 9.63281 18.7328C10.1094 18.7328 10.0719 18.8078 9.4375 18.9547C8.92031 19.075 9.00625 19.1719 9.52656 19.1719C9.82344 19.1719 10.2641 19.1406 10.8125 19.0625C12.325 18.8484 12.2344 18.6859 10.7219 18.5797C9.20938 18.4719 12.9563 18.1234 14.5359 17.8547C16.1156 17.5859 16.4312 17.4781 13.0016 17.1562C10.1266 16.8859 12.3734 16.5219 14.85 16.5219C15.3266 16.5219 15.8141 16.5359 16.2734 16.5656C19.1172 16.7531 18.1906 17.1297 17.5375 17.3437C16.9609 17.5328 16.5063 17.9312 17.5188 17.9312C17.6547 17.9312 17.8188 17.9234 18.0109 17.9078C18.3172 17.8828 18.5625 17.8703 18.7531 17.8703C19.4078 17.8703 19.3984 18.0125 18.9438 18.2375C18.4578 18.4781 18.5156 18.6859 19.0656 18.6906C19.1703 18.6922 19.275 18.6906 19.3781 18.689V15.35C19.3516 15.3562 19.3281 15.3625 19.3 15.3687C19.3 15.3687 19.0297 15.3969 18.5531 15.3969C17.8969 15.3969 16.85 15.3422 15.5766 15.0859C15.0266 14.9765 15.3781 14.7297 15.8781 14.4625Z" fill="#D7CCC8"/>
  </g>
  <path d="M4.26875 14.5359C4.90312 14.0968 5.57656 13.9859 6.2375 14.1515C6.66719 14.2578 7.12187 14.3156 7.59375 14.3156C8.34687 14.3156 9.05937 14.1687 9.69375 13.9093C10.4656 13.5921 11.2609 13.7265 12.0141 14.2187C13.175 14.9781 14.8125 15.4515 16.6266 15.4515C17.6125 15.4515 18.5438 15.3093 19.3766 15.0593V11.239C19.3766 10.5484 18.8172 9.98901 18.1266 9.98901H1.875C1.18437 9.98901 0.625 10.5484 0.625 11.239V15.4218C0.820312 15.4421 1.01719 15.4531 1.21875 15.4531C2.37813 15.4531 3.44062 15.1078 4.26875 14.5359Z" fill="url(#paint1_linear)"/>
  <path opacity="0.8" d="M16.625 14.8281C14.8109 14.8281 13.1734 14.3547 12.0125 13.5953C11.2609 13.1031 10.4656 12.9687 9.69219 13.2859C9.05937 13.5453 8.34688 13.6922 7.59219 13.6922C7.12031 13.6922 6.66563 13.6343 6.23594 13.5281C5.57344 13.364 4.9 13.4734 4.26719 13.9125C3.44062 14.4828 2.37813 14.8281 1.21875 14.8281C1.01719 14.8281 0.820312 14.8172 0.625 14.7968V15.9343C0.820312 15.9547 1.01719 15.9656 1.21875 15.9656C2.37813 15.9656 3.44062 15.6203 4.26875 15.0484C4.90312 14.6093 5.57656 14.4984 6.2375 14.664C6.66719 14.7703 7.12187 14.8281 7.59375 14.8281C8.34687 14.8281 9.05937 14.6812 9.69375 14.4218C10.4656 14.1047 11.2609 14.239 12.0141 14.7312C13.175 15.4906 14.8125 15.964 16.6266 15.964C17.6125 15.964 18.5438 15.8218 19.3766 15.5718V14.4343C18.5422 14.6859 17.6109 14.8281 16.625 14.8281Z" fill="white"/>
  <path opacity="0.2" d="M18.125 10.4563C18.5469 10.4563 18.8969 10.8 18.9047 11.2235L18.9062 11.275V18.8875H1.09375V11.2829L1.09531 11.2235C1.10313 10.8016 1.45312 10.4563 1.875 10.4563H18.125ZM18.125 9.98755H1.875C1.54765 9.9875 1.23337 10.116 0.999866 10.3454C0.766358 10.5749 0.632298 10.8868 0.626563 11.2141H0.625V19.3563H19.375V11.2141H19.3734C19.3677 10.8868 19.2336 10.5749 19.0001 10.3454C18.7666 10.116 18.4524 9.9875 18.125 9.98755Z" fill="#424242"/>
  <path d="M2.6125 16.65L3.72813 16.3187C3.79531 16.2984 3.84063 16.2437 3.84063 16.1812L3.85156 15.1359C3.85313 14.9953 4.05469 14.9375 4.15 15.05L4.85 15.8906C4.89219 15.9406 4.96563 15.9625 5.03281 15.9437L6.15469 15.6297C6.30625 15.5875 6.43125 15.7406 6.33906 15.8547L5.65625 16.7062C5.63657 16.7302 5.62582 16.7603 5.62582 16.7914C5.62582 16.8224 5.63657 16.8525 5.65625 16.8765L6.33906 17.7281C6.43125 17.8422 6.30625 17.9953 6.15469 17.9531L5.03281 17.639C4.96563 17.6203 4.89219 17.6406 4.85 17.6922L4.15 18.5328C4.05625 18.6453 3.85313 18.5875 3.85156 18.4468L3.84063 17.4015C3.84063 17.339 3.79531 17.2843 3.72813 17.264L2.6125 16.9328C2.4625 16.8843 2.4625 16.6953 2.6125 16.65Z" fill="url(#paint2_linear)"/>
  <path opacity="0.2" d="M4.3125 15.9765L4.49063 16.189C4.61094 16.3344 4.79063 16.4172 4.98281 16.4172C5.04219 16.4172 5.10156 16.4093 5.15938 16.3937L5.34688 16.3406L5.29063 16.4109C5.20417 16.518 5.15702 16.6514 5.15702 16.789C5.15702 16.9266 5.20417 17.0601 5.29063 17.1672L5.34688 17.2375L5.15938 17.1844C5.10156 17.1687 5.04375 17.1609 4.98281 17.1609C4.79063 17.1609 4.61094 17.2437 4.49063 17.389L4.3125 17.6015L4.31094 17.3922C4.30781 17.1234 4.12813 16.889 3.86406 16.8094L3.79063 16.7875L3.86406 16.7656C4.12969 16.6875 4.30938 16.4531 4.31094 16.1828L4.3125 15.9765ZM4.01875 14.9906C3.93438 14.9906 3.85313 15.0469 3.85156 15.1359L3.84063 16.1812C3.84063 16.2437 3.79531 16.2984 3.72813 16.3187L2.6125 16.65C2.4625 16.6953 2.4625 16.8828 2.6125 16.9281L3.72813 17.2593C3.79531 17.2797 3.84063 17.3343 3.84063 17.3968L3.85156 18.4422C3.85313 18.5312 3.93438 18.5875 4.01875 18.5875C4.06719 18.5875 4.11563 18.5687 4.15 18.5281L4.85 17.6875C4.88125 17.65 4.93125 17.6281 4.98281 17.6281C5 17.6281 5.01562 17.6297 5.03281 17.6344L6.15469 17.9484C6.17188 17.9531 6.18906 17.9562 6.20625 17.9562C6.33125 17.9562 6.42031 17.825 6.33906 17.7234L5.65469 16.875C5.63501 16.851 5.62426 16.8209 5.62426 16.7898C5.62426 16.7588 5.63501 16.7287 5.65469 16.7047L6.3375 15.8531C6.41875 15.7515 6.33125 15.6203 6.20469 15.6203C6.1875 15.6203 6.17031 15.6218 6.15313 15.6281L5.03125 15.9422C5.01562 15.9468 4.99844 15.9484 4.98125 15.9484C4.92969 15.9484 4.87969 15.9265 4.84844 15.889L4.14844 15.0484C4.11563 15.0078 4.06563 14.9906 4.01875 14.9906Z" fill="#424242"/>
  <path d="M9.50011 16.8594C9.45141 16.8509 9.40486 16.8329 9.36314 16.8064C9.32143 16.7798 9.28538 16.7453 9.25706 16.7048C9.22874 16.6643 9.20871 16.6186 9.19814 16.5703C9.18756 16.522 9.18664 16.4721 9.19542 16.4234L12.0204 0.935935C12.0564 0.731248 12.2517 0.59531 12.4564 0.631248C12.661 0.667185 12.7985 0.862498 12.761 1.06719L9.93605 16.5562C9.92738 16.6048 9.90922 16.6512 9.88261 16.6927C9.856 16.7342 9.82146 16.7701 9.78097 16.7982C9.74047 16.8264 9.69482 16.8463 9.64663 16.8568C9.59843 16.8673 9.54864 16.8682 9.50011 16.8594Z" fill="url(#paint3_linear)"/>
  <path d="M18.7497 8.25784L18.7466 8.16409H18.745C18.8169 5.03596 16.1513 2.12659 12.3966 1.38753C12.3903 1.38596 12.3841 1.3844 12.3794 1.3844C12.3747 1.38284 12.37 1.38284 12.3653 1.38128C12.3903 1.38596 12.4153 1.38753 12.4403 1.39221C12.4185 1.38909 12.3966 1.38596 12.3747 1.38128C12.3809 1.38284 12.3872 1.38284 12.3934 1.38284C12.3794 1.37971 12.3653 1.37971 12.3528 1.37659L12.3356 1.3719C12.3294 1.37034 12.3231 1.37034 12.3169 1.37034C12.3028 1.36721 12.2888 1.36409 12.2731 1.36096C12.281 1.36253 12.2888 1.36565 12.2966 1.36721C12.2684 1.36253 12.2388 1.35471 12.2106 1.35003C12.2403 1.35471 12.2684 1.36253 12.2966 1.36721H12.2919C8.49501 0.760965 4.9747 2.58596 3.96689 5.56096H3.96532L3.92939 5.64846C3.85126 5.84065 4.26532 6.18909 4.85595 6.42815C5.3622 6.63284 5.83251 6.68909 6.00595 6.58128C5.97626 6.8469 6.56376 7.23128 7.35439 7.45628C8.15126 7.68284 8.85751 7.66253 8.96689 7.41565C9.10751 7.79221 9.98251 8.21096 11.0903 8.40628C12.1966 8.60159 13.1638 8.50628 13.4247 8.20159C13.4434 8.47034 14.0997 8.72971 14.9263 8.78909C15.7356 8.8469 16.4106 8.69221 16.4903 8.43909C16.631 8.59221 17.081 8.69378 17.6122 8.67503C18.2481 8.65159 18.7575 8.46565 18.7497 8.25784Z" fill="url(#paint4_radial)"/>
  <path opacity="0.2" d="M10.8403 1.72034C11.2966 1.72034 11.7606 1.75784 12.2169 1.82971L12.2325 1.83284L12.2419 1.8344H12.2528C12.2544 1.8344 12.2575 1.83596 12.2591 1.83596L12.2653 1.83752L12.2544 1.8344L12.2731 1.83909L12.2872 1.84221L12.306 1.8469C14.0169 2.1844 15.5653 3.01877 16.6622 4.19846C17.7184 5.3344 18.2903 6.71252 18.2763 8.08909C18.1528 8.13596 17.92 8.19377 17.595 8.20471C17.5575 8.20627 17.5216 8.20627 17.4841 8.20627C17.1153 8.20627 16.8856 8.14065 16.82 8.10471L16.2872 7.52502L16.07 8.21409C15.9653 8.26252 15.6934 8.33284 15.2622 8.33284C15.1638 8.33284 15.0622 8.32971 14.9606 8.3219C14.4059 8.28127 14.0247 8.14846 13.8856 8.06252L13.8122 7.02971L13.0731 7.89221C13.0231 7.93284 12.7622 8.03909 12.1872 8.03909C11.8747 8.03909 11.5231 8.00627 11.1731 7.94534C10.1138 7.7594 9.49345 7.39377 9.40595 7.2469L9.00595 6.17346L8.58407 7.12659C8.54189 7.13596 8.47157 7.14534 8.36376 7.14534C8.11376 7.14534 7.80282 7.09534 7.48407 7.00627C6.94814 6.85471 6.5997 6.64534 6.48407 6.53284L6.58095 5.67034L5.78876 6.16565C5.77939 6.16721 5.76376 6.16721 5.74189 6.16721C5.60439 6.16721 5.34657 6.1219 5.03095 5.99377C4.72939 5.8719 4.53095 5.73909 4.43095 5.65159C5.2622 3.29846 7.82782 1.72034 10.8403 1.72034ZM10.8403 1.25159C7.62782 1.25159 4.84345 2.97034 3.96689 5.56096H3.96532L3.92939 5.64846C3.85126 5.84065 4.26532 6.18909 4.85595 6.42815C5.19345 6.56409 5.51376 6.6344 5.74189 6.6344C5.85595 6.6344 5.94814 6.61721 6.00595 6.57971C5.97626 6.84534 6.56376 7.22971 7.35439 7.45471C7.72626 7.56096 8.07939 7.61252 8.36064 7.61252C8.68095 7.61252 8.90751 7.54534 8.96532 7.41409C9.10595 7.79065 9.98095 8.2094 11.0888 8.40471C11.4794 8.47346 11.8528 8.50627 12.1841 8.50627C12.7903 8.50627 13.2544 8.3969 13.4231 8.20002C13.4419 8.46877 14.0981 8.72815 14.9247 8.78753C15.0403 8.79534 15.1528 8.80002 15.2606 8.80002C15.9138 8.80002 16.42 8.65471 16.4888 8.43752C16.6184 8.57815 17.0091 8.67502 17.4825 8.67502C17.5247 8.67502 17.5669 8.67502 17.6091 8.67346C18.2466 8.65002 18.7559 8.46409 18.7466 8.25784L18.7434 8.16409H18.7419C18.8138 5.03596 16.1481 2.12659 12.3934 1.38752C12.3872 1.38596 12.3809 1.3844 12.3763 1.3844C12.3716 1.38284 12.3669 1.38284 12.3622 1.38127C12.3872 1.38596 12.4122 1.38752 12.4372 1.39221C12.4153 1.38909 12.3934 1.38596 12.3716 1.38127C12.3778 1.38284 12.3841 1.38284 12.3903 1.38284C12.3763 1.37971 12.3622 1.37971 12.3497 1.37659L12.3325 1.3719C12.3263 1.37034 12.32 1.37034 12.3138 1.37034C12.2997 1.36721 12.2856 1.36409 12.27 1.36096C12.2778 1.36252 12.2856 1.36565 12.2934 1.36721C12.2653 1.36252 12.2356 1.35471 12.2075 1.35002C12.2372 1.35471 12.2653 1.36252 12.2934 1.36721H12.2888C11.8013 1.29065 11.3153 1.25159 10.8403 1.25159Z" fill="#424242"/>
  <path d="M16.5058 8.27496C16.9511 4.96246 15.123 2.12496 12.3448 1.56871C12.3398 1.56692 12.3345 1.56587 12.3292 1.56558C12.3386 1.56714 12.3495 1.56714 12.3589 1.56871C12.3448 1.56558 12.3308 1.56558 12.3183 1.56246L12.3011 1.55777C12.2948 1.55621 12.2886 1.55621 12.2823 1.55621C12.2683 1.55308 12.2542 1.54996 12.2386 1.54683C12.2495 1.54839 12.2589 1.55152 12.2683 1.55464C12.2636 1.55464 12.2605 1.55464 12.2558 1.55308C9.45421 1.12339 6.76202 3.16558 6.0464 6.43277L6.01046 6.55308C5.9339 6.81871 6.53702 7.22339 7.35577 7.45621C8.15265 7.68277 8.8589 7.66246 8.96827 7.41558C9.1089 7.79214 9.9839 8.21089 11.0917 8.40621C12.198 8.60152 13.1651 8.50621 13.4261 8.20152C13.4448 8.47027 14.1011 8.72964 14.9276 8.78902C15.7776 8.84996 16.4823 8.67652 16.5011 8.39996L16.5058 8.27496Z" fill="url(#paint5_linear)"/>
  <path opacity="0.2" d="M12.2339 1.92808L12.2448 1.92964L12.2511 1.93121H12.2526L12.2448 1.92964L12.2558 1.93277L12.2605 1.93433L12.273 1.93746C14.8386 2.45152 16.5526 5.10933 16.1339 8.22496L16.1308 8.25621L16.1292 8.29214C15.987 8.36714 15.5667 8.45933 14.9542 8.41558C14.8089 8.40464 14.6667 8.38746 14.5323 8.36402C14.1136 8.29058 13.8761 8.17496 13.7964 8.11402L13.0823 7.68433L13.1401 7.95777C13.0417 8.06714 12.3308 8.24371 11.1573 8.03746C9.9839 7.83121 9.37608 7.42183 9.3214 7.28589L9.53858 6.98902L8.64952 7.20777C8.55421 7.23902 8.29171 7.26558 7.87296 7.19214C7.73702 7.16871 7.59796 7.13589 7.4589 7.09683C6.86671 6.92964 6.50577 6.69839 6.3964 6.57964L6.40577 6.54371L6.41046 6.52964L6.41358 6.51402C7.08702 3.44058 9.61046 1.52808 12.1995 1.92496L12.2042 1.92652H12.2089L12.2261 1.92808H12.2339ZM12.3589 1.56871C12.3448 1.56558 12.3308 1.56558 12.3183 1.56246L12.3011 1.55777C12.2948 1.55621 12.2886 1.55621 12.2823 1.55621C12.2683 1.55308 12.2542 1.54996 12.2386 1.54683C12.2495 1.54839 12.2589 1.55152 12.2683 1.55464C12.2636 1.55464 12.2605 1.55464 12.2558 1.55308C9.45421 1.12339 6.76202 3.16558 6.0464 6.43277L6.01046 6.55308C5.9339 6.81871 6.53702 7.22339 7.35577 7.45621C7.51046 7.49996 7.66358 7.53433 7.80733 7.56089C8.40577 7.66558 8.88077 7.61402 8.96827 7.41558C9.1089 7.79214 9.9839 8.21089 11.0917 8.40621C12.198 8.60152 13.1651 8.50621 13.4261 8.20152C13.4417 8.41714 13.8698 8.62808 14.4667 8.73277C14.612 8.75777 14.7651 8.77808 14.9261 8.78902C15.7761 8.84996 16.4808 8.67652 16.4995 8.39996L16.5058 8.27496C16.9511 4.96246 15.123 2.12496 12.3448 1.56871C12.3398 1.56692 12.3345 1.56587 12.3292 1.56558C12.3401 1.56558 12.3495 1.56558 12.3589 1.56871Z" fill="#424242"/>
  <path d="M13.5225 7.88438C14.0866 4.48595 13.5647 1.58907 12.3335 1.37188C11.1007 1.15626 9.61786 3.70001 8.98504 7.08595H8.98192L8.94911 7.27032C8.87723 7.67657 9.83505 8.18595 11.0897 8.40782C12.3444 8.62813 13.4179 8.47814 13.4897 8.07032L13.4975 8.02188C13.4991 8.02032 13.5225 7.88438 13.5225 7.88438Z" fill="url(#paint6_radial)"/>
  <path opacity="0.2" d="M12.185 1.82812C12.2085 1.82812 12.2304 1.82969 12.2522 1.83437C12.9819 1.9625 13.6429 4.29844 13.0616 7.80781C13.0616 7.80781 13.0507 7.87344 13.0444 7.9125C12.9507 7.95937 12.6897 8.04062 12.1882 8.04062C11.8757 8.04062 11.5241 8.00781 11.1725 7.94531C10.1804 7.77031 9.57254 7.44063 9.42723 7.27813L9.44754 7.17344C9.73192 5.65156 10.2038 4.25313 10.7741 3.23438C11.3507 2.19688 11.8819 1.82812 12.185 1.82812ZM12.185 1.35938C10.985 1.35938 9.59286 3.83437 8.98504 7.08594H8.98192L8.94911 7.27031C8.87723 7.67656 9.83505 8.18594 11.0897 8.40781C11.4819 8.47656 11.8554 8.50937 12.1866 8.50937C12.9163 8.50937 13.4413 8.35 13.4897 8.07031L13.4975 8.02187L13.521 7.88594C14.085 4.4875 13.5632 1.59063 12.3319 1.37344C12.2835 1.36406 12.2335 1.35938 12.185 1.35938Z" fill="#424242"/>
  <defs>
    <linearGradient id="paint0_linear" x1="10" y1="14.3647" x2="10" y2="18.3375" gradientUnits="userSpaceOnUse">
      <stop stop-color="#FFE082"/>
      <stop offset="0.314" stop-color="#FFD965"/>
      <stop offset="1" stop-color="#FFCA28"/>
    </linearGradient>
    <linearGradient id="paint1_linear" x1="10" y1="9.98776" x2="10" y2="14.5604" gradientUnits="userSpaceOnUse">
      <stop stop-color="#00ACC1"/>
      <stop offset="0.075" stop-color="#13B1C4"/>
      <stop offset="0.433" stop-color="#68CAD0"/>
      <stop offset="0.685" stop-color="#9DD9D8"/>
      <stop offset="0.808" stop-color="#B2DFDB"/>
      <stop offset="1" stop-color="#B2DFDB"/>
    </linearGradient>
    <linearGradient id="paint2_linear" x1="4.43469" y1="14.9678" x2="4.43469" y2="17.6687" gradientUnits="userSpaceOnUse">
      <stop stop-color="#FF9E80"/>
      <stop offset="1" stop-color="#FF3D00"/>
    </linearGradient>
    <linearGradient id="paint3_linear" x1="10.9779" y1="14.7816" x2="10.9779" y2="7.49218" gradientUnits="userSpaceOnUse">
      <stop stop-color="#EF5350"/>
      <stop offset="1" stop-color="#E53935"/>
    </linearGradient>
    <radialGradient id="paint4_radial" cx="0" cy="0" r="1" gradientUnits="userSpaceOnUse" gradientTransform="translate(12.3174 1.12986) scale(7.49594 7.49894)">
      <stop stop-color="#EF5350"/>
      <stop offset="1" stop-color="#D32F2F"/>
    </radialGradient>
    <linearGradient id="paint5_linear" x1="11.2873" y1="4.54277" x2="11.2873" y2="10.1186" gradientUnits="userSpaceOnUse">
      <stop stop-color="#F5F5F5"/>
      <stop offset="1" stop-color="#BDBDBD"/>
    </linearGradient>
    <radialGradient id="paint6_radial" cx="0" cy="0" r="1" gradientUnits="userSpaceOnUse" gradientTransform="translate(12.1346 1.28615) scale(7.05453 7.05735)">
      <stop stop-color="#EF5350"/>
      <stop offset="1" stop-color="#D32F2F"/>
    </radialGradient>
  </defs>
</svg>
