<svg width="20" height="20" viewBox="0 0 20 20" fill="none" xmlns="http://www.w3.org/2000/svg">
  <path d="M19.375 19.375H0.625V3.75C0.625 3.40469 0.904687 3.125 1.25 3.125H18.75C19.0953 3.125 19.375 3.40469 19.375 3.75V19.375Z" fill="url(#paint0_radial)"/>
  <path d="M0.625 15.625H19.375V19.375H0.625V15.625Z" fill="#9E9E9E"/>
  <path d="M16.875 3.125H19.375V19.375H16.875V3.125Z" fill="url(#paint1_linear)"/>
  <path d="M0.625 19.375H3.125V3.125H0.625V19.375Z" fill="url(#paint2_linear)"/>
  <path d="M17.8125 7.5H16.5625C16.3906 7.5 16.25 7.35938 16.25 7.1875V5.9375C16.25 5.76562 16.3906 5.625 16.5625 5.625H17.8125C17.9844 5.625 18.125 5.76562 18.125 5.9375V7.1875C18.125 7.35938 17.9844 7.5 17.8125 7.5Z" fill="#4FC3F7"/>
  <path d="M17.8125 10.625H16.5625C16.3906 10.625 16.25 10.4844 16.25 10.3125V9.0625C16.25 8.89062 16.3906 8.75 16.5625 8.75H17.8125C17.9844 8.75 18.125 8.89062 18.125 9.0625V10.3125C18.125 10.4844 17.9844 10.625 17.8125 10.625Z" fill="#4FC3F7"/>
  <path d="M17.8125 13.75H16.5625C16.3906 13.75 16.25 13.6094 16.25 13.4375V12.1875C16.25 12.0156 16.3906 11.875 16.5625 11.875H17.8125C17.9844 11.875 18.125 12.0156 18.125 12.1875V13.4375C18.125 13.6094 17.9844 13.75 17.8125 13.75Z" fill="#4FC3F7"/>
  <path d="M3.4375 7.5H2.1875C2.01562 7.5 1.875 7.35938 1.875 7.1875V5.9375C1.875 5.76562 2.01562 5.625 2.1875 5.625H3.4375C3.60938 5.625 3.75 5.76562 3.75 5.9375V7.1875C3.75 7.35938 3.60938 7.5 3.4375 7.5Z" fill="#4FC3F7"/>
  <path d="M3.4375 10.625H2.1875C2.01562 10.625 1.875 10.4844 1.875 10.3125V9.0625C1.875 8.89062 2.01562 8.75 2.1875 8.75H3.4375C3.60938 8.75 3.75 8.89062 3.75 9.0625V10.3125C3.75 10.4844 3.60938 10.625 3.4375 10.625Z" fill="#4FC3F7"/>
  <path d="M3.4375 13.75H2.1875C2.01562 13.75 1.875 13.6094 1.875 13.4375V12.1875C1.875 12.0156 2.01562 11.875 2.1875 11.875H3.4375C3.60938 11.875 3.75 12.0156 3.75 12.1875V13.4375C3.75 13.6094 3.60938 13.75 3.4375 13.75Z" fill="#4FC3F7"/>
  <path opacity="0.2" d="M18.75 3.59375C18.8359 3.59375 18.9062 3.66406 18.9062 3.75V18.9062H1.09375V3.75C1.09375 3.66406 1.16406 3.59375 1.25 3.59375H18.75ZM18.75 3.125H1.25C0.904687 3.125 0.625 3.40469 0.625 3.75V19.375H19.375V3.75C19.375 3.40469 19.0953 3.125 18.75 3.125Z" fill="#424242"/>
  <path d="M16.875 19.375H3.125V1.25C3.125 0.904687 3.40469 0.625 3.75 0.625H16.25C16.5953 0.625 16.875 0.904687 16.875 1.25V19.375Z" fill="url(#paint3_radial)"/>
  <path d="M15.3125 16.2891H4.6875C4.51562 16.2891 4.375 16.1484 4.375 15.9766H15.625C15.625 16.1484 15.4844 16.2891 15.3125 16.2891Z" fill="#9E9E9E"/>
  <path d="M15.625 16.0547H4.375V15.7422C4.375 15.6562 4.44531 15.5859 4.53125 15.5859H15.4688C15.5547 15.5859 15.625 15.6562 15.625 15.7422V16.0547Z" fill="#EEEEEE"/>
  <path d="M6.875 14.375H5.625C5.45312 14.375 5.3125 14.2344 5.3125 14.0625V12.8125C5.3125 12.6406 5.45312 12.5 5.625 12.5H6.875C7.04688 12.5 7.1875 12.6406 7.1875 12.8125V14.0625C7.1875 14.2344 7.04688 14.375 6.875 14.375Z" fill="#4FC3F7"/>
  <path d="M10.625 14.375H9.375C9.20312 14.375 9.0625 14.2344 9.0625 14.0625V12.8125C9.0625 12.6406 9.20312 12.5 9.375 12.5H10.625C10.7969 12.5 10.9375 12.6406 10.9375 12.8125V14.0625C10.9375 14.2344 10.7969 14.375 10.625 14.375Z" fill="#4FC3F7"/>
  <path d="M14.375 14.375H13.125C12.9531 14.375 12.8125 14.2344 12.8125 14.0625V12.8125C12.8125 12.6406 12.9531 12.5 13.125 12.5H14.375C14.5469 12.5 14.6875 12.6406 14.6875 12.8125V14.0625C14.6875 14.2344 14.5469 14.375 14.375 14.375Z" fill="#4FC3F7"/>
  <path d="M6.875 11.25H5.625C5.45312 11.25 5.3125 11.1094 5.3125 10.9375V9.6875C5.3125 9.51562 5.45312 9.375 5.625 9.375H6.875C7.04688 9.375 7.1875 9.51562 7.1875 9.6875V10.9375C7.1875 11.1094 7.04688 11.25 6.875 11.25Z" fill="#4FC3F7"/>
  <path d="M10.625 11.25H9.375C9.20312 11.25 9.0625 11.1094 9.0625 10.9375V9.6875C9.0625 9.51562 9.20312 9.375 9.375 9.375H10.625C10.7969 9.375 10.9375 9.51562 10.9375 9.6875V10.9375C10.9375 11.1094 10.7969 11.25 10.625 11.25Z" fill="#4FC3F7"/>
  <path d="M14.375 11.25H13.125C12.9531 11.25 12.8125 11.1094 12.8125 10.9375V9.6875C12.8125 9.51562 12.9531 9.375 13.125 9.375H14.375C14.5469 9.375 14.6875 9.51562 14.6875 9.6875V10.9375C14.6875 11.1094 14.5469 11.25 14.375 11.25Z" fill="#4FC3F7"/>
  <path d="M6.875 8.125H5.625C5.45312 8.125 5.3125 7.98438 5.3125 7.8125V6.5625C5.3125 6.39062 5.45312 6.25 5.625 6.25H6.875C7.04688 6.25 7.1875 6.39062 7.1875 6.5625V7.8125C7.1875 7.98438 7.04688 8.125 6.875 8.125Z" fill="#4FC3F7"/>
  <path d="M10.625 8.125H9.375C9.20312 8.125 9.0625 7.98438 9.0625 7.8125V6.5625C9.0625 6.39062 9.20312 6.25 9.375 6.25H10.625C10.7969 6.25 10.9375 6.39062 10.9375 6.5625V7.8125C10.9375 7.98438 10.7969 8.125 10.625 8.125Z" fill="#4FC3F7"/>
  <path d="M14.375 8.125H13.125C12.9531 8.125 12.8125 7.98438 12.8125 7.8125V6.5625C12.8125 6.39062 12.9531 6.25 13.125 6.25H14.375C14.5469 6.25 14.6875 6.39062 14.6875 6.5625V7.8125C14.6875 7.98438 14.5469 8.125 14.375 8.125Z" fill="#4FC3F7"/>
  <path d="M6.875 5H5.625C5.45312 5 5.3125 4.85938 5.3125 4.6875V3.4375C5.3125 3.26562 5.45312 3.125 5.625 3.125H6.875C7.04688 3.125 7.1875 3.26562 7.1875 3.4375V4.6875C7.1875 4.85938 7.04688 5 6.875 5Z" fill="#4FC3F7"/>
  <path d="M10.625 5H9.375C9.20312 5 9.0625 4.85938 9.0625 4.6875V3.4375C9.0625 3.26562 9.20312 3.125 9.375 3.125H10.625C10.7969 3.125 10.9375 3.26562 10.9375 3.4375V4.6875C10.9375 4.85938 10.7969 5 10.625 5Z" fill="#4FC3F7"/>
  <path d="M14.375 5H13.125C12.9531 5 12.8125 4.85938 12.8125 4.6875V3.4375C12.8125 3.26562 12.9531 3.125 13.125 3.125H14.375C14.5469 3.125 14.6875 3.26562 14.6875 3.4375V4.6875C14.6875 4.85938 14.5469 5 14.375 5Z" fill="#4FC3F7"/>
  <path d="M5 16.25H7.5V19.375H5V16.25Z" fill="#4FC3F7"/>
  <g opacity="0.2">
    <path opacity="0.2" d="M5 16.25H5.3125V19.375H5V16.25Z" fill="#424242"/>
    <path opacity="0.2" d="M7.1875 16.25H7.5V19.375H7.1875V16.25Z" fill="#424242"/>
  </g>
  <path d="M8.75 16.25H11.25V19.375H8.75V16.25Z" fill="#4FC3F7"/>
  <g opacity="0.2">
    <path opacity="0.2" d="M8.75 16.25H9.0625V19.375H8.75V16.25Z" fill="#424242"/>
    <path opacity="0.2" d="M10.9375 16.25H11.25V19.375H10.9375V16.25Z" fill="#424242"/>
  </g>
  <path d="M12.5 16.25H15V19.375H12.5V16.25Z" fill="#4FC3F7"/>
  <g opacity="0.2">
    <path opacity="0.2" d="M12.5 16.25H12.8125V19.375H12.5V16.25Z" fill="#424242"/>
    <path opacity="0.2" d="M14.6875 16.25H15V19.375H14.6875V16.25Z" fill="#424242"/>
  </g>
  <path opacity="0.2" d="M16.25 1.09375C16.3359 1.09375 16.4062 1.16406 16.4062 1.25V18.9062H3.59375V1.25C3.59375 1.16406 3.66406 1.09375 3.75 1.09375H16.25ZM16.25 0.625H3.75C3.40469 0.625 3.125 0.904687 3.125 1.25V19.375H16.875V1.25C16.875 0.904687 16.5953 0.625 16.25 0.625Z" fill="#424242"/>
  <defs>
    <radialGradient id="paint0_radial" cx="0" cy="0" r="1" gradientUnits="userSpaceOnUse" gradientTransform="translate(10.0781 3.86719) scale(12.5445)">
      <stop offset="0.057" stop-color="#EEEEEE"/>
      <stop offset="0.337" stop-color="#EAEAEA"/>
      <stop offset="0.596" stop-color="#DFDFDF"/>
      <stop offset="0.847" stop-color="#CCCCCC"/>
      <stop offset="1" stop-color="#BDBDBD"/>
    </radialGradient>
    <linearGradient id="paint1_linear" x1="16.875" y1="11.25" x2="19.375" y2="11.25" gradientUnits="userSpaceOnUse">
      <stop stop-color="#757575"/>
      <stop offset="0.103" stop-color="#757575" stop-opacity="0.897"/>
      <stop offset="1" stop-color="#757575" stop-opacity="0"/>
    </linearGradient>
    <linearGradient id="paint2_linear" x1="3.125" y1="11.25" x2="0.625" y2="11.25" gradientUnits="userSpaceOnUse">
      <stop stop-color="#757575"/>
      <stop offset="0.103" stop-color="#757575" stop-opacity="0.897"/>
      <stop offset="1" stop-color="#757575" stop-opacity="0"/>
    </linearGradient>
    <radialGradient id="paint3_radial" cx="0" cy="0" r="1" gradientUnits="userSpaceOnUse" gradientTransform="translate(10 2.46094) scale(16.7937)">
      <stop offset="0.057" stop-color="#EEEEEE"/>
      <stop offset="0.337" stop-color="#EAEAEA"/>
      <stop offset="0.596" stop-color="#DFDFDF"/>
      <stop offset="0.847" stop-color="#CCCCCC"/>
      <stop offset="1" stop-color="#BDBDBD"/>
    </radialGradient>
  </defs>
</svg>
