<svg width="20" height="20" viewBox="0 0 20 20" fill="none" xmlns="http://www.w3.org/2000/svg">
  <path d="M10 1.25L1.25 8.75H1.875V19.0625H18.125V8.75H18.75L10 1.25Z" fill="url(#paint0_radial)"/>
  <path opacity="0.2" d="M10 1.86719L17.7313 8.49375C17.6844 8.56875 17.6562 8.65625 17.6562 8.75V18.5938H2.34375V8.75C2.34375 8.65625 2.31563 8.56875 2.26875 8.49531L10 1.86719ZM10 1.25L1.25 8.75H1.875V19.0625H18.125V8.75H18.75L10 1.25Z" fill="#424242"/>
  <path d="M19.375 19.375H3.125V18.125H18.75C19.0953 18.125 19.375 18.4047 19.375 18.75V19.375Z" fill="#689F38"/>
  <path opacity="0.2" d="M18.75 18.5938C18.8359 18.5938 18.9062 18.6641 18.9062 18.75V18.9062H3.59375V18.5938H18.75ZM18.75 18.125H3.125V19.375H19.375V18.75C19.375 18.4047 19.0953 18.125 18.75 18.125Z" fill="#424242"/>
  <path opacity="0.2" d="M11.4062 4.6875C11.5781 4.6875 11.7188 4.82812 11.7188 5V7.8125C11.7188 7.98438 11.5781 8.125 11.4062 8.125H8.59375C8.42188 8.125 8.28125 7.98438 8.28125 7.8125V5C8.28125 4.82812 8.42188 4.6875 8.59375 4.6875H11.4062ZM11.4062 4.375H8.59375C8.24844 4.375 7.96875 4.65469 7.96875 5V7.8125C7.96875 8.15781 8.24844 8.4375 8.59375 8.4375H11.4062C11.7516 8.4375 12.0312 8.15781 12.0312 7.8125V5C12.0312 4.65469 11.7516 4.375 11.4062 4.375Z" fill="#424242"/>
  <path opacity="0.2" d="M15.3125 10C15.4844 10 15.625 10.1406 15.625 10.3125V14.6875C15.625 14.8594 15.4844 15 15.3125 15H12.5C12.3281 15 12.1875 14.8594 12.1875 14.6875V10.3125C12.1875 10.1406 12.3281 10 12.5 10H15.3125ZM15.3125 9.6875H12.5C12.1547 9.6875 11.875 9.96719 11.875 10.3125V14.6875C11.875 15.0328 12.1547 15.3125 12.5 15.3125H15.3125C15.6578 15.3125 15.9375 15.0328 15.9375 14.6875V10.3125C15.9375 9.96719 15.6578 9.6875 15.3125 9.6875Z" fill="#424242"/>
  <path d="M10 17.5H4.375V9.6875C4.375 9.51562 4.51562 9.375 4.6875 9.375H9.6875C9.85938 9.375 10 9.51562 10 9.6875V17.5Z" fill="url(#paint1_radial)"/>
  <path d="M9.375 17.1203H5C4.91406 17.1203 4.84375 17.0499 4.84375 16.964V9.91089C4.84375 9.82495 4.91406 9.75464 5 9.75464H9.375C9.46094 9.75464 9.53125 9.82495 9.53125 9.91089V16.964C9.53125 17.0499 9.46094 17.1203 9.375 17.1203Z" fill="url(#paint2_radial)"/>
  <path d="M8.51562 4.92188H11.4844V7.89062H8.51562V4.92188Z" fill="#4FC3F7"/>
  <path d="M8.28125 5V7.8125C8.28125 7.98438 8.42188 8.125 8.59375 8.125H11.4062C11.5781 8.125 11.7188 7.98438 11.7188 7.8125V5C11.7188 4.82812 11.5781 4.6875 11.4062 4.6875H8.59375C8.42188 4.6875 8.28125 4.82812 8.28125 5ZM11.4062 6.25H10.1562V5H11.4062V6.25ZM9.84375 5V6.25H8.59375V5H9.84375ZM8.59375 6.5625H9.84375V7.8125H8.59375V6.5625ZM10.1562 7.8125V6.5625H11.4062V7.8125H10.1562Z" fill="#EEEEEE"/>
  <path d="M12.3477 10.2344H15.4633V14.7656H12.3477V10.2344Z" fill="#4FC3F7"/>
  <path d="M8.90625 12.8125H5.46875C5.38281 12.8125 5.3125 12.7422 5.3125 12.6562V10.4688C5.3125 10.3828 5.38281 10.3125 5.46875 10.3125H8.90625C8.99219 10.3125 9.0625 10.3828 9.0625 10.4688V12.6562C9.0625 12.7422 8.99219 12.8125 8.90625 12.8125Z" fill="url(#paint3_radial)"/>
  <path d="M8.90625 16.5625H5.46875C5.38281 16.5625 5.3125 16.4922 5.3125 16.4062V13.5938C5.3125 13.5078 5.38281 13.4375 5.46875 13.4375H8.90625C8.99219 13.4375 9.0625 13.5078 9.0625 13.5938V16.4062C9.0625 16.4922 8.99219 16.5625 8.90625 16.5625Z" fill="url(#paint4_radial)"/>
  <path d="M10.6289 18.0187H3.75391V17.4468C3.75391 17.3959 3.76393 17.3455 3.7834 17.2985C3.80288 17.2515 3.83142 17.2088 3.8674 17.1728C3.90339 17.1368 3.9461 17.1083 3.99312 17.0888C4.04013 17.0693 4.09052 17.0593 4.14141 17.0593H10.243C10.3457 17.0593 10.4443 17.1002 10.517 17.1728C10.5896 17.2455 10.6305 17.3441 10.6305 17.4468V18.0187H10.6289Z" fill="url(#paint5_linear)"/>
  <path opacity="0.3" d="M10.243 17.2156C10.3695 17.2156 10.4742 17.3187 10.4742 17.4468V17.8624H3.91172V17.4468C3.91172 17.3203 4.01484 17.2156 4.14297 17.2156H10.243ZM10.243 17.0593H4.14141C4.03863 17.0593 3.94007 17.1002 3.8674 17.1728C3.79473 17.2455 3.75391 17.3441 3.75391 17.4468V18.0187H10.6289V17.4468C10.6289 17.2328 10.4555 17.0593 10.243 17.0593Z" fill="#263238"/>
  <path d="M11.2539 18.9094H3.12891V18.2531C3.12891 18.0281 3.31172 17.8453 3.53672 17.8453H10.8461C11.0711 17.8453 11.2539 18.0281 11.2539 18.2531V18.9094Z" fill="url(#paint6_linear)"/>
  <path opacity="0.3" d="M10.8461 18.0016C10.9852 18.0016 11.0977 18.1141 11.0977 18.2531V18.7531H3.28516V18.2531C3.28516 18.1141 3.39766 18.0016 3.53672 18.0016H10.8461ZM10.8461 17.8453H3.53672C3.31172 17.8453 3.12891 18.0281 3.12891 18.2531V18.9094H11.2539V18.2531C11.2539 18.0281 11.0727 17.8453 10.8461 17.8453Z" fill="#263238"/>
  <path opacity="0.2" d="M6.95821 17.4483C6.97275 17.4141 6.92983 17.3632 6.86234 17.3344C6.79486 17.3057 6.72836 17.3101 6.71383 17.3442C6.69929 17.3783 6.74221 17.4293 6.80969 17.458C6.87718 17.4868 6.94367 17.4824 6.95821 17.4483Z" fill="#424242"/>
  <path opacity="0.2" d="M9.90256 17.7582C9.92323 17.7327 9.90197 17.6812 9.85507 17.6431C9.80818 17.6051 9.75341 17.5948 9.73274 17.6203C9.71207 17.6457 9.73333 17.6972 9.78022 17.7353C9.82712 17.7734 9.88189 17.7836 9.90256 17.7582Z" fill="#424242"/>
  <path opacity="0.08" d="M7.2332 17.7047C7.32209 17.7047 7.39414 17.6697 7.39414 17.6266C7.39414 17.5834 7.32209 17.5485 7.2332 17.5485C7.14432 17.5485 7.07227 17.5834 7.07227 17.6266C7.07227 17.6697 7.14432 17.7047 7.2332 17.7047Z" fill="#424242"/>
  <path opacity="0.08" d="M8.62187 17.6937C8.71076 17.6937 8.78281 17.6587 8.78281 17.6156C8.78281 17.5725 8.71076 17.5375 8.62187 17.5375C8.53299 17.5375 8.46094 17.5725 8.46094 17.6156C8.46094 17.6587 8.53299 17.6937 8.62187 17.6937Z" fill="#424242"/>
  <path opacity="0.08" d="M8.28867 17.4844C8.34994 17.4844 8.39961 17.4543 8.39961 17.4172C8.39961 17.3801 8.34994 17.35 8.28867 17.35C8.2274 17.35 8.17773 17.3801 8.17773 17.4172C8.17773 17.4543 8.2274 17.4844 8.28867 17.4844Z" fill="#424242"/>
  <path opacity="0.08" d="M10.093 17.5407C10.181 17.5407 10.2523 17.4973 10.2523 17.4438C10.2523 17.3903 10.181 17.3469 10.093 17.3469C10.0049 17.3469 9.93359 17.3903 9.93359 17.4438C9.93359 17.4973 10.0049 17.5407 10.093 17.5407Z" fill="#424242"/>
  <path opacity="0.08" d="M6.27109 17.4454C6.33236 17.4454 6.38203 17.4216 6.38203 17.3922C6.38203 17.3629 6.33236 17.3391 6.27109 17.3391C6.20982 17.3391 6.16016 17.3629 6.16016 17.3922C6.16016 17.4216 6.20982 17.4454 6.27109 17.4454Z" fill="#424242"/>
  <path opacity="0.08" d="M9.46116 17.579C9.56015 17.5641 9.63455 17.5133 9.62735 17.4655C9.62015 17.4177 9.53407 17.3911 9.43509 17.406C9.3361 17.4209 9.2617 17.4717 9.2689 17.5195C9.2761 17.5673 9.36218 17.5939 9.46116 17.579Z" fill="#424242"/>
  <path opacity="0.2" d="M6.54437 17.6922C6.63846 17.6701 6.70577 17.6141 6.69472 17.567C6.68367 17.52 6.59844 17.4998 6.50435 17.5219C6.41026 17.544 6.34294 17.6 6.354 17.6471C6.36505 17.6941 6.45028 17.7143 6.54437 17.6922Z" fill="#424242"/>
  <path opacity="0.2" d="M8.90742 17.4734C9.02996 17.4734 9.1293 17.437 9.1293 17.3922C9.1293 17.3473 9.02996 17.3109 8.90742 17.3109C8.78488 17.3109 8.68555 17.3473 8.68555 17.3922C8.68555 17.437 8.78488 17.4734 8.90742 17.4734Z" fill="#424242"/>
  <path opacity="0.2" d="M7.61114 17.4017C7.67311 17.3608 7.70871 17.3055 7.69067 17.2782C7.67262 17.2508 7.60776 17.2617 7.54579 17.3025C7.48383 17.3434 7.44822 17.3987 7.46627 17.426C7.48431 17.4534 7.54917 17.4425 7.61114 17.4017Z" fill="#424242"/>
  <path opacity="0.2" d="M8.19224 17.6992C8.21323 17.6538 8.13626 17.5735 8.02032 17.52C7.90438 17.4664 7.79338 17.4598 7.77238 17.5053C7.75139 17.5507 7.82836 17.6309 7.9443 17.6845C8.06024 17.7381 8.17125 17.7447 8.19224 17.6992Z" fill="#424242"/>
  <path opacity="0.2" d="M10.1278 18.3227C10.2032 18.2953 10.2541 18.2448 10.2414 18.2099C10.2287 18.175 10.1573 18.169 10.0819 18.1964C10.0065 18.2239 9.95559 18.2744 9.96828 18.3092C9.98096 18.3441 10.0524 18.3501 10.1278 18.3227Z" fill="#424242"/>
  <path opacity="0.2" d="M6.85103 18.6018C6.9045 18.5653 6.93247 18.5132 6.9135 18.4854C6.89454 18.4576 6.83582 18.4646 6.78235 18.5011C6.72889 18.5376 6.70092 18.5897 6.71989 18.6175C6.73885 18.6453 6.79757 18.6383 6.85103 18.6018Z" fill="#424242"/>
  <path opacity="0.08" d="M9.66836 18.5671C9.76674 18.5671 9.84648 18.5322 9.84648 18.489C9.84648 18.4459 9.76674 18.4109 9.66836 18.4109C9.56998 18.4109 9.49023 18.4459 9.49023 18.489C9.49023 18.5322 9.56998 18.5671 9.66836 18.5671Z" fill="#424242"/>
  <path opacity="0.08" d="M8.13711 18.5577C8.23549 18.5577 8.31524 18.5228 8.31524 18.4796C8.31524 18.4365 8.23549 18.4015 8.13711 18.4015C8.03873 18.4015 7.95898 18.4365 7.95898 18.4796C7.95898 18.5228 8.03873 18.5577 8.13711 18.5577Z" fill="#424242"/>
  <path opacity="0.08" d="M8.50469 18.3484C8.572 18.3484 8.62656 18.3183 8.62656 18.2812C8.62656 18.2441 8.572 18.214 8.50469 18.214C8.43738 18.214 8.38281 18.2441 8.38281 18.2812C8.38281 18.3183 8.43738 18.3484 8.50469 18.3484Z" fill="#424242"/>
  <path opacity="0.08" d="M6.51484 18.4047C6.61149 18.4047 6.68984 18.3613 6.68984 18.3078C6.68984 18.2543 6.61149 18.2109 6.51484 18.2109C6.41819 18.2109 6.33984 18.2543 6.33984 18.3078C6.33984 18.3613 6.41819 18.4047 6.51484 18.4047Z" fill="#424242"/>
  <path opacity="0.08" d="M10.7293 18.3094C10.7966 18.3094 10.8512 18.2856 10.8512 18.2562C10.8512 18.2269 10.7966 18.2031 10.7293 18.2031C10.662 18.2031 10.6074 18.2269 10.6074 18.2562C10.6074 18.2856 10.662 18.3094 10.7293 18.3094Z" fill="#424242"/>
  <path opacity="0.08" d="M7.42045 18.3815C7.42666 18.3336 7.34358 18.2834 7.23489 18.2693C7.1262 18.2552 7.03306 18.2827 7.02686 18.3306C7.02066 18.3785 7.10373 18.4288 7.21242 18.4428C7.32111 18.4569 7.41425 18.4295 7.42045 18.3815Z" fill="#424242"/>
  <path opacity="0.2" d="M10.6402 18.5096C10.6497 18.4622 10.573 18.4068 10.469 18.3859C10.3649 18.365 10.2728 18.3865 10.2633 18.4339C10.2538 18.4812 10.3305 18.5366 10.4345 18.5575C10.5386 18.5784 10.6307 18.5569 10.6402 18.5096Z" fill="#424242"/>
  <path opacity="0.2" d="M7.82188 18.3374C7.95649 18.3374 8.06563 18.3011 8.06563 18.2562C8.06563 18.2113 7.95649 18.1749 7.82188 18.1749C7.68726 18.1749 7.57812 18.2113 7.57812 18.2562C7.57812 18.3011 7.68726 18.3374 7.82188 18.3374Z" fill="#424242"/>
  <path opacity="0.2" d="M9.41265 18.289C9.42935 18.2598 9.38702 18.2042 9.31809 18.1648C9.24917 18.1254 9.17976 18.1171 9.16305 18.1463C9.14635 18.1755 9.18869 18.2312 9.25761 18.2706C9.32653 18.31 9.39595 18.3182 9.41265 18.289Z" fill="#424242"/>
  <path opacity="0.2" d="M8.87908 18.549C9.00704 18.4971 9.09526 18.4168 9.07613 18.3696C9.05701 18.3225 8.93777 18.3263 8.80981 18.3781C8.68186 18.43 8.59363 18.5103 8.61276 18.5575C8.63188 18.6047 8.75112 18.6009 8.87908 18.549Z" fill="#424242"/>
  <path d="M12.5 10C12.3281 10 12.1875 10.1406 12.1875 10.3125V14.6875C12.1875 14.8594 12.3281 15 12.5 15H15.3125C15.4844 15 15.625 14.8594 15.625 14.6875V10.3125C15.625 10.1406 15.4844 10 15.3125 10H12.5ZM14.0625 10.3125H15.3125V11.5625H14.0625V10.3125ZM12.5 10.3125H13.75V11.5625H12.5V10.3125ZM12.5 11.875H13.75V13.125H12.5V11.875ZM13.75 14.6875H12.5V13.4375H13.75V14.6875ZM15.3125 14.6875H14.0625V13.4375H15.3125V14.6875ZM14.0625 13.125V11.875H15.3125V13.125H14.0625Z" fill="#EEEEEE"/>
  <path d="M8.86328 13.9062C9.20846 13.9062 9.48828 13.6264 9.48828 13.2812C9.48828 12.9361 9.20846 12.6562 8.86328 12.6562C8.5181 12.6562 8.23828 12.9361 8.23828 13.2812C8.23828 13.6264 8.5181 13.9062 8.86328 13.9062Z" fill="#FFC107"/>
  <path d="M8.86328 12.8125C9.12266 12.8125 9.33203 13.0219 9.33203 13.2812C9.33203 13.5406 9.12266 13.75 8.86328 13.75C8.60391 13.75 8.39453 13.5406 8.39453 13.2812C8.39453 13.0219 8.60547 12.8125 8.86328 12.8125ZM8.86328 12.5C8.43203 12.5 8.08203 12.85 8.08203 13.2812C8.08203 13.7125 8.43203 14.0625 8.86328 14.0625C9.29453 14.0625 9.64453 13.7125 9.64453 13.2812C9.64453 12.85 9.29453 12.5 8.86328 12.5Z" fill="#C62828"/>
  <path d="M15.7812 15.625H12.0312C11.8594 15.625 11.7188 15.4844 11.7188 15.3125V14.6875C11.7188 14.5156 11.8594 14.375 12.0312 14.375H15.7812C15.9531 14.375 16.0938 14.5156 16.0938 14.6875V15.3125C16.0938 15.4844 15.9531 15.625 15.7812 15.625Z" fill="#795548"/>
  <path opacity="0.2" d="M15.7812 14.6875V15.3125H12.0312V14.6875H15.7812ZM15.7812 14.375H12.0312C11.8594 14.375 11.7188 14.5156 11.7188 14.6875V15.3125C11.7188 15.4844 11.8594 15.625 12.0312 15.625H15.7812C15.9531 15.625 16.0938 15.4844 16.0938 15.3125V14.6875C16.0938 14.5156 15.9531 14.375 15.7812 14.375Z" fill="#424242"/>
  <path d="M19.1056 8.31248L10.4993 0.812483C10.3608 0.691603 10.1832 0.625 9.99933 0.625C9.81548 0.625 9.63786 0.691603 9.49933 0.812483L0.893084 8.31248C0.571209 8.59373 0.533709 9.08592 0.810272 9.41405C1.08683 9.74217 1.57121 9.77967 1.89308 9.49842L9.69152 2.70311C9.86808 2.54998 10.1306 2.54998 10.3071 2.70311L18.1056 9.49842C18.1819 9.56502 18.2708 9.61569 18.367 9.64747C18.4633 9.67925 18.5648 9.6915 18.6658 9.6835C18.7668 9.67549 18.8652 9.6474 18.9552 9.60086C19.0452 9.55432 19.125 9.49028 19.19 9.41248C19.465 9.08748 19.4275 8.59373 19.1056 8.31248Z" fill="url(#paint7_radial)"/>
  <path d="M0.994725 19.2187C0.8916 19.2187 0.83535 19.1094 0.8166 19.0625C0.758788 18.9234 0.765038 18.7187 0.886913 18.5968C0.936913 18.5468 0.9416 18.4625 0.908788 18.4015C0.833788 18.2687 0.802538 18.1031 0.819725 17.9359C0.871288 17.414 1.27754 16.9828 1.80879 16.8859C1.88223 16.8734 1.95566 16.8656 2.0291 16.8656C2.12598 16.8656 2.22441 16.8781 2.31973 16.9015C2.35174 16.9095 2.38545 16.9071 2.41604 16.8948C2.44662 16.8824 2.47253 16.8607 2.49004 16.8328C2.71504 16.4719 3.10098 16.2562 3.52441 16.2562C4.06191 16.2562 4.54316 16.6172 4.69316 17.1328C4.71348 17.2 4.77441 17.2453 4.84316 17.2453C4.85254 17.2453 4.86191 17.2437 4.87285 17.2422C4.94941 17.2281 5.02598 17.2203 5.10098 17.2203C5.19629 17.2203 5.2916 17.2312 5.38535 17.2547C5.89316 17.3781 6.27598 17.8265 6.3166 18.3422C6.3416 18.6656 6.2416 18.9734 6.03691 19.2187H0.994725Z" fill="url(#paint8_radial)"/>
  <path d="M3.52515 16.4109C3.9939 16.4109 4.41265 16.725 4.5439 17.175C4.58296 17.3109 4.70796 17.4 4.84389 17.4C4.86265 17.4 4.88296 17.3984 4.90171 17.3937C4.96733 17.3812 5.03452 17.375 5.10014 17.375C5.18296 17.375 5.26577 17.3843 5.34702 17.4046C5.79077 17.5125 6.12514 17.9031 6.15952 18.3531C6.17983 18.6109 6.10796 18.8578 5.95952 19.0609L1.00327 19.0625C0.992333 19.0562 0.954833 19.0109 0.942333 18.9265C0.931395 18.8578 0.942333 18.7625 0.998583 18.7046C1.07671 18.6281 1.13452 18.4812 1.04546 18.3218C0.986083 18.2171 0.961083 18.0843 0.975145 17.9468C1.0189 17.5015 1.3814 17.1187 1.83608 17.0359C1.90015 17.025 1.96421 17.0187 2.02827 17.0187C2.11265 17.0187 2.19858 17.0296 2.2814 17.05C2.3064 17.0562 2.3314 17.0593 2.3564 17.0593C2.46265 17.0593 2.56421 17.0046 2.62202 16.9125C2.81733 16.6 3.15483 16.4109 3.52515 16.4109ZM3.52515 16.0984C3.03139 16.0984 2.60015 16.3578 2.35796 16.7484C2.25327 16.7234 2.1439 16.7093 2.02983 16.7093C1.94858 16.7093 1.86577 16.7171 1.7814 16.7312C1.1939 16.8375 0.723583 17.325 0.664208 17.9187C0.629833 18.2671 0.779833 18.4828 0.776708 18.4859C0.48452 18.7796 0.645458 19.375 0.995458 19.375H6.1064C6.23656 19.236 6.33631 19.0713 6.39926 18.8916C6.46222 18.7119 6.487 18.521 6.47202 18.3312C6.42671 17.7421 5.99702 17.2437 5.42202 17.1031C5.31718 17.0774 5.20965 17.0643 5.10171 17.064C5.01421 17.064 4.92827 17.0734 4.84389 17.089C4.67671 16.5171 4.15015 16.0984 3.52515 16.0984Z" fill="#689F38"/>
  <path d="M2.1739 17.6453C2.1739 17.6453 2.1614 17.2687 2.46453 16.8656" stroke="#689F38" stroke-width="2" stroke-miterlimit="10" stroke-linecap="round" stroke-linejoin="round"/>
  <path d="M4.8207 17.2454C4.46445 17.2516 4.11758 17.5313 4.06445 17.8719" stroke="#689F38" stroke-width="2" stroke-miterlimit="10" stroke-linecap="round" stroke-linejoin="round"/>
  <path d="M4.45469 18.0297C4.14219 17.8875 3.72188 17.9094 3.39844 18.075" stroke="#689F38" stroke-width="2" stroke-miterlimit="10" stroke-linecap="round" stroke-linejoin="round"/>
  <path opacity="0.2" d="M9.99934 1.09375C10.0493 1.09375 10.1228 1.10625 10.1915 1.16719L18.7978 8.66719C18.9275 8.78125 18.9431 8.98125 18.8306 9.11406C18.7525 9.20625 18.6556 9.22031 18.6056 9.22031C18.5556 9.22031 18.4821 9.20781 18.4134 9.14688L10.615 2.35C10.4446 2.20156 10.2259 2.11875 9.99934 2.11875C9.77277 2.11875 9.55402 2.2 9.38371 2.35L1.58527 9.14531C1.51652 9.20625 1.44308 9.21875 1.39308 9.21875C1.34308 9.21875 1.24621 9.20469 1.16808 9.1125C1.05558 8.97969 1.07121 8.77969 1.2009 8.66563L9.80715 1.16563C9.8759 1.10625 9.94934 1.09375 9.99934 1.09375ZM9.99934 0.625C9.82121 0.625 9.64308 0.6875 9.49934 0.8125L0.893084 8.3125C0.571209 8.59375 0.533709 9.08594 0.810272 9.41406C0.881273 9.49976 0.970335 9.56871 1.07109 9.61598C1.17184 9.66325 1.28179 9.68767 1.39308 9.6875C1.56965 9.6875 1.74777 9.625 1.89308 9.5L9.69152 2.70312C9.7768 2.62868 9.88614 2.58761 9.99934 2.5875C10.1125 2.58761 10.2219 2.62868 10.3071 2.70312L18.1056 9.49844C18.1819 9.56503 18.2708 9.61571 18.367 9.64749C18.4633 9.67927 18.5648 9.69152 18.6658 9.68352C18.7669 9.67551 18.8652 9.64742 18.9552 9.60088C19.0452 9.55434 19.125 9.49029 19.19 9.4125C19.4665 9.08438 19.429 8.59219 19.1071 8.31094L10.4993 0.8125C10.3556 0.6875 10.1775 0.625 9.99934 0.625Z" fill="#424242"/>
  <defs>
    <radialGradient id="paint0_radial" cx="0" cy="0" r="1" gradientUnits="userSpaceOnUse" gradientTransform="translate(10 1.305) scale(19.3984)">
      <stop stop-color="#FFD54F"/>
      <stop offset="0.179" stop-color="#FFD34B"/>
      <stop offset="0.353" stop-color="#FFCE3F"/>
      <stop offset="0.524" stop-color="#FFC62C"/>
      <stop offset="0.693" stop-color="#FFBA11"/>
      <stop offset="0.778" stop-color="#FFB300"/>
      <stop offset="1" stop-color="#FFB300"/>
    </radialGradient>
    <radialGradient id="paint1_radial" cx="0" cy="0" r="1" gradientUnits="userSpaceOnUse" gradientTransform="translate(7.08984 9.33594) scale(8.20344)">
      <stop stop-color="#D32F2F"/>
      <stop offset="0.437" stop-color="#CA2929"/>
      <stop offset="0.996" stop-color="#B71C1C"/>
    </radialGradient>
    <radialGradient id="paint2_radial" cx="0" cy="0" r="1" gradientUnits="userSpaceOnUse" gradientTransform="translate(7.16797 9.76558) scale(7.36391)">
      <stop stop-color="#EF5350"/>
      <stop offset="1" stop-color="#E53935"/>
    </radialGradient>
    <radialGradient id="paint3_radial" cx="0" cy="0" r="1" gradientUnits="userSpaceOnUse" gradientTransform="translate(7.10938 10.4297) scale(6.50234)">
      <stop stop-color="#E53935"/>
      <stop offset="0.407" stop-color="#DC3431"/>
      <stop offset="1" stop-color="#C62828"/>
    </radialGradient>
    <radialGradient id="paint4_radial" cx="0" cy="0" r="1" gradientUnits="userSpaceOnUse" gradientTransform="translate(7.10938 10.4297) scale(6.50234)">
      <stop stop-color="#E53935"/>
      <stop offset="0.407" stop-color="#DC3431"/>
      <stop offset="1" stop-color="#C62828"/>
    </radialGradient>
    <linearGradient id="paint5_linear" x1="7.19203" y1="17.1359" x2="7.19203" y2="18.1562" gradientUnits="userSpaceOnUse">
      <stop offset="0.004" stop-color="#BDBDBD"/>
      <stop offset="0.215" stop-color="#B5B5B5"/>
      <stop offset="0.55" stop-color="#9E9E9E"/>
      <stop offset="0.965" stop-color="#787878"/>
      <stop offset="1" stop-color="#757575"/>
    </linearGradient>
    <linearGradient id="paint6_linear" x1="7.19203" y1="17.8781" x2="7.19203" y2="18.8922" gradientUnits="userSpaceOnUse">
      <stop offset="0.004" stop-color="#BDBDBD"/>
      <stop offset="0.397" stop-color="#BABABA"/>
      <stop offset="0.703" stop-color="#B0B0B0"/>
      <stop offset="0.979" stop-color="#A0A0A0"/>
      <stop offset="1" stop-color="#9E9E9E"/>
    </linearGradient>
    <radialGradient id="paint7_radial" cx="0" cy="0" r="1" gradientUnits="userSpaceOnUse" gradientTransform="translate(9.92121 0.58592) scale(10.5686)">
      <stop stop-color="#F44336"/>
      <stop offset="0.34" stop-color="#EE3F35"/>
      <stop offset="0.803" stop-color="#DC3531"/>
      <stop offset="0.996" stop-color="#D32F2F"/>
    </radialGradient>
    <radialGradient id="paint8_radial" cx="0" cy="0" r="1" gradientUnits="userSpaceOnUse" gradientTransform="translate(3.44324 16.4273) rotate(90) scale(3.79656 4.41047)">
      <stop stop-color="#9CCC65"/>
      <stop offset="0.254" stop-color="#96C760"/>
      <stop offset="0.599" stop-color="#84B851"/>
      <stop offset="0.995" stop-color="#689F38"/>
    </radialGradient>
  </defs>
</svg>
